<?xml version="1.0" standalone="no"?>
<!DOCTYPE svg PUBLIC "-//W3C//DTD SVG 1.1//EN" "http://www.w3.org/Graphics/SVG/1.1/DTD/svg11.dtd" >
<svg>
<metadata>
Created by FontForge 20090914 at Tue Oct  1 13:37:15 2013
 By www-data
V.1.00 (C) Pete Klassen, 2002.
</metadata>
<defs>
<font id="RingbearerMedium" horiz-adv-x="1467" >
  <font-face 
    font-family="Ringbearer"
    font-weight="500"
    font-stretch="normal"
    units-per-em="2048"
    panose-1="2 2 6 2 5 3 11 2 3 3"
    ascent="1638"
    descent="-410"
    x-height="1249"
    cap-height="1627"
    bbox="-342 -953.996 2430 2108"
    underline-thickness="100"
    underline-position="-267"
    unicode-range="U+0020-U+F002"
  />
<missing-glyph horiz-adv-x="1024" 
d="M128 0v1810h768v-1810h-768zM256 128h512v1554h-512v-1554z" />
    <glyph glyph-name=".notdef" horiz-adv-x="1024" 
d="M128 0v1810h768v-1810h-768zM256 128h512v1554h-512v-1554z" />
    <glyph glyph-name="space" unicode=" " horiz-adv-x="442" 
 />
    <glyph glyph-name="exclam" unicode="!" horiz-adv-x="602" 
d="M256 201l25 0.000976562c12.667 -36 44.667 -73.667 96 -113v-20c-44.667 -35.333 -73.334 -70.333 -86.001 -105h-25c-17.333 45.333 -52.666 79.666 -105.999 102.999v24c40.667 18.667 72.667 55.667 96 111zM375 1128l32.999 -20.001
c-1.33301 -6.66699 -24 -143 -68 -409c-39.333 -240.667 -61.333 -361 -66 -361c-9.33301 0 -14 4 -14 12v23c0 283.333 -11.667 483.333 -35 600c-4 21.333 -13.833 38.333 -29.5 51s-23.5 20.334 -23.5 23.001c0 4 28 15.667 84 35c64.667 22.667 104.334 38 119.001 46z
" />
    <glyph glyph-name="quotedbl" unicode="&#x22;" horiz-adv-x="678" 
d="M518 864l-31 0.000976562l-65 457c0 2 -0.333008 4 -1 6c-2 14.667 -3 25.667 -3 33c0 68 28.667 102 86 102c56 0 84 -33.333 84 -100c0 -18.667 -0.666992 -32.334 -2 -41.001zM190 864.001l-32 -0.000976562l-64 457c-2.66699 19.333 -4 33 -4 41
c0 66.667 28 100 84 100c57.333 0 86 -33.333 86 -100c0 -7.33301 -1 -18.666 -3 -33.999c0 -2 -0.333008 -4.33301 -1 -7z" />
    <glyph glyph-name="numbersign" unicode="#" horiz-adv-x="1575" 
d="M700 868l-100 -286h289l102 286h-291zM778 1456h133l-168 -471h287l168 471h131l-166 -471h307l-40 -117h-310l-100 -286h332l-43 -115h-330l-166 -469h-133l166 469h-287l-166 -469h-131l166 469h-324l43 115h322l100 286h-348l43 117h348z" />
    <glyph glyph-name="dollar" unicode="$" horiz-adv-x="1034" 
d="M859 253c-8.66699 -46 -27.3359 -91.6689 -56.0029 -137.002c-35.333 -56 -77.666 -94.333 -126.999 -115c-52 -22 -106.333 -34.333 -163 -37c-2.66699 -20 -2.66699 -50.667 0 -92h-16c3.33301 2.66699 4.33301 11.334 3 26.001c-2 25.333 -3 45.666 -3 60.999
c-42 3.33301 -74 5 -96 5c0 -2 1.33301 9 4 33c-19.333 13.333 -36.666 20 -51.999 20c-12 0 -21.333 -4.33301 -28 -13c8.66699 -6 18.334 -9 29.001 -9c-9.33301 -15.333 -21.666 -20.666 -36.999 -15.999c-30.667 10 -52 17.333 -64 22c-22 4.66699 -54 17 -96 37
c-12 57.333 -19.667 107.666 -23 150.999c-0.666992 6.66699 -0.666992 17.334 0 32.001l2 24v81c0 22 8.33301 33 25 33c2.66699 0 5.66699 -1 9 -3c2.66699 -35.333 10 -85.666 22 -150.999c4.66699 -6.66699 11.667 -17.334 21 -32.001
c23.333 -43.333 76.666 -77 159.999 -101c32.667 -9.33301 73 -17.333 121 -24c0.666992 5.33301 -0.333008 47.666 -3 126.999c-2 73.333 -3 111.333 -3 114c0 2 0.833008 6.66699 2.5 14s2.5 12.333 2.5 15v72c0 20 -2.33301 43.333 -7 70
c0 0.666992 -6 5.33398 -18 14.001l-44 23c-20.667 11.333 -70 42.666 -148 93.999c-2.66699 4 -7 9.66699 -13 17c-12 12 -28 31.333 -48 58c0 3.33301 -1.66699 8.33301 -5 15c-5.33301 4 -11.333 10.667 -18 20c0.666992 7.33301 1 17.333 1 30
c-2 12 -7.33301 24.333 -16 37c0.666992 15.333 1.66699 37 3 65c-2 1.33301 -5 4 -9 8c-1.33301 10 -1 16.333 1 19c9.33301 13.333 16 30.333 20 51c5.33301 23.333 10.333 39.5 15 48.5s18 22.5 40 40.5c0.666992 0 4.66699 -4 12 -12c2 9.33301 7.66699 22 17 38
c36 33.333 78.667 63 128 89c4.66699 2.66699 23 4 55 4c-3.33301 26 -6 63.667 -8 113c6.66699 12 22.667 13 48 3c0 -6 0.666992 -19.667 2 -41c0.666992 -24 1.33398 -41.333 2.00098 -52c5.33301 -4 12.666 -10.333 21.999 -19c30 4.66699 44.333 7 43 7
c2.66699 -2 6.66699 -4.33301 12 -7c25.333 -3.33301 62 -7.33301 110 -12c20.667 -0.666992 40 -0.666992 58 0l30 6c16 2 28.667 0.666992 38 -4l-15 -245v-74h-37c-3.33301 15.333 -5 28.333 -5 39c0 74.667 -32 132 -96 172c-17.333 10.667 -53 18.334 -107 23.001
c8.66699 -0.666992 -8.66602 -2.66699 -51.999 -6c-7.33301 -20 -11.666 -51.667 -12.999 -95c-0.666992 -36 -1.66699 -72.333 -3 -109c-3.33301 -58 -4.33301 -93.667 -3 -107c3.33301 -24.667 10.666 -40.667 21.999 -48c11.333 -4 27.666 -10.333 48.999 -19
c125.333 -56 210.666 -116 255.999 -180c13.333 -19.333 25 -46.666 35 -81.999c0.666992 -4 1.33398 -10 2.00098 -18c8 -65.333 11.333 -102.333 10 -111zM466.998 691.998l-6 151.999v94c0 1.33301 0.666992 10.5 2 27.5s2 28.833 2 35.5c4 5.33301 2 9.66602 -6 12.999
c-2 -4 -6.33301 -5.66699 -13 -5c-8.66699 0 -14 -0.666992 -16 -2c-22 -11.333 -42 -30.166 -60 -56.499s-27 -49.166 -27 -68.499c0 -2.66699 1 -7.66699 3 -15s3.33301 -12 4 -14c4 -30.667 10.333 -56 19 -76c12 -28.667 44.667 -57 98 -85zM698.998 223.997
c0 26.667 -2.00098 46.335 -6.00098 59.002c-8 26 -22.333 52 -43 78c-6 3.33301 -14.333 9.66602 -25 18.999c-3.33301 5.33301 -8.66602 11.666 -15.999 18.999l-74 42c4 -48 5.33301 -77.333 4 -88c-4 -19.333 -7.66699 -38.666 -11 -57.999
c-4.66699 -22.667 -5 -42.334 -1 -59.001c-0.666992 -8 -1 -18.667 -1 -32c6.66699 -40 10 -62.333 10 -67c0 9.33301 -4.33301 -0.333984 -13 -29.001c-2 -8 -3 -28.667 -3 -62c16 16 37 26.667 63 32c31.333 6.66699 49.5 11.5 54.5 14.5s13.5 17.833 25.5 44.5
c5.33301 8 11.333 19.667 18 35c1.33301 7.33301 4 18 8 32c6.66699 16.667 10 23.334 10 20.001z" />
    <glyph glyph-name="percent" unicode="%" horiz-adv-x="1317" 
d="M797 311c0 -68.667 15.333 -131.333 46 -188c38 -68.667 88.667 -103 152 -103c83.333 0 125 55.333 125 166c0 68 -15 130.667 -45 188c-36 70 -85 105 -147 105c-87.333 0 -131 -56 -131 -168zM676 233.001c0 82.667 29 151.5 87 206.5s128.667 82.5 212 82.5
c74.667 0 137.667 -24.167 189 -72.5s77 -109.5 77 -183.5c0 -82 -29.5 -151.333 -88.5 -208s-129.833 -85 -212.5 -85c-76 0 -139 24.333 -189 73s-75 111 -75 187zM170 -22.999l877 1143h79l-878 -1143h-78zM193 913.001c0 -68.667 15.668 -130.999 47.001 -186.999
c37.333 -67.333 87.666 -101 150.999 -101c83.333 0 125 53.667 125 161c0 68.667 -14.667 132 -44 190c-36 71.333 -85.333 107 -148 107c-44 0 -77.667 -18 -101 -54c-20 -30.667 -30 -69.334 -30 -116.001zM70.001 838.002c0 82.667 29.333 151 88 205s129.667 81 213 81
c74.667 0 137.667 -24.167 189 -72.5s77 -109.5 77 -183.5c0 -82 -29.667 -151.333 -89 -208s-130 -85 -212 -85c-76.667 0 -140.167 24.833 -190.5 74.5s-75.5 112.5 -75.5 188.5z" />
    <glyph glyph-name="ampersand" unicode="&#x26;" horiz-adv-x="1329" 
d="M508 733c75.333 37.333 113 84.333 113 141c0 49.333 -18.833 92.5 -56.5 129.5s-81.167 55.5 -130.5 55.5c-35.333 0 -66.333 -13.167 -93 -39.5s-40 -56.833 -40 -91.5c0 -73.333 69 -138.333 207 -195zM434 633c-110.667 -59.333 -166 -147.333 -166 -264
c0 -78.667 24 -146.667 72 -204c50.667 -60.667 114.667 -91 192 -91c101.333 0 186 58 254 174c-46.667 110.667 -90 190 -130 238c-54 65.333 -128 114.333 -222 147zM813 193c-92 -145.333 -211.336 -217.999 -358.003 -217.999c-92 0 -169.333 31 -232 93
s-94 139 -94 231c0 148.667 86 268 258 358c-110.667 53.333 -166 125.666 -166 216.999c0 120.667 93 214.334 279 281.001c147.333 -39.333 221 -117 221 -233c0 -33.333 -4.66699 -61.333 -14 -84c-34 -47.333 -83.333 -89 -148 -125c76 -32.667 137.333 -74 184 -124
c42.667 -45.333 82.334 -108 119.001 -188c98.667 206 148 346.667 148 422c0 16.667 -14 32.334 -42 47.001s-42 23 -42 25c0 12 3.33301 18 10 18c4 0 13.667 -2.33301 29 -7c70.667 -21.333 136.667 -32 198 -32h25c12 0 18 -4 18 -12c0 -13.333 -8.66699 -20 -26 -20
c-44 0 -87.667 -55.333 -131 -166c-50 -128.667 -102 -241.334 -156 -338.001c35.333 -76.667 62 -129.334 80 -158.001c43.333 -68 87 -102 131 -102c30.667 0 62.334 23.833 95.001 71.5s46.667 71.5 42 71.5c18 0 27 -5.33301 27 -16c0 -48 -25.333 -94.167 -76 -138.5
s-100.667 -66.5 -150 -66.5c-99.333 -0 -175.666 64.333 -228.999 193z" />
    <glyph glyph-name="quotesingle" unicode="'" horiz-adv-x="348" 
d="M190 864l-32 -0.000976562l-66 457c-1.33301 9.33301 -2 22.333 -2 39c0 68 28 102 84 102c57.333 0 86 -33.333 86 -100c0 -7.33301 -1 -18.666 -3 -33.999c0 -2 -0.333008 -4.33301 -1 -7z" />
    <glyph glyph-name="parenleft" unicode="(" horiz-adv-x="842" 
d="M780 1323l39 -44.999c-312.667 -200.667 -469 -504.334 -469 -911.001c0 -407.333 155.667 -710.666 467 -909.999l-37 -49c-332.667 216.667 -499 535.667 -499 957c0 425.333 166.333 744.666 499 957.999z" />
    <glyph glyph-name="parenright" unicode=")" horiz-adv-x="842" 
d="M61 1323c332 -215.333 498 -534.667 498 -958c0 -424 -166.667 -743 -500 -957l-36 45c312.667 202 469 506 469 912c0 405.333 -155.667 708.333 -467 909z" />
    <glyph glyph-name="asterisk" unicode="*" horiz-adv-x="872" 
d="M436 1049c-27.333 0 -50.833 -10 -70.5 -30s-29.5 -43.667 -29.5 -71c0 -26 10.167 -49.5 30.5 -70.5s43.5 -31.5 69.5 -31.5c28 0 51.833 10 71.5 30s29.5 44 29.5 72s-9.83301 51.833 -29.5 71.5s-43.5 29.5 -71.5 29.5zM416 1292h40.999l37 -205
c2.66699 -14.667 10.667 -22 24 -22c2 0.666992 4.66699 1.16699 8 1.5s9 1.83301 17 4.5l186 62l16 -37l-161 -125c-4.66699 -3.33301 -7.66699 -11 -9 -23c1.33301 -9.33301 8 -18.666 20 -27.999l150 -119l-16 -37l-184 59c-16.667 5.33301 -25.667 8 -27 8
c-14 0 -22.333 -7.66699 -25 -23l-34 -204h-43l-35 205c-2.66699 14.667 -11.667 22 -27 22c-12 0 -20 -2 -24 -6l-187 -61l-16 37l149 119c14 11.333 21 20.666 21 27.999c0 11.333 -2.66699 19 -8 23l-162 125l16 37l187 -60c2 -0.666992 4.33301 -1.66699 7 -3
c5.33301 -2 8.33301 -3 9 -3c20.667 0 32.334 7 35.001 21z" />
    <glyph glyph-name="plus" unicode="+" horiz-adv-x="1706" 
d="M795 1221h118v-551h539v-117h-539v-553h-118v553h-541v117h541v551z" />
    <glyph glyph-name="comma" unicode="," horiz-adv-x="463" 
d="M221 215l27 -0.00195312c4.66699 -16.667 21 -50.667 49 -102c22 -41.333 33 -77.666 33 -108.999c0 -104.667 -61.667 -197.334 -185 -278.001l-26 30c78 66.667 117 125.334 117 176.001c0 55.333 -43.333 89 -130 101v30c60 30.667 98.333 81.334 115 152.001z" />
    <glyph glyph-name="hyphen" unicode="-" horiz-adv-x="708" 
d="M725 642c2 -4.66699 1.99902 -13.665 -0.000976562 -26.998c-2.66699 -14.667 -7.33398 -25.334 -14.001 -32.001c-73.333 4.66699 -156.666 11 -249.999 19h-105c-19.333 0 -96.333 -15.667 -231 -47c-10.667 -2.66699 -19 6.66602 -25 27.999c-4 15.333 -4 32.333 0 51
c6 29.333 9 46.333 9 51l44 -12c3.33301 12.667 13.333 19 30 19c4.66699 0 17.334 -1.33301 38.001 -4c17.333 -2 31.333 -2.33301 42 -1c1.33301 4 5.33301 11.5 12 22.5s10.667 18.5 12 22.5c122 -46 263.333 -69.333 424 -70c6 -5.33301 10.667 -12 14 -20z" />
    <glyph glyph-name="hyphen" unicode="&#x2010;" horiz-adv-x="708" 
d="M725 642c2 -4.66699 1.99902 -13.665 -0.000976562 -26.998c-2.66699 -14.667 -7.33398 -25.334 -14.001 -32.001c-73.333 4.66699 -156.666 11 -249.999 19h-105c-19.333 0 -96.333 -15.667 -231 -47c-10.667 -2.66699 -19 6.66602 -25 27.999c-4 15.333 -4 32.333 0 51
c6 29.333 9 46.333 9 51l44 -12c3.33301 12.667 13.333 19 30 19c4.66699 0 17.334 -1.33301 38.001 -4c17.333 -2 31.333 -2.33301 42 -1c1.33301 4 5.33301 11.5 12 22.5s10.667 18.5 12 22.5c122 -46 263.333 -69.333 424 -70c6 -5.33301 10.667 -12 14 -20z" />
    <glyph glyph-name="period" unicode="." horiz-adv-x="463" 
d="M209 236h16.001c29.333 -60.667 71 -105.334 125 -134.001v-22c-66.667 -28 -107.667 -67 -123 -117h-18c-16.667 66.667 -53.334 106.334 -110.001 119.001l-1 20c55.333 39.333 92.333 84 111 134z" />
    <glyph glyph-name="slash" unicode="/" horiz-adv-x="676" 
d="M578 1249h79l-618 -1439h-78z" />
    <glyph glyph-name="zero" unicode="0" horiz-adv-x="1034" 
d="M957 482c1.33301 -24.667 0.333008 -44.333 -3 -59c-4 -11.333 -7.66699 -23 -11 -35c-12 -74.667 -33 -141.667 -63 -201c-20 -40 -65 -83.667 -135 -131c-3.33301 0.666992 11.334 1 44.001 1c4.66699 -6 7 -11.333 7 -16c-94.667 -40 -164.334 -60 -209.001 -60h-122
c-34.667 0 -60 6 -76 18c-19.333 15.333 -37.333 26 -54 32c-26.667 8.66699 -41.334 13.667 -44.001 15l-51 45c-5.33301 0 -12.333 2.33301 -21 7c-24.667 26 -42.667 50 -54 72l-29 81c-10.667 18.667 -24.667 48.667 -42 90c-20.667 64 -31 136.667 -31 218
c0 4 1.83301 12.667 5.5 26s5.5 23.333 5.5 30c4 136 49 235.667 135 299c6 1.33301 14 3.66602 24 6.99902c34 16 61 31.667 81 47h-85c4.66699 4 38 16.667 100 38c68 24 105.333 36 112 36c11.333 0 75 -5.66699 191 -17c19.333 -2 34 -5 44 -9
c30 -10.667 51.667 -20.667 65 -30c26.667 -17.333 51.667 -38.666 75 -63.999c44.667 -47.333 86.334 -128.333 125.001 -243c2 -19.333 6.33301 -49 13 -89c0 -26.667 1 -62.667 3 -108zM802 405.001c2 109.333 -5.99902 196.334 -23.999 261.001
c-17.333 62.667 -44 121.334 -80 176.001c-24.667 38 -43.334 60.333 -56.001 67c-26 10 -62.333 25 -109 45h-116c-75.333 -41.333 -133.333 -103 -174 -185c0 -16 -0.666992 -39 -2 -69c-2.66699 -8.66699 -5.33398 -20 -8.00098 -34c-10 -122 -13.333 -194.667 -10 -218
c9.33301 -22.667 21 -52.667 35 -90c6.66699 -32.667 15.334 -68.334 26.001 -107.001c64 -108 138 -165 222 -171c56 -4 99 -0.333008 129 11c39.333 15.333 70.333 45.666 93 90.999c12.667 15.333 27 37 43 65c20 62 30.333 114.667 31 158z" />
    <glyph glyph-name="one" unicode="1" horiz-adv-x="1034" 
d="M759 34c-2 -8 -4.99902 -19.001 -8.99902 -33.001h-391l-98 -5c-7.33301 -1.33301 -12.333 3 -15 13c-2.66699 11.333 0 20.333 8 27c8 0.666992 20 3 36 7c29.333 8.66699 45.333 13.334 48 14.001c19.333 8.66699 29.333 20.334 30 35.001c0 0.666992 0.666992 3 2 7
s2 7 2 9c14.667 0 28.667 -1.66699 42 -5c10 35.333 10.333 61.666 1 78.999c2 5.33301 3 11 3 17c0 10 -4.83301 22.167 -14.5 36.5s-14.834 24.5 -15.501 30.5c0 6.66699 2.5 16.667 7.5 30s7.5 23.333 7.5 30s-1.33301 12.667 -4 18
c10.667 24.667 14.334 42.667 11.001 54c0.666992 10.667 0.333984 25.667 -0.999023 45c0 0.666992 -4.33301 9.66699 -13 27c-2 6 0.333008 11.667 7 17c0.666992 12.667 2 30 4 52c-2 -8 -3 6 -3 42c0 1.33301 0.666992 4.5 2 9.5s1.66602 9.16699 0.999023 12.5
c-0.666992 2 -2.33398 4.66699 -5.00098 8c2 23.333 3 44 3 62c0 2 -0.666992 5.16699 -2 9.5s-2.33301 7.16602 -3 8.49902c1.33301 6.66699 1.66602 15.334 0.999023 26.001c-2.66699 8.66699 -3 25 -1 49c1.33301 18.667 -2.66699 32.667 -12 42
c2.66699 5.33301 3.66699 10 3 14c-3.33301 31.333 -8.66602 64 -15.999 98c-5.33301 24 -21 39.667 -47 47c-18.667 1.33301 -46.667 4.33301 -84 9c2.66699 14.667 6 26.334 10 35.001c34.667 2.66699 66.334 6 95.001 10c16 2.66699 40.667 6 74 10
c27.333 2 47.333 4 60 6c97.333 12.667 178.333 24.334 243 35.001c5.33301 1.33301 9.33301 1.66602 12 0.999023c2.66699 -2.66699 5.66699 -15 9 -37l-57 -20c-22.667 -8 -36 -20 -40 -36c-4.66699 -6.66699 -10.334 -16.667 -17.001 -30c-8 -26 -17 -64.667 -27 -116
c-0.666992 -12.667 -1 -49.334 -1 -110.001c0 -160 -1 -252 -3 -276c-0.666992 -2 -1.66699 -4.33301 -3 -7c1.33301 -4 3 -10 5 -18c-1.33301 4.66699 -2 -13.333 -2 -54v-99c0 -57.333 4.66699 -103.333 14 -138c1.33301 -9.33301 5 -22 11 -38c28 -38 72 -58 132 -60z
" />
    <glyph glyph-name="two" unicode="2" horiz-adv-x="1034" 
d="M944 300c0 -3.33301 -2.66699 -15.6631 -8 -36.9961c-3.33301 -13.333 -9 -23.333 -17 -30c-12 -11.333 -30 -44.333 -54 -99c-5.33301 -4 -12.666 -10.667 -21.999 -20c3.33301 -10 1.33301 -21.667 -6 -35c-10.667 -16.667 -25.667 -42.334 -45 -77.001
c-3.33301 -10 -6.33301 -20 -9 -30c-6 -15.333 -15 -24.666 -27 -27.999c-2.66699 -1.33301 -15.667 3.33398 -39 14.001c-6 -4 -11 -3.33301 -15 2c-3.33301 3.33301 -6.33301 7 -9 11c-3.33301 1.33301 -22.666 6.33301 -57.999 15c-13.333 -4 -31 -4 -53 0
c-31.333 6 -49.333 9.33301 -54 10c-1.33301 0 -3.33301 0.666992 -6 2s-5 2 -7 2h-58c-1.33301 0 -4.33301 -0.666992 -9 -2s-8 -2 -10 -2h-64c-1.33301 0 -10.333 -1.33301 -27 -4s-26 -4 -28 -4h-50c-1.33301 0 -6.33301 -1.5 -15 -4.5s-14 -4.5 -16 -4.5h-74
c-1.33301 0 -3 -0.666992 -5 -2s-3.66699 -2 -5 -2h-61l-25 6.5c-8.66699 2.33301 -14.667 8.5 -18 18.5c-2.66699 8.66699 4 21.334 20 38.001c8 12 21.667 30 41 54c1.33301 1.33301 8.66602 3.66602 21.999 6.99902l18 15c11.333 7.33301 27 18.333 47 33
c6 6.66699 16.667 17 32 31l40 37c3.33301 0.666992 7.33301 2.33398 12 5.00098c31.333 32 67 73 107 123l25 36c6 4 14 10.667 24 20c4.66699 8 11.667 19 21 33c6 5.33301 14.333 14.666 25 27.999c1.33301 6.66699 4.33301 15.334 9 26.001
c12 14.667 26.667 36.334 44 65.001c1.33301 0 3 0.666992 5 2c9.33301 17.333 20 44.666 32 81.999c1.33301 19.333 8.33301 47.666 21 84.999c5.33301 9.33301 6.33301 21 3 35l-7 32v54c-3.33301 3.33301 -7.66602 8 -12.999 14c-0.666992 3.33301 -2 8.66602 -4 15.999
c-1.33301 3.33301 -10.333 18 -27 44c-2 6 -7.33301 14 -16 24c-36 27.333 -75.333 41 -118 41c-22.667 0 -43.667 -4.33301 -63 -13c-3.33301 -4 -8.66602 -9 -15.999 -15c-7.33301 -3.33301 -17.333 -9.33301 -30 -18c-17.333 -16.667 -39 -28 -65 -34
c-17.333 -20.667 -36 -41 -56 -61c-4 -4.66699 -8.33301 -7 -13 -7c-17.333 0 -32.333 11 -45 33c-2.66699 5.33301 -0.666992 13 6 23c20 27.333 44.333 53.333 73 78c7.33301 3.33301 18 9.33301 32 18l22 21c3.33301 -0.666992 8 -1 14 -1c5.33301 2 13 5.33301 23 10
c26 15.333 61.667 31.666 107 48.999c4.66699 0 12 0.666992 22 2c3.33301 2 9 4 17 6c5.33301 1.33301 14 0.333008 26 -3h63c10.667 -0.666992 26 -3.66699 46 -9l55 -27c10.667 -1.33301 24.667 -7 42 -17c4.66699 -9.33301 13.667 -22.333 27 -39
c5.33301 -2 12.666 -5.33301 21.999 -10c6.66699 -4.66699 11.667 -13.334 15 -26.001c3.33301 -6 7 -14.667 11 -26l3 -28c3.33301 -6 7.66602 -14.667 12.999 -26c-1.33301 -6 -2.33301 -14.333 -3 -25c2.66699 -2.66699 5.66699 -6.66699 9 -12
c1.33301 -6.66699 1 -14 -1 -22c-2.66699 -10 -4 -16.333 -4 -19c0.666992 4.66699 2.33398 -0.666016 5.00098 -15.999c-8 -14.667 -13.333 -34 -16 -58c-2 -3.33301 -4.66699 -8.66602 -8 -15.999s-7.5 -18.5 -12.5 -33.5s-9.5 -27.167 -13.5 -36.5l-63 -105
c-4 -2.66699 -9 -7.33398 -15 -14.001c-8 -14.667 -21.667 -30.667 -41 -48c-28.667 -24 -43 -36.333 -43 -37c-23.333 -21.333 -57.333 -55.666 -102 -102.999c-0.666992 -4.66699 -3 -11.334 -7 -20.001c-30 -36.667 -64.333 -66.667 -103 -90
c-9.33301 -6 -23.666 -22.333 -42.999 -49c-1.33301 -2.66699 -3 -6.33398 -5 -11.001c27.333 -3.33301 61.666 -5.66602 102.999 -6.99902c3.33301 -2 5.33301 -3 6 -3h52c-0.666992 0 5.66602 -2 18.999 -6c0.666992 -2.66699 -5.33301 -11 -18 -25
c12 -1.33301 32.667 -4.33301 62 -9l9 3c9.33301 1.33301 17.666 0.333008 24.999 -3l5 5c-8 2 -16 8.33301 -24 19c-1.33301 0 -3.33301 -1.5 -6 -4.5s-5 -4.83301 -7 -5.5c-2.66699 -0.666992 -13 1.66602 -31 6.99902c-2 5.33301 -2.66699 8.66602 -2 9.99902
s2 2.66602 4 3.99902c21.333 4 33 5.66699 35 5h94c2 0 3.5 -0.666992 4.5 -2s2.5 -2 4.5 -2h56c27.333 0 57.666 6.33301 90.999 19c10 3.33301 17 9 21 17c0.666992 5.33301 2.33398 13.333 5.00098 24c2 6 6.33301 8.33301 13 7
c7.33301 -0.666992 11.333 -3.33398 12 -8.00098c2.66699 9.33301 7.66699 21.666 15 36.999l50 63c0.666992 4.66699 3 11.334 7 20.001c0.666992 0 2 0.666992 4 2c-0.666992 0 4.33301 -1 15 -3c2.66699 0.666992 6.66699 1 12 1
c6.66699 -1.33301 10 -4.66602 10 -9.99902z" />
    <glyph glyph-name="three" unicode="3" horiz-adv-x="1034" 
d="M779 217c0 -1.33301 -0.661133 -6.16309 -1.99414 -14.4961s-2 -14.833 -2 -19.5c-1.33301 -2 -3 -4.66699 -5 -8c4 -7.33301 3 -18 -3 -32c-6.66699 -7.33301 -15.667 -19.333 -27 -36c-2.66699 -7.33301 -8 -18.666 -16 -33.999
c-3.33301 -5.33301 -11.333 -14.666 -24 -27.999c-8.66699 -11.333 -23.667 -27 -45 -47c-2.66699 -5.33301 -7.33398 -11.666 -14.001 -18.999c-4.66699 -2.66699 -10.667 -3 -18 -1c-1.33301 -0.666992 -2.33301 -1.33398 -3 -2.00098c1.33301 -4 0 -10.333 -4 -19
l-41 -23c-1.33301 -2.66699 -4 -5.66699 -8 -9c-8.66699 -2 -20.667 -5 -36 -9c-19.333 -7.33301 -36.666 -15.333 -51.999 -24c-4.66699 -6 -12.667 -13.667 -24 -23c-0.666992 -0.666992 -14 -4.33398 -40 -11.001c-6 -3.33301 -15.333 -7.66602 -28 -12.999
c-7.33301 0 -17.333 -0.333008 -30 -1c-14.667 -2 -35.334 -7.33301 -62.001 -16c-7.33301 -4.66699 -18.666 -10.334 -33.999 -17.001c-14 -4 -26.333 -2.66699 -37 4c-4.66699 3.33301 -10.667 13.333 -18 30c-2 5.33301 -1 9.83301 3 13.5s11.333 7.5 22 11.5
c11.333 1.33301 27.666 5 48.999 11c59.333 22 92.666 32.667 99.999 32c10 5.33301 24 13.333 42 24c6 4 12.667 9.33301 20 16l46 32c6.66699 4.66699 27.334 26.334 62.001 65.001c11.333 8 23 21 35 39c-0.666992 5.33301 -0.333984 13.666 0.999023 24.999
c4.66699 5.33301 9.66699 13.333 15 24c3.33301 13.333 5 22.666 5 27.999v49c0 -0.666992 0.833008 2.83301 2.5 10.5s3.16699 19.5 4.5 35.5l-20 46l-67 80c-2.66699 3.33301 -4.33398 10.666 -5.00098 21.999c-6.66699 5.33301 -13.667 9.66602 -21 12.999l-20 3
c-3.33301 3.33301 -9.33301 8.33301 -18 15c-3.33301 0 -8 1 -14 3c-3.33301 4 -9.33301 9 -18 15c-4 1.33301 -17 8 -39 20l-28 -6c-4.66699 -3.33301 -11.334 -7 -20.001 -11c-7.33301 0 -18 -1 -32 -3c-5.33301 -5.33301 -14.666 -11 -27.999 -17
c-7.33301 -2 -16.666 3.66699 -27.999 17s-17 24.666 -17 33.999c0 6.66699 3.66699 10 11 10c3.33301 0 6.66602 -0.333008 9.99902 -1c11.333 9.33301 29 22 53 38c8 2 19.333 5.33301 34 10c8 8.66699 19.333 20.334 34 35.001
c5.33301 -1.33301 12 -1.66602 20 -0.999023l54 32c6.66699 10 22.667 20.667 48 32c2.66699 2 4.66699 4 6 6c4.66699 4 9.33398 5.66699 14.001 5l4 3c-5.33301 5.33301 -8 11 -8 17c20 17.333 34.333 32.666 43 45.999c1.33301 5.33301 3 13.333 5 24
c4.66699 6.66699 9.66699 17.667 15 33c1.33301 32 -0.666992 61.333 -6 88c-0.666992 3.33301 -3.66699 9.66602 -9 18.999s-8 16.333 -8 21s2 8.66699 6 12c-4 2 -10 4.66699 -18 8c-2 3.33301 -5.66699 8.66602 -11 15.999c-4.66699 4.66699 -11 9.66699 -19 15
c-23.333 15.333 -43 23 -59 23c-10.667 -2.66699 -26.667 -6 -48 -10c-3.33301 0.666992 -8.66602 1 -15.999 1c-3.33301 -2.66699 -8 -5.66699 -14 -9c-14 -3.33301 -35.333 -9 -64 -17c-6.66699 -4.66699 -16.667 -11 -30 -19c-6 -2.66699 -14.667 -1.83398 -26 2.49902
s-18.333 11.5 -21 21.5c-4.66699 20 15.333 39.667 60 59c8.66699 1.33301 20.667 4.33301 36 9l32 20l46 22c5.33301 -2 12.666 -1 21.999 3h64c8.66699 2 21 4.66699 37 8c5.33301 -4.66699 8 -11.334 8 -20.001c2.66699 2.66699 6.33398 5.33398 11.001 8.00098
c1.33301 0 13.666 -1.66699 36.999 -5c32 -4.66699 56 -13.334 72 -26.001c6.66699 -9.33301 18.667 -24 36 -44c4 -0.666992 8.66699 -2 14 -4c9.33301 -10.667 18.666 -26.334 27.999 -47.001c6.66699 -16.667 8.66699 -28.334 6 -35.001
c-3.33301 -6 -5.33301 -13.333 -6 -22l-3 -39c1.33301 -2 3 -4.66699 5 -8c0 -27.333 -11 -51.666 -33 -72.999l-23 -40c-1.33301 -1.33301 -9.33301 -8.66602 -24 -21.999c0.666992 -3.33301 -11.333 -13.666 -36 -30.999c-7.33301 -7.33301 -18 -17 -32 -29l-77 -48
c12.667 -5.33301 27.667 -11 45 -17c4 -2 15 -9.66699 33 -23c26 -18.667 46 -35 60 -49c1.33301 -0.666992 5.66602 -6.66699 12.999 -18c2 -4 1.5 -7.5 -1.5 -10.5s-8.5 -4.83301 -16.5 -5.5c-1.33301 -2 -3.66602 -5 -6.99902 -9
c-2.66699 -0.666992 -6.33398 -1.66699 -11.001 -3c-1.33301 -6.66699 -8.33301 -15 -21 -25c6 -2 12.833 -0.666992 20.5 4s11.5 10.334 11.5 17.001c14.667 0 23.334 2 26.001 6c3.33301 -2 8.33301 -4.33301 15 -7c5.33301 -1.33301 12.666 -1 21.999 1
c1.33301 -2 7 -7.33301 17 -16c5.33301 -4.66699 6.66602 -9 3.99902 -13c3.33301 -1.33301 7.66602 -4.33301 12.999 -9c2.66699 -9.33301 7.66699 -23.333 15 -42c6 -6.66699 13 -20.334 21 -41.001c1.33301 -9.33301 2 -17.666 2 -24.999v-87z" />
    <glyph glyph-name="four" unicode="4" horiz-adv-x="1034" 
d="M974 405c-1.33301 -2 -5.00488 -13.6582 -11.0049 -34.9912c-1.33301 -6 -4 -15.333 -8 -28c-1.33301 -4 -9 -14.667 -23 -32c0.666992 -2 3.33398 -3.66699 8.00098 -5c-3.33301 -16.667 -11 -40.667 -23 -72c-6.66699 -11.333 -21.334 -14 -44.001 -8
c-8 2.66699 -20 5.66699 -36 9c9.33301 -0.666992 0.333008 -1 -27 -1h-58c-28 0 -38.667 1 -32 3c-2.66699 -0.666992 -6.33398 -3.66699 -11.001 -9c1.33301 -12 2 -28.333 2 -49v-105c0.666992 -2 1.66699 -4.66699 3 -8c2 -14.667 2 -28 0 -40
c-7.33301 -52.667 -8.33301 -86.667 -3 -102c1.33301 -2 5 -6.33301 11 -13s8 -12 6 -16c-2.66699 -7.33301 -6 -12 -10 -14l-44 -23c-3.33301 0 -8 -0.333008 -14 -1c-33.333 -8 -62.666 -23 -87.999 -45c-1.33301 -3.33301 -3.66602 -8 -6.99902 -14
c-22 -27.333 -39.333 -38.666 -52 -33.999c-7.33301 2.66699 -14.666 8 -21.999 16c-1.33301 5.33301 -0.666016 9.66602 2.00098 12.999c1.33301 1.33301 4 3.33301 8 6c4.66699 6 10 14.667 16 26l6 18l14 20c0 4.66699 0.666992 12 2 22
c1.33301 2.66699 2.66602 6 3.99902 10c2 8.66699 4.66699 21.667 8 39c2 2 4 5.66699 6 11c0.666992 14.667 2.66699 36.334 6 65.001c2 15.333 3.66699 20.666 5 15.999c-2.66699 16 -4.33398 22.667 -5.00098 20c2 2 4.33301 5.33301 7 10
c2 8.66699 1.33301 18.667 -2 30c-14 40.667 -13.333 73 2 97c2 4 1.33301 11 -2 21c-1.33301 1.33301 -2.66602 3.16602 -3.99902 5.49902s-2 9.83301 -2 22.5c-5.33301 2.66699 -11.666 4.33398 -18.999 5.00098c-16 1.33301 -34.667 2 -56 2
c-3.33301 0 -6.66602 -3 -9.99902 -9c-6.66699 0.666992 -16.667 1 -30 1c-2 -1.33301 -4.66699 -3 -8 -5c-7.33301 0.666992 -17.666 0.666992 -30.999 0c-0.666992 3.33301 -2 5.66602 -4 6.99902c-4.66699 2 -12.667 4.33301 -24 7
c-1.33301 0 -3.33301 -0.833008 -6 -2.5s-4.66699 -2.83398 -6 -3.50098c-24 -2.66699 -35.333 -4 -34 -4h-82c-10 -1.33301 -43 -4.33301 -99 -9c-6 -2 -14.667 -4.33301 -26 -7c-19.333 -2 -42 -1 -68 3c-12.667 0 -27.667 4.33301 -45 13
c-7.33301 13.333 -5 26.666 7 39.999c0.666992 4.66699 3 12 7 22l28 20l41 43c3.33301 5.33301 8.33301 11.666 15 18.999c9.33301 6 22 16 38 30c6 9.33301 15.667 22 29 38c2 2 7.33301 3 16 3l12 21c14.667 23.333 32.667 44 54 62c2.66699 2.66699 11 6 25 10
c1.33301 2 4 5 8 9c-0.666992 3.33301 -1 8.66602 -1 15.999c12.667 14.667 30.667 36.667 54 66c2.66699 5.33301 7 12.333 13 21c12.667 12 30.667 30 54 54l77 90c4.66699 10 12.667 24 24 42l49 57l37 62c9.33301 10.667 22.333 26.667 39 48
c2.66699 7.33301 10 20 22 38c7.33301 10.667 18.333 24.667 33 42c-2 -2 3 -3 15 -3c2 0 5 0.666992 9 2s7 1.66602 9 0.999023c4.66699 -2.66699 7.33398 -6 8.00098 -10c-2.66699 -16.667 -2.66699 -27.667 0 -33c2.66699 -63.333 4 -91.333 4 -84
c-1.33301 -24 -3.66602 -42.667 -6.99902 -56v-95c0 -10.667 -6 -15.334 -18 -14.001c0 -2.66699 -0.333008 -8.33398 -1 -17.001s-1 -15.334 -1 -20.001c1.33301 -1.33301 3.16602 -3.5 5.49902 -6.5s2.83301 -8.5 1.5 -16.5c-4.66699 -46.667 -6.66699 -74.667 -6 -84
c2 -3.33301 4 -8 6 -14c0.666992 -3.33301 -1.33301 -29 -6 -77c0.666992 -16 0.666992 -40 0 -72c-2 -16.667 -5.66699 -41.334 -11 -74.001l7 -30l-3 -34c6 -6 19 -6.66699 39 -2c13.333 2.66699 32.666 4.33398 57.999 5.00098c2 0.666992 4.66699 1.66699 8 3
c23.333 -1.33301 43.333 3 60 13c11.333 9.33301 27.333 23.666 48 42.999c3.33301 0.666992 7 0.333984 11 -0.999023c1.33301 11.333 9 18 23 20c3.33301 -4 10 -11 20 -21zM626.995 336.009c-5.33301 2 -12.3301 4.33203 -20.9971 6.99902
c-4.66699 -0.666992 -10 -1 -16 -1c-6.66699 3.33301 -15.334 8.33301 -26.001 15c-2 2 -3 5.66699 -3 11c0 9.33301 1.66699 26.333 5 51c3.33301 30 4.66602 50.667 3.99902 62c-1.33301 12 -2.33301 16.667 -3 14c0.666992 2.66699 3 6 7 10l-2 2
c-6.66699 6 -9 10.333 -7 13c3.33301 5.33301 5 8.33301 5 9v73c0 21.333 0.666992 36.666 2 45.999c-9.33301 16.667 -14 23.334 -14 20.001v52c0 -8 2.33301 -0.666992 7 22c2 6 0.666992 19.667 -4 41c-11.333 -11.333 -27.333 -29.333 -48 -54
c-12 -12 -28.333 -29.333 -49 -52l-66 -83c-14 -12.667 -30.667 -28.667 -50 -48c-8.66699 -10.667 -24.667 -35 -48 -73c-4 -7.33301 -9.66699 -9 -17 -5c4 -6 -1 -17 -15 -33c-8.66699 -11.333 -23 -28.333 -43 -51c-5.33301 -2 -12 -6 -20 -12
c-3.33301 -4.66699 -9 -12 -17 -22c25.333 -3.33301 40.666 -4.66602 45.999 -3.99902c24 2 34.333 3.66699 31 5c12.667 -5.33301 21 -8 25 -8h175c46.667 0 78.667 -0.666992 96 -2l6 -3c8 0.666992 18.333 0.666992 31 0c16 -1.33301 25.667 -2 29 -2z" />
    <glyph glyph-name="five" unicode="5" horiz-adv-x="1034" 
d="M837 1085c-4.66699 -16.667 -13.0029 -40.6602 -25.0029 -71.9932c-2 -4.66699 -10 -28.334 -24 -71.001l-19 -19c-4 -11.333 -14 -24.333 -30 -39c-9.33301 -2.66699 -23 -2.66699 -41 0c-29.333 4.66699 -53.333 6.33398 -72 5.00098c-12 -0.666992 -23.667 -1 -35 -1
c-2 2 -4.66699 4.33301 -8 7c-5.33301 5.33301 -12 6.66602 -20 3.99902c-12 -4 -28.333 -3.66699 -49 1c-5.33301 1.33301 -17.666 0 -36.999 -4c-5.33301 -0.666992 -13.666 0.333008 -24.999 3c2 -0.666992 -4 -1.66699 -18 -3c-6 1.33301 -15.333 2.33301 -28 3
c-8 -1.33301 -15.667 -11 -23 -29c-6 -12 -14.333 -30.333 -25 -55c0 -6 -0.333008 -15 -1 -27c-4 -16 -14.667 -42.667 -32 -80c-0.666992 -4.66699 -2.33398 -11.334 -5.00098 -20.001l-26 -10l8.5 -11c3 -4 6.5 -4.66699 10.5 -2c5.33301 8 10.333 13.667 15 17
c11.333 0 28.333 -0.666992 51 -2c13.333 0 35.333 -3.33301 66 -10c2.66699 -2 6.66699 -4.33301 12 -7c6.66699 0.666992 16.334 0.333984 29.001 -0.999023c10.667 -8.66699 26.667 -17.667 48 -27c1.33301 0 24.666 -11 69.999 -33c3.33301 0 8 -0.333008 14 -1
c8.66699 -1.33301 16.334 -5.66602 23.001 -12.999c12.667 -14.667 32.667 -36 60 -64c3.33301 -0.666992 8 -2.33398 14 -5.00098c6.66699 -4.66699 11.334 -9.33398 14.001 -14.001c4.66699 -8 7.16699 -13.833 7.5 -17.5s0.833008 -8.16699 1.5 -13.5
c6 -6.66699 13 -17 21 -31c0.666992 -6.66699 2 -16.667 4 -30c2.66699 -9.33301 6.33398 -23 11.001 -41c0.666992 -2.66699 -2.33301 -24 -9 -64c0 -17.333 -4 -44 -12 -80c-0.666992 -8 -2.66699 -20.333 -6 -37c-4.66699 -6.66699 -10.334 -17.334 -17.001 -32.001
c0 -6.66699 -1 -17 -3 -31c-3.33301 -4 -7 -10 -11 -18c-0.666992 -5.33301 -1.33398 -13 -2.00098 -23c-12.667 -13.333 -22.667 -27 -30 -41c-3.33301 -0.666992 -7.33301 -2.33398 -12 -5.00098l-29 -25c-2 -2.66699 -4.66699 -7 -8 -13
c-20 -25.333 -34.333 -39.666 -43 -42.999c-3.33301 0.666992 -7.33301 0.666992 -12 0c-4 -4.66699 -11 -10.667 -21 -18c-22 -14 -43 -25.667 -63 -35c-2.66699 0 -6.66699 -0.333008 -12 -1c-16 -10 -38 -22.667 -66 -38c-19.333 -6 -48 -16.667 -86 -32
c-5.33301 -3.33301 -13.333 -7.66602 -24 -12.999c-6.66699 0 -16.334 -0.333008 -29.001 -1c-15.333 -2 -33.666 -7 -54.999 -15c-13.333 -4.66699 -32.666 -5.33398 -57.999 -2.00098c-8 6 -11.333 19.667 -10 41c8.66699 6.66699 35.334 15.667 80.001 27
c8.66699 0.666992 22 3 40 7c9.33301 6 22.333 13.333 39 22c8.66699 1.33301 21 5 37 11c7.33301 6.66699 18.333 15 33 25c7.33301 0.666992 19 2.66699 35 6l26 34l45 31c17.333 12.667 32 28 44 46c0 4.66699 1 11 3 19c7.33301 6.66699 18 18 32 34
c2.66699 5.33301 12 29 28 71c1.33301 0.666992 4.33301 3.66699 9 9c1.33301 0.666992 7 2.66699 17 6c-3.33301 -1.33301 4 -2 22 -2l4 4c-4.66699 1.33301 -10.667 2.66602 -18 3.99902c-3.33301 -0.666992 -8 -1.66699 -14 -3c-2.66699 1.33301 -6 4 -10 8
c-0.666992 0.666992 -1 4.33398 -1 11.001c0 4 -0.333008 10.833 -1 20.5s-1 17.167 -1 22.5c1.33301 14.667 0 35.667 -4 63c-0.666992 2.66699 -2.66699 13 -6 31c0 6 -1 15.667 -3 29c-0.666992 2 -7.66699 10.667 -21 26c-2 2 -7.33301 9.33301 -16 22
c-3.33301 4 -4 10.333 -2 19c-9.33301 10 -27 19.667 -53 29c-28 9.33301 -48.667 20 -62 32c-2.66699 -1.33301 -8.33398 0.166992 -17.001 4.5s-14 6.5 -16 6.5c-10 -0.666992 -25 -0.333984 -45 0.999023c-30 6.66699 -55.667 9 -77 7
c-19.333 -2 -38.333 -5.33301 -57 -10c-8.66699 0 -15.667 3 -21 9c-8 9.33301 -9.33301 22 -4 38c4 8 9 19.667 15 35c-0.666992 6 -0.333984 15.333 0.999023 28c4 5.33301 8.33301 13.666 13 24.999c5.33301 21.333 12 41.666 20 60.999c4 5.33301 9 13.666 15 24.999
l59 174c0.666992 7.33301 1.83398 17.833 3.50098 31.5s7.16699 30.834 16.5 51.501c4 10 13.333 19.667 28 29c0 -0.666992 7.66699 -1 23 -1h80l24.5 5c16.333 3.33301 27.166 4.66602 32.499 3.99902c24.667 -2 43.334 -3 56.001 -3l10 -4h98
c0.666992 0 4 -0.833008 10 -2.5s10.667 -2.16699 14 -1.5c8 1.33301 20 11.333 36 30c0.666992 2.66699 2.66699 7.16699 6 13.5s10.333 9.5 21 9.5c6 12 14.333 18 25 18h25c0.666992 -3.33301 2 -6.33301 4 -9z" />
    <glyph glyph-name="six" unicode="6" horiz-adv-x="1034" 
d="M929 424c0 0.666992 -2.32715 -24.6641 -6.99414 -75.9971c0.666992 -8 0.333984 -20 -0.999023 -36c-4 -18 -11.333 -44.667 -22 -80c-14 -36.667 -29 -66.667 -45 -90v-2c4 3.33301 7 5 9 5c-1.33301 -2.66699 -3.33301 -7 -6 -13c0 -8 -5 -19.333 -15 -34
c-2 -0.666992 -5.33301 -2 -10 -4c-4.66699 -4 -10.667 -9.66699 -18 -17c-4 0 -9.66699 -1.66699 -17 -5c-14 -14.667 -35 -35.334 -63 -62.001c-11.333 -0.666992 -26.333 -2.66699 -45 -6c-4.66699 -0.666992 -19 -6 -43 -16c-20 -7.33301 -35 -11 -45 -11h-120
c2.66699 0 -3 1.66699 -17 5c-5.33301 2 -13.333 4 -24 6c-0.666992 0 -8.66699 -1 -24 -3c-6 -0.666992 -11 0 -15 2c-6.66699 2.66699 -15.667 7 -27 13c-10.667 9.33301 -27.667 22.333 -51 39c-26.667 15.333 -49.667 32 -69 50c-5.33301 8 -14 19.667 -26 35
c-5.33301 3.33301 -12.333 9.33301 -21 18c-3.33301 11.333 -9 27.666 -17 48.999c-7.33301 9.33301 -18 23.666 -32 42.999c-1.33301 8.66699 -4.33301 20.334 -9 35.001c-2 4 -6.5 10.833 -13.5 20.5s-10.5 15.167 -10.5 16.5v71c0 -1.33301 0.666992 7 2 25
c1.33301 16 1.66602 26.667 0.999023 32c-2 6 -4 15 -6 27c-0.666992 16.667 0.666016 41.667 3.99902 75c0 4.66699 2.5 13.667 7.5 27s7.5 20.666 7.5 21.999v51c0 1.33301 4 10 12 26s13 28 15 36c2 1.33301 4.33301 3.33301 7 6c0.666992 4.66699 2 11.334 4 20.001
c2.66699 4 7 10 13 18c-11.333 3.33301 -13 12.333 -5 27c25.333 45.333 46.333 79.333 63 102c25.333 26.667 59.333 66 102 118c5.33301 2 12.333 7.33301 21 16c0.666992 4.66699 2.33398 11 5.00098 19c9.33301 4.66699 20.333 11 33 19c4 5.33301 10.667 13 20 23
c12.667 10.667 32.334 26.334 59.001 47.001c4.66699 3.33301 15.667 8 33 14c4 3.33301 9.83301 7.83301 17.5 13.5l37.5 27.5c2 0 5.33301 1 10 3c6.66699 6.66699 17 15.334 31 26.001c22.667 10.667 41 17.334 55 20.001l71 24c14.667 5.33301 23.667 1.33301 27 -12
c1.33301 -4.66699 0.666016 -9 -2.00098 -13c-4.66699 -6.66699 -9.33398 -11.334 -14.001 -14.001c-8 -6 -21.667 -14 -41 -24c-6.66699 -1.33301 -16.667 -4 -30 -8c-13.333 -6 -25.333 -15 -36 -27c-0.666992 -4.66699 -3 -10.334 -7 -17.001
c-35.333 -24.667 -61.666 -41.334 -78.999 -50.001l-15 -6c-5.33301 -8 -12.666 -18.333 -21.999 -31c-13.333 -13.333 -32 -33.666 -56 -60.999c-0.666992 -3.33301 -2.66699 -7.66602 -6 -12.999c-6.66699 -5.33301 -15.667 -14 -27 -26
c-14 -18.667 -31 -44.334 -51 -77.001c-3.33301 -17.333 -9 -40.666 -17 -69.999c-9.33301 -11.333 -20.666 -30 -33.999 -56c-2.66699 -31.333 -8.33398 -77.666 -17.001 -138.999c-10.667 -60 -16 -83 -16 -69v-55c0 -2 1.5 -12.5 4.5 -31.5s4.5 -29.5 4.5 -31.5v-54
c0 -12 4 -27.333 12 -46c10 -20.667 14.333 -31.667 13 -33c2 -12 1.33301 -19.667 -2 -23c-2 -0.666992 -4.66699 -1.33398 -8 -2.00098c-1.33301 0.666992 -7 3.66699 -17 9c-8.66699 1.33301 -19.334 7 -32.001 17c-6.66699 -4 -13.667 -6 -21 -6
c-5.33301 0 -22 6.33301 -50 19l-3 -4c22 -16.667 44 -29.334 66 -38.001c10 1.33301 14.667 2 14 2c8 -4.66699 20.333 -10.334 37 -17.001c8 -1.33301 20 -4 36 -8c7.33301 -13.333 14 -24 20 -32c7.33301 -5.33301 17 -14 29 -26c2 -8.66699 6.66699 -19.667 14 -33
c11.333 -6.66699 27.333 -18.334 48 -35.001c11.333 -7.33301 28.333 -19 51 -35c4 -3.33301 10 -7.33301 18 -12c5.33301 -2 12.666 -3.33301 21.999 -4c0.666992 0 4.66699 -1.5 12 -4.5s12.666 -3.5 15.999 -1.5c17.333 -7.33301 39.666 -4 66.999 10
c8 0 19.667 2.66699 35 8c2.66699 3.33301 7.33398 8.66602 14.001 15.999l41 34c18 16 27.667 30.667 29 44c0.666992 4 4 16.333 10 37c4.66699 14.667 5.66699 26.667 3 36v92c0 6 -0.666992 14 -2 24c-5.33301 8 -11 20.333 -17 37c0 11.333 -2 27.666 -6 48.999l-57 95
c-3.33301 6 -7.66602 10.333 -12.999 13s-11.5 6.33398 -18.5 11.001l-28.5 20c-6.66699 0.666992 -15.334 3.33398 -26.001 8.00098c-2.66699 5.33301 -7.66699 12.333 -15 21c-12.667 8.66699 -32 10.667 -58 6c-10 -4 -25.667 -9 -47 -15
c-18 -2.66699 -45 -7.33398 -81 -14.001l-39 -22c-18 18 -23.667 31 -17 39c1.33301 0.666992 21.666 15 60.999 43c3.33301 4.66699 8.66602 10.334 15.999 17.001c10.667 3.33301 26.334 8.66602 47.001 15.999c9.33301 6.66699 23 15 41 25
c5.33301 2 21.666 3.66699 48.999 5c61.333 2.66699 88 4.33398 80 5.00098c4 -0.666992 19.667 -2 47 -4l35 -19c3.33301 0 8.66602 -0.333008 15.999 -1c6 -3.33301 15.667 -7.33301 29 -12c5.33301 -6.66699 29 -29.667 71 -69
c-0.666992 -2.66699 -0.333984 -6 0.999023 -10l31 -29c0.666992 -10.667 2.66699 -25.667 6 -45c5.33301 -8 12.333 -20.333 21 -37c5.33301 -11.333 11.333 -29 18 -53zM853.006 139.002l-3 1l-6 -11l3 -2z" />
    <glyph glyph-name="seven" unicode="7" horiz-adv-x="1034" 
d="M963 990c-7.33301 -6 -18.002 -15.6709 -32.002 -29.0039c-3.33301 -7.33301 -9 -18.666 -17 -33.999c-5.33301 -4 -11.666 -10.333 -18.999 -19c-0.666992 -0.666992 -0.666992 -5.33398 0 -14.001c-2 -6.66699 -5.33301 -17 -10 -31l-42 -47
c-10 -13.333 -27.333 -45 -52 -95c-8 -11.333 -17.667 -29 -29 -53c-10 -34 -20.667 -62.667 -32 -86l-66 -104c-6.66699 -11.333 -14 -29.666 -22 -54.999c-0.666992 -5.33301 -2 -12.333 -4 -21c-35.333 -87.333 -69.333 -158 -102 -212c-4 -12 -9.33301 -29.667 -16 -53
c-6 -7.33301 -14.333 -19.666 -25 -36.999l-42 -108c-8 -13.333 -18.667 -33.666 -32 -60.999c-2 -12.667 -6 -32.334 -12 -59.001c-4.66699 -10 -10.667 -25.667 -18 -47s-17.333 -35.666 -30 -42.999c-3.33301 -1.33301 -10.666 -1 -21.999 1
c-5.33301 -6 -15.333 -9.66699 -30 -11c-2 0.666992 -4.66699 1.66699 -8 3c-10 1.33301 -21.333 -0.666992 -34 -6c-4 -4 -10 -8.33301 -18 -13c-6.66699 -1.33301 -14.334 6 -23.001 22c-12 23.333 -17 38 -15 44c0.666992 0.666992 8.66699 11.667 24 33
c0.666992 4.66699 2.83398 12 6.50098 22s10.5 24.333 20.5 43c12 16 28.667 39.667 50 71c6.66699 13.333 18.334 33.666 35.001 60.999c0 2.66699 0.833008 6 2.5 10s4.83398 9.66699 9.50098 17c2 4.66699 4.66699 12 8 22c3.33301 1.33301 7.66602 4.33301 12.999 9
c3.33301 6.66699 10.333 18 21 34c8.66699 8.66699 16.334 19.667 23.001 33l6 20c15.333 37.333 40.333 92.333 75 165l32 47c2 6.66699 5 15.667 9 27c4.66699 4 9.66699 10.667 15 20c2.66699 13.333 10.334 30 23.001 50c14.667 23.333 23.334 38 26.001 44
c0.666992 6 2.33398 15.667 5.00098 29c1.33301 2.66699 20 32 56 88c6 9.33301 26.333 52 61 128l21 33c4.66699 12.667 12.334 31.334 23.001 56.001c-26 3.33301 -41.333 5 -46 5h-63c-2 0 -5 1.33301 -9 4c-22 0.666992 -42 0 -60 -2
c-1.33301 -0.666992 -4.33301 -1.83398 -9 -3.50098s-8 -2.5 -10 -2.5h-77c-63.333 0 -89.333 1.33301 -78 4c-28.667 -6 -46.334 -8.33301 -53.001 -7c-2 1.33301 -5 3 -9 5c-12.667 1.33301 -30 -1.66699 -52 -9c-24 -7.33301 -41 -11 -51 -11c-25.333 0 -35.333 1 -30 3
c-7.33301 -4 -18.333 -10.333 -33 -19c-8 -2 -19.667 -5.66699 -35 -11c-1.33301 -3.33301 -4 -7.33301 -8 -12l-15 -18c-1.33301 -4 -4 -10 -8 -18c-19.333 -24.667 -39.666 -26 -60.999 -4c-2 3.33301 -2 7 0 11c7.33301 18.667 28.333 67 63 145
c5.33301 6 11.666 16 18.999 30l13 47c2.66699 2.66699 5.66699 7 9 13c0 4.66699 0.666992 11.334 2 20.001c4 4.66699 8.66699 11.334 14 20.001c12 8 22.333 8 31 0l27.5 -20c9 -6.66699 12.167 -14.667 9.5 -24c3.33301 0 8.16602 -0.666992 14.499 -2
s10.166 -2 11.499 -2h71c2 0 4.66699 1 8 3c9.33301 1.33301 24 1.33301 44 0c3.33301 -2 6 -3 8 -3h69c1.33301 0 3.33301 0.666992 6 2s5 2 7 2h75c1.33301 0 2.66602 0.666992 3.99902 2s2.66602 2 3.99902 2h51c-6.66699 0 -3.33398 -1.66699 9.99902 -5
c16.667 -4.66699 27.667 -7 33 -7h100c23.333 2.66699 59.333 7 108 13c6 -0.666992 14.667 -0.666992 26 0c8.66699 2.66699 20.667 5.66699 36 9c16.667 -16.667 25 -29.667 25 -39c0 -5.33301 -1.66699 -10.333 -5 -15z" />
    <glyph glyph-name="eight" unicode="8" horiz-adv-x="1034" 
d="M904 217c0 -4 -3.66504 -13.002 -10.998 -27.002l-26 -42c-6.66699 -5.33301 -15.667 -14 -27 -26c-5.33301 -14.667 -19.666 -35.667 -42.999 -63c-8 -2.66699 -20.333 -8.33398 -37 -17.001c-6.66699 -6.66699 -18 -16.334 -34 -29.001
c-8.66699 -5.33301 -23.334 -11.333 -44.001 -18c-4 0.666992 -9.66699 1 -17 1c-18 -8 -62.333 -16.333 -133 -25c-45.333 -5.33301 -71 -7.66602 -77 -6.99902c-8.66699 2.66699 -21.334 6.33398 -38.001 11.001c-22 1.33301 -50 7.33301 -84 18
c-1.33301 4.66699 -4.66602 10.334 -9.99902 17.001c-4.66699 0.666992 -11.334 2.33398 -20.001 5.00098c-10 8 -25.333 18.333 -46 31c-7.33301 0 -17.666 2.33301 -30.999 7c-4.66699 8 -12.334 18.667 -23.001 32c-34.667 42 -60 80.667 -76 116v91
c0 2 1.33301 4.66699 4 8c-1.33301 9.33301 -1 23 1 41c2.66699 11.333 5.66699 22.333 9 33c4.66699 14.667 10.667 22.334 18 23.001c0.666992 14.667 9.33398 35.667 26.001 63c6.66699 11.333 18 24 34 38c5.33301 -1.33301 12.666 -1 21.999 1c6 4 26.667 24.333 62 61
c3.33301 3.33301 21 13.666 53 30.999c10 6 25.333 14.667 46 26c8 2 20 6 36 12c-12 10 -28.667 22.333 -50 37c-9.33301 0.666992 -22.666 4.33398 -39.999 11.001c-7.33301 7.33301 -19 17.666 -35 30.999c-22.667 16 -34.667 28.667 -36 38c-0.666992 6 0 10.667 2 14
c-6.66699 -1.33301 -14.667 2 -24 10c-3.33301 10.667 -9 26.667 -17 48c-22.667 48 -34 71.667 -34 71v58c0 0.666992 -2.66699 9.66699 -8 27c-1.33301 5.33301 -2 11 -2 17c0 12 4 27 12 45c10.667 26 17.167 41.5 19.5 46.5s6.16602 11.833 11.499 20.5s10 19.667 14 33
c2.66699 2 6.33398 6 11.001 12c6 16.667 25.333 38.667 58 66c7.33301 0 18.666 2 33.999 6c38.667 15.333 67.667 24.666 87 27.999c2 0 6.83301 1.5 14.5 4.5s12.5 4.5 14.5 4.5h152c5.33301 0 9.83301 -2.5 13.5 -7.5l5.5 -7.5c12 -6 28.333 -15.333 49 -28
c12 -8 30 -18 54 -30c8.66699 -2.66699 24 -22.667 46 -60c6 -6 14 -14.667 24 -26c2 -2.66699 5.33301 -13.667 10 -33c3.33301 -4 7.66602 -10.667 12.999 -20c7.33301 -23.333 8.66602 -45 3.99902 -65c-0.666992 -2.66699 -6.33398 -15 -17.001 -37l-3 -18
c-3.33301 -9.33301 -8.66602 -33.333 -15.999 -72c-0.666992 -2.66699 -6.66699 -10.334 -18 -23.001c-4.66699 -8 -13 -19.333 -25 -34c-8 -6 -19.667 -15.667 -35 -29c-1.33301 -1.33301 -3.16602 -4.16602 -5.49902 -8.49902s-4.5 -7.5 -6.5 -9.5
c-6 -7.33301 -15.667 -17.333 -29 -30c-3.33301 -2 -13 -5 -29 -9c-2 -0.666992 -9 -5.66699 -21 -15l17.5 -17l18.5 -18c20 -14.667 50.333 -38.667 91 -72l35 -35c2 -4.66699 5.33301 -11 10 -19c3.33301 -1.33301 7.66602 -4 12.999 -8l15 -28
c4 -3.33301 9.66699 -8.66602 17 -15.999c2 -6 5.16699 -13.5 9.5 -22.5l29.5 -58.5c3.33301 -2.66699 7 -6.66699 11 -12c10.667 -18 9.33398 -37.667 -3.99902 -59c3.33301 -10 5 -14.667 5 -14v-99zM694.002 923.998c-2.66699 6.66699 -5.99902 16.0039 -9.99902 28.0039
v42c4 11.333 5.66699 18.333 5 21c-4.66699 2.66699 -10 8 -16 16c0 6 -0.666992 14.667 -2 26c-1.33301 8 -13.666 23.667 -36.999 47c-4.66699 8 -11.667 18.333 -21 31c-10 8 -49.667 29.667 -119 65c-21.333 10.667 -39.666 12 -54.999 4
c-20 -10 -39.667 -21.667 -59 -35c-5.33301 -2 -11.333 -6.33301 -18 -13c-2 -12.667 -5 -30.334 -9 -53.001c-4 -4.66699 -7.66699 -11.334 -11 -20.001c-4.66699 -35.333 -6.66699 -54.333 -6 -57c1.33301 -2.66699 2.66602 -6 3.99902 -10c0 -8 3.66699 -26.333 11 -55
c-2 4 -3 -3.66699 -3 -23c0 -3.33301 2 -8.33301 6 -15c11.333 -21.333 24.666 -36.666 39.999 -45.999c4 -2 7 -4.66699 9 -8c4 -8.66699 7.66699 -14.334 11 -17.001c6.66699 -2 15.334 -5.66699 26.001 -11l25 -23c8 -6.66699 19.333 -14 34 -22
c18 -4.66699 34 -14.334 48 -29.001c0.666992 -2.66699 2.33398 -6.66699 5.00098 -12c14 -14 26 -23.333 36 -28c6 -2.66699 13.667 -0.666992 23 6c21.333 15.333 36.666 33.666 45.999 54.999c-0.666992 6 -0.333984 13.333 0.999023 22c9.33301 10 19 23 29 39
c5.33301 26 7.66602 51 6.99902 75zM752.003 177.002c-3.33301 6 -7.00098 14.665 -11.001 25.998v87c-4.66699 6.66699 -10 16 -16 28c0 8.66699 -1 21 -3 37c-1.33301 6.66699 -9.66602 20.667 -24.999 42c-2.66699 8 -7.66699 17.333 -15 28
c-7.33301 3.33301 -16.666 9 -27.999 17c-2.66699 6.66699 -6.33398 15.334 -11.001 26.001l-34 23l-44 47c-10.667 8.66699 -34.334 23.334 -71.001 44.001c-4 4 -9.66699 8.33301 -17 13c-10 0.666992 -20 -1.33301 -30 -6c-2 -4 -5.66699 -8.33301 -11 -13
c-7.33301 -5.33301 -30.666 -23.666 -69.999 -54.999c-4 -0.666992 -8.66699 -2.33398 -14 -5.00098c-12.667 -10.667 -22 -23.334 -28 -38.001c0 -5.33301 -0.666992 -12 -2 -20c-2.66699 -5.33301 -5.66699 -12.333 -9 -21c0 -8.66699 -0.333008 -20 -1 -34
c-2 -4 -4.33301 -9.33301 -7 -16c-4 -9.33301 -8.66699 -22.333 -14 -39c1.33301 8.66699 3.83301 3.83398 7.5 -14.499s7.5 -43.166 11.5 -74.499c-1.33301 -6 -2.33301 -13.333 -3 -22c2 -14 9.66699 -31.667 23 -53c4.66699 -4.66699 10.334 -11.334 17.001 -20.001
c0.666992 -2.66699 2.33398 -6.66699 5.00098 -12c8.66699 -8 19.667 -19.333 33 -34c15.333 -23.333 28.666 -37.666 39.999 -42.999c3.33301 -0.666992 7.66602 -2.33398 12.999 -5.00098c6.66699 -6 15 -12.333 25 -19c12 -0.666992 29.667 -2.33398 53 -5.00098
c7.33301 -4.66699 17.333 -9.66699 30 -15c24.667 -6 53.667 -2 87 12c4 4.66699 10 9.66699 18 15c5.33301 1.33301 11.333 1 18 -1c24 28.667 42.333 51.667 55 69c9.33301 12 16.5 22.833 21.5 32.5s7.16699 15.834 6.5 18.501z" />
    <glyph glyph-name="nine" unicode="9" horiz-adv-x="1034" 
d="M919 482c-1.33301 -11.333 -3.66016 -28.9961 -6.99316 -52.9961c-3.33301 -6 -7.66602 -15.667 -12.999 -29c-2 -8.66699 -4.66699 -22 -8 -40c-9.33301 -18.667 -21.666 -45.334 -36.999 -80.001c-1.33301 -8 -4 -19 -8 -33c-5.33301 -4.66699 -12.333 -12.667 -21 -24
c-1.33301 -9.33301 -5 -23 -11 -41c-5.33301 -8.66699 -15 -20.334 -29 -35.001c-34 -34.667 -76 -74.334 -126 -119.001c-14 -17.333 -35 -42 -63 -74c-6.66699 -7.33301 -15.667 -11.333 -27 -12c-16 -1.33301 -41.667 -13.333 -77 -36
c-7.33301 -8.66699 -19.666 -21.334 -36.999 -38.001c-6.66699 -2 -16.667 -5.66699 -30 -11c-23.333 -14 -58.333 -29 -105 -45c-3.33301 -2 -8 -4.33301 -14 -7c-14.667 -4 -27.667 -6.33301 -39 -7c-4.66699 0 -11.5 4.66699 -20.5 14s-12.5 17.333 -10.5 24
c4.66699 3.33301 10 8 16 14c10.667 10.667 19 17 25 19c8.66699 -0.666992 19.667 1 33 5c6.66699 6.66699 35 23.667 85 51c8.66699 8.66699 21.667 20.667 39 36c16 10.667 37.667 26.667 65 48l35 42c10.667 8.66699 25.334 22.334 44.001 41.001
c38 46 57.333 76.333 58 91c0 6 1.33301 15 4 27c5.33301 4 11.666 11.333 18.999 22c1.33301 8.66699 3 20.667 5 36c2 8 8.33301 27.333 19 58c2.66699 3.33301 5.66699 8 9 14c3.33301 10.667 8 27 14 49c-0.666992 12.667 5.66602 33.667 18.999 63v52
c0 -2 1 3.66699 3 17c0.666992 2 0.333984 5.16699 -0.999023 9.5s-2 7.16602 -2 8.49902v149c-4.66699 8.66699 -11.334 27 -20.001 55c0.666992 8 0.333984 18.667 -0.999023 32c-4 6.66699 -9.66699 17 -17 31c-0.666992 6 -2 14 -4 24l-43 55
c-0.666992 5.33301 -3.66699 12.666 -9 21.999c-14 15.333 -33.333 34 -58 56c-4.66699 4 -12.334 9.66699 -23.001 17c-5.33301 0 -13.333 1.66699 -24 5c-4.66699 4.66699 -11.334 10.334 -20.001 17.001c-16 5.33301 -33.333 8 -52 8
c-77.333 0 -134.333 -34.667 -171 -104c-1.33301 -7.33301 -3 -17.666 -5 -30.999c-3.33301 -6 -7 -15.333 -11 -28c-2 -16.667 -6.66699 -41.334 -14 -74.001c-6.66699 -23.333 -7.33398 -47.666 -2.00098 -72.999c2 -7.33301 4.66699 -18 8 -32
c1.33301 -20.667 4 -50 8 -88c0 -0.666992 1.16699 -3.33398 3.5 -8.00098s3.5 -8 3.5 -10l-16 -12c-2.66699 -3.33301 -7.66699 -8.33301 -15 -15c-2.66699 0.666992 -6.66699 0.666992 -12 0c-12.667 -2.66699 -18.334 -4 -17.001 -4c-22 0.666992 -30.333 2 -25 4
c7.33301 -10 24 -14.667 50 -14c17.333 0.666992 26 0.333984 26 -0.999023c5.33301 6 12.666 8.66699 21.999 8c8.66699 -0.666992 15 -4.33398 19 -11.001c1.33301 -6 4.66602 -15.333 9.99902 -28l27 -24c1.33301 -4 3.66602 -9.66699 6.99902 -17
c4.66699 -3.33301 10.667 -8.33301 18 -15c32.667 -33.333 51 -50 55 -50h85c5.33301 -2.66699 11.666 -4 18.999 -4c17.333 0 48 14.667 92 44c5.33301 2.66699 9.33301 3.33398 12 2.00098c13.333 -18 16.333 -30.333 9 -37c-44.667 -42.667 -103 -73.667 -175 -93
c-3.33301 -2.66699 -8 -5.66699 -14 -9c-16 -4.66699 -27 -7 -33 -7h-110c4.66699 0 -9.66602 3.66699 -42.999 11c-5.33301 1.33301 -10.666 4.66602 -15.999 9.99902c-1.33301 0.666992 -2.33301 2.66699 -3 6s-1.66699 5.33301 -3 6c-8 5.33301 -19 14.333 -33 27l-12 31
c-2 6 -5.66699 10.333 -11 13c-4 0 -9.33301 1.66699 -16 5c-5.33301 10.667 -14 26.334 -26 47.001c-6 -1.33301 -11.667 0 -17 4c-0.666992 0.666992 -3 9 -7 25c-4.66699 6.66699 -11 17.334 -19 32.001c0 5.33301 -0.333008 12.333 -1 21
c-3.33301 5.33301 -7 13.333 -11 24c-4 30.667 -7 56 -9 76c-0.666992 12.667 -0.666992 24 0 34c0.666992 1.33301 1.5 3.33301 2.5 6s1.5 5 1.5 7v105c0 2 0.5 4 1.5 6s1.5 3.66699 1.5 5c1.33301 42 14.666 66.667 39.999 74c5.33301 16 20.333 41.333 45 76
c12.667 8.66699 26.667 20 42 34c7.33301 14 19.666 25.667 36.999 35c14.667 6.66699 29 13.667 43 21l39 27c3.33301 0 7.33301 1 12 3c10 7.33301 20.333 9.66602 31 6.99902c31.333 4.66699 73.666 7 126.999 7h89c2 0 6.33301 -2.33301 13 -7
s11.334 -7.66699 14.001 -9l63 -9c8 -1.33301 14 -6.83301 18 -16.5s6.66699 -14.834 8 -15.501c7.33301 -3.33301 18.333 -10.333 33 -21c6 -5.33301 14.333 -13.333 25 -24c8.66699 -11.333 21.667 -27 39 -47c2.66699 0 6 -2 10 -6s13.333 -18.333 28 -43
c6 -8.66699 13.667 -21 23 -37c1.33301 -12 3.66602 -29 6.99902 -51c5.33301 -8.66699 11.666 -21.667 18.999 -39c0 -4 0.666992 -10.667 2 -20c2 -2 4 -5.33301 6 -10c2.66699 -18 7.66699 -40.667 15 -68z" />
    <glyph glyph-name="colon" unicode=":" horiz-adv-x="510" 
d="M229 780h17c15.333 -55.333 53.333 -96.333 114 -123v-16c-62 -36.667 -99.333 -77.667 -112 -123h-18c-12 46 -50.333 81.667 -115 107v16c48.667 26.667 86.667 73 114 139zM223 236l18.9971 0.000976562c32 -64.667 73 -109.334 123 -134.001v-22
c-65.333 -24 -105.666 -63 -120.999 -117h-19c-15.333 65.333 -52.666 104.333 -111.999 117v22c54.667 38 91.334 82.667 110.001 134z" />
    <glyph glyph-name="semicolon" unicode=";" horiz-adv-x="510" 
d="M231 215l27 -0.000976562c4.66699 -16.667 21 -50.667 49 -102c22 -41.333 33 -77.666 33 -108.999c0 -104.667 -61.333 -197.334 -184 -278.001l-29 30c80.667 66 121 124 121 174c0 56.667 -43.667 91 -131 103v30c59.333 30.667 97.333 81.334 114 152.001z
M223 763.999h23c8 -41.333 44.667 -77 110 -107v-24c-50 -18 -86.667 -56.333 -110 -115l-23 1c-12.667 56.667 -46.667 90.667 -102 102v20c51.333 22 85.333 63 102 123z" />
    <glyph glyph-name="less" unicode="&#x3c;" horiz-adv-x="1706" 
d="M1442 1145v-127l-1000 -408l1000 -405v-129l-1178 483v103z" />
    <glyph glyph-name="equal" unicode="=" horiz-adv-x="1706" 
d="M254 477h1198v-117h-1198v117zM254 860h1198v-117h-1198v117z" />
    <glyph glyph-name="greater" unicode="&#x3e;" horiz-adv-x="1706" 
d="M264 1145l1178 -483v-103l-1178 -483v129l1000 405l-1000 408v127z" />
    <glyph glyph-name="question" unicode="?" horiz-adv-x="717" 
d="M270 201l27 0.00195312c14.667 -38.667 46 -76.334 94 -113.001v-20c-42.667 -36 -70.667 -71 -84 -105h-26c-18.667 47.333 -53.667 81.666 -105 102.999v24c38 16.667 69.333 53.667 94 111zM315 368.002l-5.99902 -47c-1.33301 -10.667 -7.33301 -16 -18 -16
c-14 0 -21 2.66699 -21 8v15l13 170c2 28.667 14 44.667 36 48c4 0.666992 9 1.66699 15 3c48 8 82.5 22.167 103.5 42.5s31.5 53.833 31.5 100.5c0 128.667 -69 206 -207 232l-45 7c-58.667 9.33301 -88 26.666 -88 51.999c0 17.333 2.33301 40.333 7 69
c5.33301 35.333 8.33301 58.666 9 69.999c0.666992 8.66699 1 15.334 1 20.001c0 15.333 6 23 18 23c10.667 0 16 -2.66699 16 -8v-8c0 -38 16.667 -61 50 -69c18 -4 34.333 -8.33301 49 -13c172 -52 258 -157 258 -315c0 -130 -44.333 -228.333 -133 -295
c-8.66699 -6.66699 -22.334 -15 -41.001 -25c-28.667 -15.333 -44.667 -36.666 -48 -63.999z" />
    <glyph glyph-name="at" unicode="@" horiz-adv-x="2019" 
d="M1190 336c-82 -140.667 -185.003 -210.997 -309.003 -210.997c-90 0 -160 34.667 -210 104c-44.667 61.333 -67 138.666 -67 231.999c0 152 62.333 288.333 187 409c94 90.667 193.667 136 299 136c117.333 0 191 -65 221 -195l53 180h143l-170 -610
c0 -1.33301 -0.333008 -3 -1 -5c-11.333 -39.333 -17 -74 -17 -104c0 -68 31.333 -102 94 -102c50.667 0 105.334 22 164.001 66c168 125.333 252 307.333 252 546c0 184 -67.667 335.667 -203 455c-125.333 110.667 -286.333 166 -483 166c-250 0 -455.667 -78 -617 -234
c-176 -170.667 -264 -391.667 -264 -663c0 -224.667 79.333 -404.334 238 -539.001c154 -130.667 347.667 -196 581 -196c218.667 0 423 68.667 613 206l30 -36c-199.333 -148 -417.666 -222 -654.999 -222c-248 0 -453.333 61.667 -616 185
c-101.333 77.333 -178 169.333 -230 276s-78 225.667 -78 357c0 276 112 507.333 336 694c176.667 147.333 388.334 221 635.001 221c222 0 402 -58 540 -174c146.667 -123.333 220 -294 220 -512c0 -220.667 -73.667 -398.334 -221 -533.001
c-78.667 -72 -164.667 -108 -258 -108c-130 0 -199 70.333 -207 211zM1098 965.003c-68.667 0 -132.334 -43.667 -191.001 -131c-104.667 -156 -157 -309 -157 -459c0 -54.667 11 -100 33 -136c26 -43.333 64.667 -65 116 -65c88 0 168.667 59.333 242 178
c83.333 134.667 125 268 125 400c0 56 -13.667 104 -41 144c-31.333 46 -73.666 69 -126.999 69z" />
    <glyph glyph-name="A" unicode="A" 
d="M1899 -390c-4.66699 -9.33301 -12.666 -20.999 -23.999 -34.999c-8 -6 -18 -9.33301 -30 -10c-50 -4 -87.667 -4 -113 0c-8.66699 7.33301 -22.334 16.333 -41.001 27c-3.33301 -6 -1.33301 -15 6 -27c-10.667 1.33301 -26 4.66602 -46 9.99902
c-2.66699 8.66699 -8.66699 20 -18 34c-43.333 -4 -76 -3 -98 3c-4.66699 1.33301 -25.334 17.666 -62.001 48.999c-40.667 34.667 -87.667 93.334 -141 176.001c-17.333 27.333 -61 102.666 -131 225.999c-10 17.333 -15 33.666 -15 48.999
c24 7.33301 46.667 5.66602 68 -5.00098c9.33301 -10.667 23 -22.667 41 -36c2 4 0 17 -6 39c-1.33301 -0.666992 7 -1 25 -1c5.33301 5.33301 8 11.666 8 18.999c-42.667 12 -100.334 21.667 -173.001 29l-131 183c-2 8 -7 19.667 -15 35
c-1.33301 0.666992 -10.333 1 -27 1l-470 -9c-20.667 1.33301 -35 -7.66699 -43 -27c-18.667 -41.333 -42.334 -105.333 -71.001 -192c-15.333 -70.667 -23 -119 -23 -145c0 -16.667 1.5 -32.167 4.5 -46.5s28.833 -36.833 77.5 -67.5
c12 -5.33301 27.667 -12.666 47 -21.999c6.66699 -4 10 -14 10 -30c-14.667 -8 -27.667 -12.667 -39 -14c5.33301 0.666992 -27.667 3 -99 7c-87.333 4.66699 -137.333 6 -150 4c-100.667 -12 -164 -14 -190 -6c-1.33301 16.667 0.333984 27 5.00098 31
c1.33301 1.33301 20 16 56 44c30.667 23.333 55 54 73 92c26 54.667 49.667 107.667 71 159c1.33301 3.33301 43.333 127 126 371c14.667 54 41 134 79 240c15.333 26 34.666 66.667 57.999 122c5.33301 34 14 79.333 26 136c11.333 22 26 52 44 90
c10 28.667 27.333 72.334 52 131.001c8.66699 18 22.667 67.667 42 149c-36 19.333 -75.667 36.333 -119 51c-2 22.667 4.33301 37.334 19 44.001c73.333 -4.66699 116 -7 128 -7h140c30.667 0 60.334 -4 89.001 -12c4.66699 -8.66699 10.667 -33.667 18 -75
c4 -5.33301 9 -14.166 15 -26.499s12.667 -39.5 20 -81.5c4 -32 11.333 -79 22 -141c16 -72 45.667 -172 89 -300c12.667 -20.667 30.334 -56.667 53.001 -108c8.66699 -33.333 23.667 -82 45 -146c110.667 -258 234.334 -492.667 371.001 -704l112 -143
c-14.667 -13.333 -24 -24.333 -28 -33c2.66699 -12 9 -18 19 -18c16.667 0 25 8.33301 25 25l104 -68c46.667 -26.667 85 -40 115 -40zM955.001 517.001l-209 588c-30 -56.667 -72.667 -141.667 -128 -255c-0.666992 -16 -11.667 -52 -33 -108c0 -10 -1 -22.667 -3 -38
c-8.66699 -13.333 -18.667 -30.666 -30 -51.999c-2 -20.667 -7.66699 -50.334 -17 -89.001c-4.66699 -4.66699 -10 -11 -16 -19c-0.666992 -2.66699 0.333008 -7.66699 3 -15c2.66699 -5.33301 2 -8 -2 -8z" />
    <glyph glyph-name="B" unicode="B" horiz-adv-x="1327" 
d="M1304 305c2.66699 -20 3.99414 -42.665 3.99414 -67.998c0 -28.667 -7.66699 -116.334 -23 -263.001c-6 -55.333 -36.333 -128.333 -91 -219c-52 -86.667 -96 -141.334 -132 -164.001c-59.333 -37.333 -116.666 -63.333 -171.999 -78c-20.667 -5.33301 -83 -8 -187 -8
h-532c-12 0 -26.667 5.33301 -44 16c0 2.66699 -1 9 -3 19s-3 17.333 -3 22c42.667 16 68.667 27 78 33c29.333 19.333 53.333 51.333 72 96c8.66699 20 14.334 71.333 17.001 154c0.666992 12.667 3.66699 47 9 103c4.66699 51.333 7 90.333 7 117c0 150 1 232.333 3 247
c2 10.667 9.66699 30 23 58c-6 7.33301 -13.667 22 -23 44c-4 20 -6 48.667 -6 86v166c0 3.33301 -1 20.666 -3 51.999c-2 28.667 -1.33301 65.334 2 110.001c6 66 9 102.667 9 110c-0.666992 2 -2.66699 6 -6 12c-8.66699 44 -8.33398 101 0.999023 171
c3.33301 20.667 -2 87 -16 199c-0.666992 36 -7.66699 83 -21 141c-17.333 29.333 -40.666 48.333 -69.999 57l-71 21c0 63.333 -1 76.666 -3 39.999c0.666992 17.333 8.66699 26.333 24 27c32.667 2.66699 85.334 8.33398 158.001 17.001c67.333 8 102 12 104 12h146
c26.667 0 54.834 3.16699 84.501 9.5s55.167 9.5 76.5 9.5c24 0 53.333 -3 88 -9c4.66699 -0.666992 52.334 -15.667 143.001 -45c48 -15.333 93.667 -58.333 137 -129c41.333 -67.333 65.333 -132.333 72 -195c4 -36 6 -70.667 6 -104
c0 -170.667 -55.333 -321.667 -166 -453l8 -8c24.667 1.33301 56.834 -11.5 96.501 -38.5s74.5 -60.5 104.5 -100.5c51.333 -68.667 84.333 -157.667 99 -267zM1091.99 1182c-6 0.666992 -32.667 1.00195 -80 1.00195c-33.333 -0.666992 -58.166 6 -74.499 20
s-30.5 41 -42.5 81l-29 97c-8.66699 20.667 -26.667 44.167 -54 70.5s-50.666 41.166 -69.999 44.499c-88.667 16.667 -141.334 14 -158.001 -8l-20 -374c0 -5.33301 2 -11.833 6 -19.5s6 -12.167 6 -13.5c0 -2.66699 -4 -45.667 -12 -129
c-4.66699 -52.667 -3.33398 -120.334 3.99902 -203.001c28.667 -12.667 43.667 -19 45 -19c103.333 6.66699 172 17.667 206 33c79.333 36 119 143.333 119 322c0 20.667 -0.666992 40.667 -2 60c3.33301 6.66699 7 11.667 11 15c38.667 2 87 9.33301 145 22z
M1041.99 156.004c-1.33301 26.667 -9.66602 62.666 -24.999 107.999l-39 107c-7.33301 24 -19.333 54.333 -36 91c-62.667 88.667 -142 133 -238 133c-14.667 0 -35.334 -0.666992 -62.001 -2c-31.333 -2 -57.333 -9 -78 -21c-4.66699 -58 -9.66699 -127.667 -15 -209
c-0.666992 -54.667 0 -114 2 -178c2.66699 -85.333 4 -129.666 4 -132.999c1.33301 -96.667 12.333 -213.334 33 -350.001c2 -12 15 -31.667 39 -59c13.333 2 28 3 44 3c11.333 0 27.833 -0.833008 49.5 -2.5s37.5 -2.5 47.5 -2.5c58 0 105.333 21 142 63
c25.333 26.667 53.333 62.334 84 107.001c37.333 112 53.333 227 48 345z" />
    <glyph glyph-name="C" unicode="C" horiz-adv-x="1551" 
d="M1502 1607c-2 -34 -7.66602 -97.3281 -16.999 -189.995c-7.33301 -72 -11 -128.667 -11 -170c0 -37.333 2.33301 -72.333 7 -105c-10.667 -12.667 -16 -28 -16 -46c0 -8 1.66699 -21.333 5 -40s4.66602 -33 3.99902 -43c-11.333 -21.333 -28 -32 -50 -32
c-12 0 -21.667 4.66699 -29 14c7.33301 34.667 11 69 11 103c0 0.666992 -3 13 -9 37c0 15.333 -2.66699 36.666 -8 63.999c-26 55.333 -39.333 84 -40 86c-18 34 -36.667 59.667 -56 77c-53.333 48.667 -110 82 -170 100c-38 12 -53.667 18 -47 18h-202
c-31.333 -9.33301 -78.333 -25 -141 -47c-72 -30.667 -139.333 -89.667 -202 -177c-8.66699 -12 -28 -58.667 -58 -140c-42.667 -116 -64 -210.667 -64 -284c0 -11.333 1 -20.666 3 -27.999c1.33301 -4 0.666016 -10.333 -2.00098 -19c-2.66699 -10.667 -4 -17.667 -4 -21
c-5.33301 -84 -7 -137.333 -5 -160c0 -0.666992 1.16699 -4.83398 3.5 -12.501s3.5 -14.167 3.5 -19.5c-1.33301 -26.667 3.33398 -92.667 14.001 -198c0 -25.333 2.33301 -64 7 -116c6.66699 -12.667 15 -31.667 25 -57c2.66699 -15.333 7 -36.666 13 -63.999
c14.667 -23.333 34 -59.666 58 -108.999c25.333 -72 51 -122.333 77 -151c26 -22.667 63.667 -57.667 113 -105c4.66699 -14.667 12.334 -35.334 23.001 -62.001c6.66699 -0.666992 17.334 1.16602 32.001 5.49902s25.667 6.5 33 6.5s27.833 -4.83301 61.5 -14.5
s58.834 -15.167 75.501 -16.5c58 -4.66699 124 2.66602 198 21.999c18 3.33301 46.333 9 85 17c32.667 6.66699 67 33.667 103 81c32.667 43.333 60 94.333 82 153c0.666992 2 3 25 7 69c3.33301 13.333 7.33301 32.666 12 57.999c0.666992 28.667 3 72 7 130
c5.33301 2.66699 10.666 4 15.999 4c23.333 0 36 -38.333 38 -115c2.66699 -118.667 -1 -234.334 -11 -347.001c-1.33301 -34.667 -9 -82 -23 -142c-6 -12.667 -31 -27 -75 -43c-64.667 -22.667 -113.334 -37.667 -146.001 -45l-137 -21c-50.667 -8 -99 -12 -145 -12
c-84 0 -157 13.333 -219 40c-8.66699 0 -19.667 1.33301 -33 4c-11.333 8 -27 17.333 -47 28c-90.667 33.333 -182 104.666 -274 213.999c-95.333 114.667 -157.666 233 -186.999 355c-7.33301 19.333 -17.333 49.333 -30 90l-3 38c-7.33301 17.333 -16 43.333 -26 78
c-4.66699 27.333 -9.33398 68 -14.001 122c-0.666992 31.333 1 106.333 5 225c0.666992 28 18 141.667 52 341l54 122c18.667 44 32.667 75 42 93c20.667 40 37.667 63 51 69c18.667 -2 30.667 0.666992 36 8l166 220c5.33301 -2 13.333 -2.66699 24 -2
c9.33301 12 23.333 25.667 42 41c9.33301 -4 23.666 -6.66699 42.999 -8c45.333 18 113 40 203 66c33.333 6 74.333 9 123 9h160l199 -24c2 0 35.667 -1.33301 101 -4c38 -1.33301 65.667 -7.33301 83 -18z" />
    <glyph glyph-name="D" unicode="D" horiz-adv-x="1633" 
d="M1642 735c5.33301 -58 1.33496 -159.995 -11.998 -305.995l-36 -199c-34 -192.667 -95.333 -346.334 -184 -461.001c-34 -44 -78.333 -88 -133 -132c-64.667 -52.667 -116.334 -81.334 -155.001 -86.001c-5.33301 -4.66699 -14 -10.334 -26 -17.001
c-122 -24 -180.667 -36 -176 -36h-804c-6.66699 40 -4.33398 64.667 6.99902 74c34 17.333 57.667 26 71 26c4.66699 9.33301 11.667 21.666 21 36.999c38.667 55.333 58 117 58 185c0 1.33301 -2.33301 15 -7 41c2.66699 12 5 28.667 7 50
c-4 9.33301 -8.33301 23.666 -13 42.999c-0.666992 6.66699 1 18.667 5 36c4.66699 20 7.33398 34.333 8.00098 43c2 43.333 3 111.666 3 204.999v191c-0.666992 131.333 0 320.666 2 567.999c0 4 -2.16699 12 -6.5 24s-6.5 20.333 -6.5 25c0 18.667 2.16699 47 6.5 85
s6.5 66.333 6.5 85c0 4.66699 -2.66699 13.334 -8 26.001s-8.66602 22.667 -9.99902 30c1.33301 22 0.333008 55 -3 99c-14 75.333 -35.333 123.333 -64 144c-22 16.667 -61 30.334 -117 41.001c-1.33301 7.33301 -2 22.333 -2 45c35.333 24 70.666 30.667 105.999 20l9 -9
c6 -6 11 -8.66699 15 -8c5.33301 4 12.333 9.66699 21 17c8 -1.33301 19.667 -1 35 1c18.667 2.66699 31.334 4 38.001 4c34 0 60 -17.333 78 -52c2 0 4.66699 0.333008 8 1c7.33301 17.333 19.666 39.666 36.999 66.999c20 -4.66699 47.667 -10.667 83 -18
c1.33301 0 4.66602 3.66699 9.99902 11s10.333 12 15 14c24.667 11.333 62.667 17 114 17h314c136 -40.667 232 -78 288 -112c106 -64 193 -161.667 261 -293c14 -25.333 33.667 -65.666 59 -120.999c36 -98.667 61.667 -233.667 77 -405zM1587 737.005
c-100.667 9.33301 -171.338 12.667 -212.005 10c-9.33301 7.33301 -13.666 16.666 -12.999 27.999c2 10 3.66699 20.333 5 31l-70 213c-44 122.667 -92.333 220.167 -145 292.5s-138.334 122.833 -257.001 151.5c-53.333 12.667 -77.666 19 -72.999 19h-127
c-3.33301 0 -25.333 -5.33301 -66 -16c-43.333 -11.333 -72 -18 -86 -20c-11.333 -79.333 -15.666 -165.333 -12.999 -258c1.33301 -44.667 2 28 2 218v-671c0 -458 -1.33301 -666.333 -4 -625c4 -65.333 6.33301 -93.333 7 -84c-3.33301 -46 -4 -84 -2 -114
c0.666992 -7.33301 3.33398 -22.666 8.00098 -45.999c4 -20 5.66699 -35 5 -45c-1.33301 -0.666992 -15 -8.33398 -41 -23.001c-19.333 -10.667 -31 -25 -35 -43c14.667 -18 33.334 -28.333 56.001 -31c16.667 -0.666992 33 -1.66699 49 -3c166 -25.333 262 -38 288 -38
c78 0 147.333 16.667 208 50c52.667 28.667 96 66.667 130 114c72 101.333 120 227 144 377c11.333 72.667 19.333 193 24 361c0.666992 14.667 -6.66602 34.334 -21.999 59.001c-1.33301 15.333 1 24.333 7 27c13.333 6 39 12.333 77 19c34 4.66699 82.333 11.667 145 21
c7.33301 8 11 16.667 11 26z" />
    <glyph glyph-name="E" unicode="E" horiz-adv-x="1068" 
d="M1081 -45c-2 -48 -6.33398 -116.665 -13.001 -205.998c-8 -24.667 -18 -58.667 -30 -102c-2.66699 -18.667 -7.66699 -44.667 -15 -78c-2.66699 -10.667 -11.334 -28 -26.001 -52c-17.333 -29.333 -31.333 -44 -42 -44h-255c-4.66699 0 -34.667 1.16699 -90 3.5
s-85.333 3.5 -90 3.5h-154c-4 0 -24.5 2.66699 -61.5 8s-57.833 8 -62.5 8h-151l-13 20c7.33301 12.667 36.333 40.667 87 84c34.667 30.667 52 68 52 112v442c0 72 8 168.667 24 290c-8.66699 37.333 -10.334 83.666 -5.00098 138.999c-12 14.667 -18 34.667 -18 60
c0 2 6.66699 40 20 114c0.666992 7.33301 -2.66602 20.333 -9.99902 39c-9.33301 24 -14.333 36.333 -15 37c-4.66699 20.667 -7 51.667 -7 93c0.666992 57.333 1 89 1 95c-2 32 -6.66699 57.667 -14 77c-10 27.333 -26.333 48.333 -49 63l-60 39
c9.33301 30.667 19.333 47 30 49c20.667 -4 50.334 -5 89.001 -3c42.667 14 63.334 21 62.001 21h177c2.66699 0 22.834 -3.33301 60.501 -10s66.167 -10.334 85.5 -11.001c8 -0.666992 74.667 5.66602 200 18.999c28.667 2.66699 103.667 0 225 -8
c10.667 -11.333 16 -24.333 16 -39c0 -8.66699 -2.16699 -21 -6.5 -37s-6.5 -27.667 -6.5 -35c-0.666992 -30.667 -7.66699 -132.334 -21 -305.001c-2 -5.33301 -11.667 -14 -29 -26c-4 9.33301 -16.333 59.333 -37 150c-13.333 58 -38 90.333 -74 97
c-3.33301 0.666992 -15 4.33398 -35 11.001c-16.667 5.33301 -30 8 -40 8c-6.66699 0 -12.667 -1.33301 -18 -4c-29.333 -11.333 -93 -12.333 -191 -3c-54 5.33301 -94.667 4 -122 -4c-8 -2.66699 -13.333 -13.667 -16 -33c24 -109.333 25 -206 3 -290
c1.33301 6 2 -17 2 -69c0 -14 -1.66699 -41 -5 -81c-3.33301 -34 -4 -61.333 -2 -82c0.666992 -9.33301 7 -21.333 19 -36h377l35 16c18.667 9.33301 31.667 24.333 39 45c6.66699 24 19 57.333 37 100c17.333 0 23.333 0.666992 18 2c10 -2.66699 17.667 -13.667 23 -33
c-2.66699 -53.333 -5.33398 -121.333 -8.00098 -204c-0.666992 -55.333 -5.33398 -136.333 -14.001 -243c-2.66699 -15.333 -16 -20.666 -40 -15.999c-8.66699 22.667 -24 52.334 -46 89.001c-14 14.667 -34.667 29.667 -62 45c-24.667 13.333 -41 20 -49 20h-138
c-8.66699 0 -25.667 2.33301 -51 7s-44.333 7 -57 7c-35.333 0 -57.666 -14.333 -66.999 -43c-10.667 -33.333 -16 -59 -16 -77c0 -16 2.33301 -48 7 -96c4.66699 -45.333 6.66699 -81 6 -107c-0.666992 -12.667 -4 -37.667 -10 -75c-5.33301 -34.667 -8 -62 -8 -82
c0 -16 1.33301 -30.667 4 -44c4.66699 -22 22.834 -48.833 54.501 -80.5s58.834 -50.167 81.501 -55.5c3.33301 -2 6.66602 -3.66699 9.99902 -5c6.66699 -3.33301 12.667 -5 18 -5h166c37.333 0 68.666 8.33301 93.999 25c35.333 23.333 69.666 60.666 102.999 111.999
c36.667 58.667 56.334 114 59.001 166c17.333 16 39 18.667 65 8z" />
    <glyph glyph-name="F" unicode="F" horiz-adv-x="1006" 
d="M1002 1245c6 -43.333 4.00195 -166.993 -5.99805 -370.993c-0.666992 -16 -9.33398 -34.333 -26.001 -55c-2.66699 -0.666992 -13.667 -1 -33 -1c-4 66 -9 112.333 -15 139c-12.667 55.333 -34.5 89.166 -65.5 101.499s-98.5 18.5 -202.5 18.5h-174
c-32.667 0 -49 -44 -49 -132c0 10.667 3.33301 -38.333 10 -147c1.33301 -23.333 -1 -62 -7 -116c-6.66699 -58.667 -10 -101.667 -10 -129c0 -41.333 5.33301 -76.333 16 -105h132c2.66699 0 13.5 -2.5 32.5 -7.5s30.833 -7.5 35.5 -7.5h128c48 0 89.667 35.333 125 106
c2.66699 13.333 7.33398 32.666 14.001 57.999c7.33301 8.66699 22 12.334 44 11.001c3.33301 -28.667 6.33301 -70.334 9 -125.001c-2 -68 -10 -201.333 -24 -400c-2 -26 -19 -37 -51 -33l-18 115c-10.667 47.333 -30 77 -58 89c-16 6.66699 -57.333 10 -124 10h-148
c-6 -5.33301 -22 -7.33301 -48 -6c-22.667 1.33301 -38.334 -6 -47.001 -22c0.666992 -22 -0.333008 -55 -3 -99c-0.666992 -8.66699 -5.66699 -36.667 -15 -84c-7.33301 -35.333 -10.333 -63.333 -9 -84c4.66699 -12.667 9.33398 -30.667 14.001 -54
c0 -16 -1.16699 -41.333 -3.5 -76s-3.5 -60.667 -3.5 -78c0 -73.333 18 -130.333 54 -171c0.666992 -0.666992 50 -27.667 148 -81c-13.333 -22.667 -32 -34 -56 -34c-6.66699 0 -15.834 1 -27.501 3s-19.834 3.33301 -24.501 4c-61.333 2 -137.666 6.33301 -228.999 13
c-48.667 3.33301 -80.334 3 -95.001 -1c-8.66699 -8 -20.667 -16.667 -36 -26c-8.66699 -1.33301 -20.667 1 -36 7c-24.667 10 -37.667 15.333 -39 16c4 16.667 19.667 38.5 47 65.5s43.666 47.5 48.999 61.5c24.667 64.667 37 125.667 37 183v336
c0 -0.666992 -0.833008 31.666 -2.5 96.999s-2.5 115 -2.5 149c0 -4.66699 0.666992 11.333 2 48c1.33301 26 1 48.667 -1 68c-2 27.333 -7 50 -15 68c23.333 47.333 35 102.666 35 165.999s-11.667 135.333 -35 216c0 16.667 -0.666992 39.334 -2 68.001
c-0.666992 16 -2.66699 29 -6 39c-13.333 39.333 -33 76.666 -59 111.999c-7.33301 9.33301 -24.333 15.666 -51 18.999c-5.33301 11.333 -7.33301 30.666 -6 57.999c-3.33301 0 42.334 1.33301 137.001 4c147.333 3.33301 372 6.66602 674 9.99902
c30 0 70 -4.66699 120 -14z" />
    <glyph glyph-name="G" unicode="G" horiz-adv-x="1458" 
d="M1450 1624c1.33301 -9.33301 2 -19.665 2 -30.998c0 -24 -3.83301 -67.333 -11.5 -130s-11.5 -109.334 -11.5 -140.001c0 -16 0.666992 -30.667 2 -44c-4.66699 -20.667 -8.33398 -48.667 -11.001 -84c0.666992 -2.66699 3 -11 7 -25
c3.33301 -11.333 4.66602 -21 3.99902 -29c-2.66699 -6.66699 -6.33398 -15.334 -11.001 -26.001c-0.666992 -10.667 1.66602 -43 6.99902 -97c-19.333 -27.333 -37 -41 -53 -41c-7.33301 0 -14.666 7.33301 -21.999 22c6.66699 66.667 8.66699 107.667 6 123
c-2 18 -6.33301 43.667 -13 77c-16.667 50 -46.667 105 -90 165c-16 22.667 -55.333 52.667 -118 90c-6.66699 4 -32.334 11.667 -77.001 23c-29.333 7.33301 -71.666 11 -126.999 11c-158.667 0 -283 -59.333 -373 -178c-11.333 -8.66699 -27.666 -26.334 -48.999 -53.001
c-69.333 -136 -108.666 -269.333 -117.999 -400c-4 -54 -6 -143.333 -6 -268v-113c0 7.33301 5.66699 -22.667 17 -90c0.666992 -34.667 4.33398 -82 11.001 -142c4.66699 -6.66699 13 -23.667 25 -51c0.666992 -14.667 3 -34.334 7 -59.001l52 -96
c3.33301 -14 9 -33.667 17 -59c36 -92 91.667 -168.667 167 -230c34 -27.333 67.333 -46.666 100 -57.999c157.333 -52.667 258.333 -79 303 -79c20.667 0 41 3.33301 61 10c10 2.66699 24 9.66699 42 21c4 45.333 6 67.333 6 66c0 16.667 -5 27.334 -15 32.001
c-14 7.33301 -23.667 16.666 -29 27.999c-8 18 -8.33301 53 -1 105v272c-5.33301 65.333 -12 116.666 -20 153.999c-5.33301 5.33301 -12 16.333 -20 33c-13.333 59.333 -42.333 97.666 -87 114.999c-18.667 6.66699 -58 11 -118 13c-2 2.66699 -5.66699 7 -11 13v43
c20 9.33301 52.667 14 98 14c4 0 32.167 -3.33301 84.5 -10s80.5 -10 84.5 -10c3.33301 0 10 2.83301 20 8.5s17 8.5 21 8.5c48.667 6 76 9 82 9c112.667 0 160.667 -0.333008 144 -1v-74c0 -2.66699 -4 -15 -12 -37s-12.667 -37.667 -14 -47
c-13.333 -78.667 -21.333 -158.334 -24 -239.001c-2.66699 -101.333 -4 -171.333 -4 -210c0 -78 6 -185.333 18 -322c-29.333 -21.333 -77.333 -44.333 -144 -69s-117.667 -38.667 -153 -42c-12 0.666992 -29.333 -0.333008 -52 -3c-36 -11.333 -61.333 -17 -76 -17
c-3.33301 0 -9.16602 1.66699 -17.499 5s-13.833 5.33301 -16.5 6c-82.667 5.33301 -151.334 15.333 -206.001 30c-20.667 10.667 -51.334 24.334 -92.001 41.001c-80.667 22.667 -170 95.667 -268 219c-101.333 126.667 -163.666 249.334 -186.999 368.001
c-6.66699 26 -16 65 -28 117c-6 16.667 -14 42.334 -24 77.001c-10 55.333 -15 102 -15 140c0 -3.33301 2 17.667 6 63c4 38.667 4.33301 66 1 82c-2.66699 18 -4 37.333 -4 58c0 38.667 6.33301 93.667 19 165c16.667 88.667 26.334 148.334 29.001 179.001
c79.333 200.667 127 301 143 301c3.33301 0 5.66602 -2.16699 6.99902 -6.5s4.33301 -6.5 9 -6.5c13.333 0 24.333 4.66699 33 14c3.33301 13.333 9.66602 32 18.999 56c74 117.333 119 176 135 176c4 0 6.83301 -1.16699 8.5 -3.5s4.16699 -3.5 7.5 -3.5
s11.833 7.5 25.5 22.5s22.834 22.5 27.501 22.5c3.33301 0 7.83301 -2.16699 13.5 -6.5s10.167 -6.5 13.5 -6.5c4 0 39.5 12 106.5 36s102.5 36 106.5 36h310c3.33301 0 39.833 -5.5 109.5 -16.5s106.167 -16.5 109.5 -16.5h43.5h58.5z" />
    <glyph glyph-name="H" unicode="H" horiz-adv-x="1349" 
d="M1471 1594c1.33301 -29.333 -7.66895 -48.335 -27.002 -57.002c-8 -2 -19 -6.33301 -33 -13c-65.333 -62 -95 -145.333 -89 -250c2.66699 -50 -3.33301 -121 -18 -213c-1.33301 -8.66699 -2 -18 -2 -28c0 -19.333 3 -45 9 -77c7.33301 -38.667 11.666 -62.667 12.999 -72
c2.66699 -24 -1.33301 -88.333 -12 -193c-4.66699 -42 -9.66699 -106 -15 -192c-1.33301 -26 -0.333008 -61.667 3 -107c4 -50 6 -85.333 6 -106l5 -329l16 -162c8.66699 -69.333 22.334 -128.333 41.001 -177c6 -18 25.333 -33.333 58 -46
c23.333 -9.33301 35 -23.333 35 -42c0 -11.333 -5 -23.666 -15 -36.999h-484c-5.33301 8.66699 -8 23 -8 43c0 18 8 33.333 24 46l56 41c24.667 22 38.667 45.333 42 70c14 126.667 24 240 30 340c1.33301 20.667 1 50.334 -1 89.001c-2.66699 47.333 -4 78.333 -4 93
c0 12 -2.66699 53.333 -8 124c-3.33301 52 -3 93.667 1 125c3.33301 23.333 -1.66699 64.666 -15 123.999c-47.333 -50 -102.666 -79.667 -165.999 -89c-48.667 -6.66699 -84.334 -9 -107.001 -7c-4.66699 0.666992 -14.167 3.16699 -28.5 7.5s-23.5 6.5 -27.5 6.5h-232
c-14 0 -31.667 -14.667 -53 -44c-30.667 -42.667 -39 -92.667 -25 -150c5.33301 -11.333 11 -28.333 17 -51c1.33301 -12 0.666016 -29.333 -2.00098 -52c-3.33301 -26.667 -5 -45 -5 -55c0 -20 1.5 -50 4.5 -90s4.5 -60.333 4.5 -61v-164c0 -42 7.66699 -88.667 23 -140
c18.667 -64.667 42.667 -106 72 -124c18 -4 39.667 -15 65 -33c4 -41.333 -13.667 -62 -53 -62c-16 0 -37.333 4.33301 -64 13h-212c-6 -6 -9.66699 -10.667 -11 -14c-8 0 -28 -1.33301 -60 -4c-25.333 -2 -45.666 -2.33301 -60.999 -1c-6 0 -18.167 1.5 -36.5 4.5
s-32.166 4.5 -41.499 4.5c-5.33301 38 10 66 46 84c52.667 25.333 86 68 100 128c4.66699 48 9 96.333 13 145c10.667 102 16 178 16 228c0 8.66699 -4 26 -12 52c-8.66699 29.333 -14 50.666 -16 63.999c-1.33301 14 0.666992 36.333 6 67c5.33301 33.333 8 50.333 8 51
v287c0 3.33301 2.33301 12 7 26s7 24.333 7 31c0 12.667 -7.66699 59.667 -23 141c0 0.666992 2.33301 39.667 7 117c2.66699 43.333 2.66699 82.333 0 117c0 2.66699 -1.33301 7.5 -4 14.5s-4 12.5 -4 16.5v242c0 20 -9.33301 54.333 -28 103c-20 52 -37 80.667 -51 86
c-30 10.667 -50.333 23.334 -61 38.001c-4 6 -4.66699 18 -2 36c3.33301 20 11.166 32.333 23.499 37s46.5 10.334 102.5 17.001s98 10 126 10h223c38.667 -16 58 -37 58 -63c0 -9.33301 -3.66699 -18 -11 -26c-8 -2.66699 -18.333 -7 -31 -13c-64 -44 -97 -80 -99 -108
c-3.33301 -45.333 -9.66602 -120.666 -18.999 -225.999c-8.66699 -92 -13 -139.667 -13 -143v-149c0 -80 3.66699 -137 11 -171c3.33301 -12.667 14.333 -21.667 33 -27c2 -0.666992 28.667 -2.33398 80 -5.00098c24.667 -1.33301 61.334 -0.333008 110.001 3
c52.667 4 77 6 73 6h161c34 0 53 -0.666992 57 -2c6.66699 -2 25 -13.667 55 -35c25.333 -18 43.666 -25.667 54.999 -23c24 30.667 36 78 36 142c0 14 -5.33301 72 -16 174c-2 20 -3 74 -3 162c0 8.66699 -2.5 25.834 -7.5 51.501s-7.5 47.5 -7.5 65.5
c-1.33301 95.333 -15 169.333 -41 222c-10.667 22 -33 43.667 -67 65c-28 18 -42 35.667 -42 53c0 3.33301 0.333008 6.66602 1 9.99902c14.667 19.333 26.667 29.333 36 30c36 4 75.333 2.33301 118 -5c8 -6.66699 21.333 -14 40 -22c18.667 -1.33301 41.667 3.66699 69 15
c34 14 56.333 22 67 24c14.667 -0.666992 36.667 0 66 2c22.667 4 40.334 6 53.001 6c34 0 62.333 -13.333 85 -40zM281.998 1026c-2 22.667 -3.33398 53 -4.00098 91c11.333 94 7 190.333 -13 289c-2 10 -12.667 29.333 -32 58c12 -80.667 18 -146 18 -196v-236
c0 -74 2.66699 -146 8 -216c12.667 90.667 20.334 160.667 23.001 210z" />
    <glyph glyph-name="I" unicode="I" horiz-adv-x="630" 
d="M710 1626c-2.66699 -16.667 -7.66895 -40.3311 -15.002 -70.998c-0.666992 0 -25 -7.66699 -73 -23c-30.667 -9.33301 -49.667 -28.333 -57 -57c-6.66699 -12.667 -14.667 -32 -24 -58c-1.33301 -8 -11.666 -73.667 -30.999 -197l-5 -876
c-5.33301 -29.333 -8 -45.333 -8 -48c0 0.666992 2.66699 -11.333 8 -36l-3 -263c-5.33301 -36 -5.33301 -86 0 -150c6 -74 17.333 -134 34 -180c5.33301 -16 19.666 -33.333 42.999 -52c40.667 -34 81.667 -50.667 123 -50c0 -14.667 -4.33301 -36.334 -13 -65.001h-139
c-2 0 -15.5 1.16699 -40.5 3.5s-38.5 3.5 -40.5 3.5s-12.667 -1.16699 -32 -3.5s-30 -3.5 -32 -3.5c-1.33301 0 -8.66602 1.16699 -21.999 3.5s-21.333 3.5 -24 3.5c-2 0 -7.33301 -1.16699 -16 -3.5s-14 -3.5 -16 -3.5l-251 -7c-21.333 0 -32 11 -32 33
c0 26 5.33301 41 16 45l77 21c30.667 8.66699 50 24 58 46c3.33301 13.333 8 34 14 62c11.333 -1.33301 28.666 -5 51.999 -11c8 46.667 12 76.667 12 90c0 12.667 -4 29.667 -12 51c6.66699 23.333 7.66699 42.666 3 57.999c-3.33301 11.333 -10.666 30.666 -21.999 57.999
c-10 24 -15 37.667 -15 41c0 -8 6.33301 26 19 102c2 8.66699 0 21.667 -6 39c13.333 31.333 20 53 20 65c0 2 -2 39 -6 111c0 5.33301 -2.83301 16 -8.5 32s-8.5 25.333 -8.5 28c0 5.33301 3 13.333 9 24c-0.666992 -4 -1 2 -1 18v207c0 3.33301 1.66699 13.5 5 30.5
s5 27.167 5 30.5c0 2 -1.16699 6.16699 -3.5 12.5s-3.5 11.166 -3.5 14.499c-1.33301 16.667 -0.333008 72.334 3 167.001c0.666992 11.333 0.166992 30 -1.5 56l-2.5 39v206c0 12.667 -5.66699 31 -17 55c2.66699 12 0 35 -8 69c-0.666992 16 -3.66699 40 -9 72
c-6 10 -14 24.667 -24 44c-3.33301 11.333 -9 28.333 -17 51c-15.333 34.667 -30.333 57 -45 67c-18 6.66699 -45.667 19.334 -83 38.001c2 16 6.33301 36.667 13 62h11c2 0 9.33301 -1.33301 22 -4s20.334 -4 23.001 -4h462z" />
    <glyph glyph-name="J" unicode="J" horiz-adv-x="610" 
d="M733 1629c-2 -12 -5.66992 -29.335 -11.0029 -52.002c-26.667 -2 -65.334 -12 -116.001 -30c-29.333 -20 -49.666 -66 -60.999 -138c-1.33301 -8.66699 -5.16602 -25.167 -11.499 -49.5s-10.166 -42.166 -11.499 -53.499l-10 -937c2 -17.333 6.33301 -42.666 13 -75.999
c0.666992 -3.33301 -0.333008 -10.333 -3 -21s-4 -18.334 -4 -23.001c-1.33301 -24.667 -1 -58.667 1 -102c2.66699 -52 4 -87 4 -105c0 -2 1.83301 -6 5.5 -12s5.83398 -11 6.50098 -15c3.33301 -18 7 -36 11 -54c4 -22 3.66699 -39 -1 -51
c-6.66699 -16.667 -30.334 -49.334 -71.001 -98.001c-100.667 -119.333 -194 -221 -280 -305c-68.667 -66.667 -134 -100 -196 -100c-25.333 0 -49.333 10.5 -72 31.5s-34 43.833 -34 68.5c0 6 1 11.667 3 17c38 19.333 96.667 45 176 77c16.667 -4 42 -6.33301 76 -7
c12.667 1.33301 23.334 9.83301 32.001 25.5s21.667 42.167 39 79.5c14 36.667 23.667 87.667 29 153l10 169c10.667 14 28.334 24 53.001 30c36 10 56.333 16 61 18c-16 4.66699 -35.333 6.66699 -58 6c-2.66699 0 -8.83398 -1.33301 -18.501 -4s-17.5 -4 -23.5 -4
c-8 18 -10.667 62.333 -8 133c2 51.333 0.333008 104 -5 158c-0.666992 5.33301 -4.33398 25.333 -11.001 60c-4.66699 26 -6.66699 47.667 -6 65c0.666992 10 3.66699 33.667 9 71c4 30.667 6 56 6 76c0 23.333 -2.66699 45 -8 65c-4 16.667 -9.66699 29.334 -17 38.001
c12.667 40.667 18.334 75.334 17.001 104.001c0 74.667 -2.33301 185.667 -7 333c0 24.667 -1 61 -3 109c-2.66699 4 -6.66699 12.667 -12 26l-18 110c-6.66699 8.66699 -15.667 22.667 -27 42c-12.667 28.667 -20.667 46 -24 52c-11.333 18.667 -25 33 -41 43l-87 30
c0 8 3.66699 23.667 11 47h693z" />
    <glyph glyph-name="K" unicode="K" horiz-adv-x="1253" 
d="M1649 -319c-4.66699 -9.33301 -12.666 -21 -23.999 -35c-7.33301 -5.33301 -16.5 -8.5 -27.5 -9.5s-27.833 -4.66699 -50.5 -11s-39.667 -9.5 -51 -9.5c-4.66699 0 -9.33398 0.333008 -14.001 1c-8.66699 7.33301 -22.334 16.333 -41.001 27
c-3.33301 -6 -1.33301 -15.333 6 -28c-10 2 -25.333 5.66699 -46 11c-2.66699 8.66699 -8.66699 20 -18 34c-62 -6 -94.667 -8.33301 -98 -7c-4.66699 0.666992 -25.334 17 -62.001 49c-15.333 13.333 -40.666 29.333 -75.999 48c-30.667 17.333 -57 37 -79 59
c-47.333 32.667 -87.666 67.667 -120.999 105l-102 122c-20.667 17.333 -45 43.666 -73 78.999c0.666992 0 3.16699 1.16699 7.5 3.5s7.83301 3.5 10.5 3.5c-0.666992 0 8.33301 -4.66699 27 -14c0.666992 -0.666992 11 -4.33398 31 -11.001
c-8.66699 23.333 -28.334 41 -59.001 53c-3.33301 1.33301 -9 9.66602 -17 24.999s-17 22.333 -27 21c0 -7.33301 4.66699 -12.666 14 -15.999c-2 -9.33301 -4.66699 -19.666 -8 -30.999c-10 5.33301 -23.333 15 -40 29c-3.33301 8 -9 18 -17 30
c-11.333 5.33301 -26.666 15.666 -45.999 30.999c-7.33301 16 -21 42 -41 78c-12 12 -29 31 -51 57c-12.667 16 -32 37 -58 63c-9.33301 -10 -12.666 -45 -9.99902 -105c2.66699 -14.667 6 -45 10 -91c-2 -8.66699 -3.33301 -34 -4 -76c2 -3.33301 5.66699 -22 11 -56
c4 -14 9.33301 -36.667 16 -68c-1.33301 -16 0.333984 -38.333 5.00098 -67c16.667 -37.333 50 -62 100 -74c18 -2.66699 42 -11.667 72 -27c1.33301 -26 -0.666992 -42 -6 -48c-14.667 -0.666992 -40 -3.66699 -76 -9h-108c-2 0 -13 2.33301 -33 7
s-33.333 7.33398 -40 8.00098c-17.333 1.33301 -44 0 -80 -4c-39.333 -4.66699 -57.666 -7 -54.999 -7h-153c-15.333 -6 -31 -5.66699 -47 1c-18.667 6.66699 -28 18.334 -28 35.001c0 4 0.333008 8.33301 1 13c3.33301 8 15 14 35 18c26 5.33301 44 11 54 17
c14.667 8.66699 33.667 28 57 58c7.33301 16.667 13.333 55 18 115c4.66699 15.333 9.66699 54.333 15 117c-2.66699 2.66699 -4.33398 31.667 -5.00098 87c0.666992 14 10.334 40.667 29.001 80c0 -3.33301 -4 2 -12 16c-9.33301 17.333 -14 41.333 -14 72v105
c0 56.667 0.666992 81.667 2 75c-9.33301 43.333 -7.33301 99.666 6 168.999c2 8.66699 3 16.667 3 24c0 10 -2.5 18.333 -7.5 25s-7.5 11 -7.5 13v117c0 3.33301 -0.333008 5.5 -1 6.5s-1 1.83301 -1 2.5c6 8.66699 9 15.667 9 21v208c0 26.667 -4.33301 58.667 -13 96
c-10.667 49.333 -24.667 79.333 -42 90c-23.333 14 -62.666 25.667 -117.999 35c-2 6 -3 11 -3 15c0 18 17.667 25.667 53 23l191 -13h94c0.666992 0 8.83398 1.83301 24.501 5.5s29.5 5.5 41.5 5.5c96 0 155.333 1.33301 178 4c5.33301 -10.667 8 -20.667 8 -30v-7
c-0.666992 -3.33301 -1 -5.66602 -1 -6.99902l-69 -19c-30.667 -13.333 -54.334 -37.666 -71.001 -72.999c-0.666992 -2 -4.66699 -35 -12 -99l-24 -181c-0.666992 -6 1 -18 5 -36c4 -20.667 6 -37.667 6 -51c0 -2.66699 -1.66699 -7.5 -5 -14.5s-5.33301 -12.167 -6 -15.5
c-1.33301 -14.667 0.333984 -32.334 5.00098 -53.001c-3.33301 -24 -6.33301 -55 -9 -93c0 -1.33301 4 -33.333 12 -96c-4 -9.33301 -3 -33.333 3 -72c22.667 18.667 51 50 85 94c41.333 40.667 95.666 100 162.999 178c8 16.667 20 38 36 64
c63.333 76.667 113.333 142 150 196c10.667 14 27 39 49 75c13.333 23.333 27.666 55.333 42.999 96c4 11.333 1.66699 23.666 -7 36.999c-16 24 -36.667 40.667 -62 50l-63 18c-3.33301 4.66699 -5 15 -5 31c22 8 47.667 12 77 12c21.333 0 62 -4.66699 122 -14
c6 2.66699 15.667 5 29 7c31.333 -4.66699 46.666 -7 45.999 -7c49.333 2 123 7 221 15c0 -12.667 -2.33301 -29 -7 -49c-26 3.33301 -66.333 -14 -121 -52l-72 -85c-6 -3.33301 -14.667 -10 -26 -20l-237 -324c-6 -3.33301 -13.667 -8.33301 -23 -15
c-15.333 -16.667 -64.333 -80.667 -147 -192l-41 -70c-2 -3.33301 -8.16699 -8.83301 -18.5 -16.5s-15.5 -13.5 -15.5 -17.5c0 -2 0.666992 -3.66699 2 -5c39.333 -48.667 78.333 -102.667 117 -162c1.33301 -6.66699 4.33301 -15.667 9 -27
c27.333 -38.667 68.666 -94.334 123.999 -167.001c12 -9.33301 30.333 -25.666 55 -48.999c19.333 -19.333 51.333 -63.666 96 -132.999c15.333 -24 31.666 -45.333 48.999 -64c15.333 -16.667 28 -26 38 -28c5.33301 -1.33301 16 -15 32 -41c12 -20 27 -32.667 45 -38
c20.667 -5.33301 37 -15 49 -29c4 -6 21.833 -16.667 53.5 -32s54.5 -32 68.5 -50c-14.667 -14 -24 -25 -28 -33c2 -12 8 -18 18 -18c16.667 0 25 8.33301 25 25l105 -68c46 -27.333 84 -41 114 -41z" />
    <glyph glyph-name="L" unicode="L" horiz-adv-x="1128" 
d="M1158 -132c1.33301 -21.333 -2.33105 -49.3359 -10.998 -84.0029c-11.333 -40 -25 -100.333 -41 -181c-11.333 -78.667 -29 -118.667 -53 -120c-26.667 -0.666992 -55 -0.333984 -85 0.999023c-39.333 2 -74.333 3 -105 3c-71.333 0 -128.333 1 -171 3s-60 3 -52 3
c-32 0 -71.667 -1.66699 -119 -5c-4 0.666992 -9 2.33398 -15 5.00098c-12.667 3.33301 -79.334 5 -200.001 5h-183c-2 0 -8 1.16699 -18 3.5s-17.667 3.5 -23 3.5l11 49c14.667 2.66699 35 8 61 16c26.667 12.667 47.334 34.667 62.001 66c8 8 16.667 20 26 36
c0.666992 10 -1.16602 25.667 -5.49902 47s-6.5 37 -6.5 47c6.66699 -1.33301 22 9 46 31c-1.33301 2 -6.66602 12.667 -15.999 32c-0.666992 1.33301 -6 2.33301 -16 3c-13.333 12 -10.333 30.667 9 56c11.333 14.667 17 34.334 17 59.001c0 14.667 -2.5 35.167 -7.5 61.5
s-7.5 43.166 -7.5 50.499c0 3.33301 1.66699 9 5 17s5 13.333 5 16v93c0 2 2 9.66699 6 23s6.33301 23.666 7 30.999c0 3.33301 -3 16.333 -9 39c0.666992 -2 2.33398 11.333 5.00098 40c0.666992 6.66699 -0.333008 15.334 -3 26.001c-3.33301 13.333 -5 22.666 -5 27.999
c-0.666992 9.33301 1 27.333 5 54c4 29.333 6.33301 48.333 7 57c0 11.333 -1 29 -3 53s-3 36.333 -3 37v96c0 4 2 9.33301 6 16l-6 107c-2 29.333 -1.33301 52 2 68c2 8.66699 3 17.667 3 27c0 18 -3.66699 40 -11 66l-18 61
c-0.666992 1.33301 -0.333984 19.333 0.999023 54c0 -0.666992 -2.33301 72.333 -7 219l-9 50c0 0.666992 1.66699 14 5 40c0.666992 4.66699 -1 12.5 -5 23.5s-6.33301 18.5 -7 22.5c0.666992 -4 3.66699 15.333 9 58c-10.667 20.667 -30.334 48.334 -59.001 83.001
c-8 6 -20.667 9.66699 -38 11c-22 2 -35.333 3.66699 -40 5c-3.33301 4.66699 -3.33301 13.334 0 26.001c3.33301 12 8 19.667 14 23c28 2 41.333 3 40 3c56 -4 141 -8.66699 255 -14c28.667 -1.33301 40.334 -2 35.001 -2c106 11.333 156.667 17 152 17h144
c1.33301 -13.333 -2.33398 -29.666 -11.001 -48.999l-105 -20c-44 -7.33301 -76.333 -40 -97 -98c-5.33301 -16.667 -11.333 -47.667 -18 -93c-8 -65.333 -12 -111.666 -12 -138.999v-1003c0 -2.66699 0.666992 -10 2 -22s2 -20 2 -24c2 -40.667 2 -76.667 0 -108
c-2.66699 -45.333 3 -70 17 -74c-0.666992 2 -2.33398 -18.667 -5.00098 -62c-0.666992 0 -2.33398 -1.33301 -5.00098 -4c18 -84.667 27 -133.667 27 -147c-9.33301 -14 -19.333 -36.667 -30 -68c-0.666992 -8 8.33301 -36 27 -84c26 -1.33301 65 -4.33301 117 -9
c9.33301 -1.33301 23.666 -9.33301 42.999 -24c3.33301 4.66699 10.333 12.667 21 24c16.667 0.666992 40 -0.666016 70 -3.99902c32.667 -2.66699 56.334 -4 71.001 -4c2.66699 0 8.66699 2.83301 18 8.5s16.333 9.16699 21 10.5c18 3.33301 44.333 10 79 20
c7.33301 2.66699 19.666 16.667 36.999 42l38 54c38.667 47.333 57.667 89.666 57 126.999c13.333 -2.66699 32 -7.66699 56 -15zM295.003 1016c-0.666992 16.667 -1 35.001 -1 55.001c0 19.333 0.666992 48.666 2 87.999s2 68.666 2 87.999c0 86 -10.333 154 -31 204
c-4 -7.33301 -4.66699 -21.666 -2 -42.999l6 -46c2.66699 -84 10.667 -199.333 24 -346z" />
    <glyph glyph-name="M" unicode="M" horiz-adv-x="1710" 
d="M1826 1569c-13.333 -4 -34.3301 -11.334 -62.9971 -22.001c-50.667 -23.333 -86 -52.333 -106 -87c-12.667 -22.667 -15 -67 -7 -133c0.666992 -2.66699 2.66699 -7.5 6 -14.5s5 -12.167 5 -15.5c0 3.33301 -6.66699 -15 -20 -55c-6 -20.667 -9 -42 -9 -64v-170
c0 -4 1.66699 -8.33301 5 -13s5.33301 -8.33398 6 -11.001c0.666992 -3.33301 -0.333008 -9.83301 -3 -19.5s-4 -16.5 -4 -20.5v-160c0 6.66699 -1.66699 -21.666 -5 -84.999c-3.33301 -56 -4.33301 -95.333 -3 -118c8.66699 -102.667 13 -147.334 13 -134.001v-226
c0 -36.667 -2.33301 -71.334 -7 -104.001c-5.33301 -16.667 -11.666 -41.667 -18.999 -75c-5.33301 -40.667 -5.33301 -75 0 -103c7.33301 -20 15.333 -50 24 -90c-3.33301 -35.333 -4 -83.333 -2 -144c8 -42.667 38 -74.334 90 -95.001c18 -6.66699 46 -21 84 -43
c4.66699 -8.66699 3.5 -22.334 -3.5 -41.001s-16.167 -27.667 -27.5 -27l-123 10c-70.667 5.33301 -116.667 7.66602 -138 6.99902c-6 0 -12.833 -3 -20.5 -9s-12.167 -9 -13.5 -9h-141c-8 0 -23.5 -1.16699 -46.5 -3.5s-41.167 -3.5 -54.5 -3.5
c-36.667 0 -65.334 7.66699 -86.001 23c-0.666992 20.667 2.33301 46 9 76c20.667 4.66699 48.667 15.667 84 33c24 20.667 51.333 53.334 82 98.001c14.667 21.333 21.334 57.333 20.001 108c0 4.66699 -2 13.167 -6 25.5s-6 20.5 -6 24.5v143c0 -12.667 -1 18.333 -3 93
c-2 60.667 -2 101.334 0 122.001c6.66699 66.667 5.33398 124.667 -3.99902 174c-1.33301 4 0 52.333 4 145c2.66699 36 6.33398 90.667 11.001 164c-0.666992 -1.33301 -7.66699 81.334 -21 248.001c-0.666992 14 -4.66699 32.333 -12 55c-12.667 -34 -24 -69 -34 -105
c-24.667 -81.333 -58.667 -202.333 -102 -363c-0.666992 -22 -4.66699 -55.333 -12 -100c-17.333 -42 -40 -106.667 -68 -194c0 -30 -2.33301 -74.667 -7 -134l-68 -234c-4.66699 -46.667 -17.334 -119.667 -38.001 -219c-9.33301 -30.667 -28 -72 -56 -124l-23 -9
c-23.333 -12 -53.666 -16 -90.999 -12c-6.66699 12.667 -15.334 31 -26.001 55c-14 62 -37 155 -69 279c-10.667 16 -24.667 44 -42 84c3.33301 30.667 2.66602 72.334 -2.00098 125.001c-16.667 46.667 -36.334 78 -59.001 94c1.33301 14 2 28.333 2 43
c0 83.333 -21.333 146.666 -64 189.999c-4.66699 18.667 -11.667 44 -21 76l-44 214l-51 149c-6 26.667 -12.333 53.334 -19 80.001c-8.66699 31.333 -21.334 56 -38.001 74c-2 28.667 -10.333 64.667 -25 108c-10 -2.66699 -17.667 -45 -23 -127
c-2 -32 0.333008 -80.667 7 -146c6.66699 -70 10 -102.333 10 -97v-170c0 -36 -1 -118 -3 -246c-2 -108.667 -2.33301 -190.667 -1 -246c4 -16.667 9.33301 -56.667 16 -120c0 -53.333 5.33301 -132.666 16 -237.999c7.33301 -40 34 -72.333 80 -97
c26.667 -12.667 54.667 -30 84 -52c6.66699 -24.667 3.33398 -45.334 -9.99902 -62.001c-16.667 -8 -41.334 -12 -74.001 -12c-13.333 0 -63.666 4.66699 -150.999 14c-15.333 1.33301 -35.333 0 -60 -4c-31.333 -4.66699 -51.333 -7.33398 -60 -8.00098
c-31.333 -2 -80 1.33301 -146 10c-12 16 -18 33.333 -18 52c0 15.333 5.66699 26.666 17 33.999c16 2.66699 38.333 10.334 67 23.001c17.333 11.333 38.666 30.666 63.999 57.999c14.667 29.333 24.667 63.333 30 102l14 106v138c0 63.333 -1 88.666 -3 75.999
c14 81.333 21 131.333 21 150v128l-27 219v124c0 4 1.16699 10.333 3.5 19s3.5 14.334 3.5 17.001c1.33301 14 0.666016 36 -2.00098 66l-5 49v158c0 -3.33301 2 13.667 6 51c3.33301 32.667 3.66602 55.334 0.999023 68.001c-0.666992 4.66699 -3.66699 16.334 -9 35.001
c-4.66699 16.667 -7 27 -7 31v143c0 2.66699 -2.83301 14.667 -8.5 36s-8.83398 37.666 -9.50098 48.999c0 2 -9.33301 20 -28 54c-16.667 30.667 -33 51.334 -49 62.001c-4.66699 2.66699 -24 7 -58 13c-4 0.666992 -6 9 -6 25c-0.666992 16 0.666016 27.333 3.99902 34
c11.333 10.667 28.333 16 51 16c30.667 0.666992 48.667 1.66699 54 3l218 -5c12 -4 22.333 -6 31 -6c6.66699 0 13.667 1.16699 21 3.5s12.666 3.5 15.999 3.5c10 0 24 -6 42 -18c10.667 -7.33301 25.334 -40 44.001 -98c6 -34 14 -76.333 24 -127l38 -129
c11.333 -44 28.666 -95.333 51.999 -154c40.667 -105.333 89.334 -259.666 146.001 -462.999c1.33301 -6 -3.33398 -30 -14.001 -72l-15 -20c-3.33301 -43.333 -4.66602 -66 -3.99902 -68c3.33301 -8.66699 24.333 -18.667 63 -30
c8.66699 -33.333 21.667 -79.666 39 -138.999c9.33301 -20.667 23 -53.667 41 -99c4.66699 -26 13 -57.667 25 -95l34 64c9.33301 24.667 22.333 61 39 109c0 8.66699 1 22 3 40c10.667 56 33.334 127.333 68.001 214c2.66699 18.667 8 47 16 85c14.667 36 33 94 55 174
l16 126.5c5.33301 43 14.333 80.5 27 112.5c10 17.333 22 43.666 36 78.999c16 92.667 47 225.667 93 399c1.33301 21.333 8.66602 50 21.999 86c13.333 14.667 28.5 22 45.5 22s41.833 0.5 74.5 1.5s58.667 1.5 78 1.5c2.66699 0 7.83398 -1.33301 15.501 -4
s12.834 -4 15.501 -4l239 5c7.33301 1.33301 14.833 -4.66699 22.5 -18s11.5 -25.666 11.5 -36.999c0 -3.33301 -0.333008 -6.33301 -1 -9z" />
    <glyph glyph-name="N" unicode="N" horiz-adv-x="1575" 
d="M1276 259l-11 -18l-7 9l6 37c1.33301 -2 3.33301 -7.16699 6 -15.5s4.66699 -12.5 6 -12.5zM1722 1558c-16 -3.33301 -38.3311 -9.33301 -66.998 -18c-30.667 -12 -54.334 -39 -71.001 -81c-25.333 -62.667 -40.666 -123.667 -45.999 -183
c-10.667 -104.667 -16 -190 -16 -256c0 -4.66699 1.66699 -53.667 5 -147s5 -142.666 5 -147.999v-271c0 -3.33301 1.33301 -14.5 4 -33.5s3.66699 -34.167 3 -45.5c-4.66699 -136 -7 -212.667 -7 -230c0 -8.66699 1.5 -27 4.5 -55s4.5 -44.333 4.5 -49v-522
c0 -6 0.666992 -9.33301 2 -10s2 -1.66699 2 -3c-56 -14 -81.333 -21 -76 -21c-33.333 0 -54 5 -62 15c-55.333 73.333 -137 200.666 -245 381.999l-86 156c-34 46.667 -79.667 114.667 -137 204c-14.667 34 -38.667 84.333 -72 151l-307 546
c-16.667 19.333 -40.334 50 -71.001 92c-0.666992 7.33301 -3.33398 18.333 -8.00098 33c-9.33301 21.333 -25 53.666 -47 96.999c-17.333 -11.333 -26 -28.666 -26 -51.999c0 0.666992 5.66699 -57.333 17 -174c0.666992 -6.66699 -0.166016 -17 -2.49902 -31
s-3.5 -23.667 -3.5 -29c0 -44.667 1.33301 -114.334 4 -209.001s4 -140.667 4 -138v-239c0 -6 0.833008 -63.5 2.5 -172.5s2.5 -166.167 2.5 -171.5c0 -104.667 8.66699 -183.667 26 -237c26.667 -84 77.334 -130 152.001 -138c3.33301 0 8.66602 -4.66699 15.999 -14
c1.33301 -21.333 -0.333984 -38.333 -5.00098 -51h-418c-4 -0.666992 -19 -4.16699 -45 -10.5s-41 -9.5 -45 -9.5h-19c-6.66699 10 -10 16.333 -10 19c0 28 8.33301 49 25 63c20.667 9.33301 51.334 26 92.001 50c39.333 30.667 63 80 71 148c20 164 24.333 264 13 300
c-5.33301 16 -6.33301 29.667 -3 41c0.666992 0 4 5.33301 10 16c0 0.666992 -2.66699 6 -8 16c-0.666992 12.667 0 33.334 2 62.001c2 34 3 57.333 3 70c0 16 -2.33301 43.5 -7 82.5s-7 66.5 -7 82.5c0 10 0.666992 26.667 2 50c1.33301 29.333 2.33301 47.666 3 54.999
c-0.666992 3.33301 -4.33398 14.333 -11.001 33l6 9c3.33301 7.33301 5.33301 19.666 6 36.999c1.33301 4 1.33301 8 0 12c-10.667 128 -16 214 -16 258v235l-4.5 101c-3 67.333 -4.5 115.333 -4.5 144c0 2.66699 1.33301 10 4 22s3.66699 21.667 3 29
c-55.333 82.667 -124.333 124 -207 124c-7.33301 0 -14.666 -0.333008 -21.999 -1l-6 8v56c8.66699 14 30.334 21 65.001 21c4 0 36.167 -2.16699 96.5 -6.5s92.166 -6.5 95.499 -6.5c4 0 34.333 2.16699 91 6.5s87 6.5 91 6.5c18.667 0 29.667 -0.666992 33 -2
c10.667 -6.66699 33.667 -43.667 69 -111l300 -592l122 -218c0 -93.333 -0.666992 -121.333 -2 -84c2 -43.333 12.667 -65 32 -65c3.33301 0 9.83301 3.33301 19.5 10s16.5 10 20.5 10c10.667 0 25 -20.667 43 -62l24 -64c58 -66.667 94.333 -117.334 109 -152.001l17 -85
c6.66699 -12 11.667 -18 15 -18c4.66699 0 9 2.16699 13 6.5s6.33301 6.5 7 6.5c21.333 -33.333 50.666 -81.666 87.999 -144.999c13.333 9.33301 20 18.333 20 27c0 5.33301 -1.5 14.666 -4.5 27.999s-4.5 22.666 -4.5 27.999v183c0 6 -0.5 14.333 -1.5 25
s-1.83301 24.334 -2.5 41.001c3.33301 21.333 5.66602 52 6.99902 92c-3.33301 32.667 -8.66602 81 -15.999 145c-0.666992 8.66699 0.5 25.5 3.5 50.5s4.5 38.833 4.5 41.5c0 4.66699 -1.16699 14 -3.5 28s-3.83301 24.333 -4.5 31c-1.33301 20 -1 47.667 1 83
c2 44 3 73.333 3 88c0 6 -2 15.833 -6 29.5s-6.33301 23.5 -7 29.5c0 0.666992 1.33301 16.334 4 47.001c1.33301 8.66699 0.333008 25.334 -3 50.001c-4 28 -6 48.333 -6 61c0 5.33301 1.66699 16.333 5 33c2.66699 14.667 3.66699 25.667 3 33
c-4 46.667 -12.333 114.334 -25 203.001c-11.333 59.333 -57 98.333 -137 117c2 20 0.333008 40.667 -5 62c9.33301 10.667 38 16 86 16l218 -13c14 0 37.333 2 70 6s57.667 6 75 6c28 0 51.667 -4.33301 71 -13v-63z" />
    <glyph glyph-name="O" unicode="O" horiz-adv-x="1766" 
d="M1875 660c0 -49.333 -1.66602 -86.9961 -4.99902 -112.996c-8 -20 -16.667 -51 -26 -93c-1.33301 -41.333 -10.666 -85.333 -27.999 -132l-60 -84c-8 -26.667 -27.333 -64.334 -58 -113.001l-115 -116c-7.33301 -2.66699 -17.333 -7 -30 -13
c-10.667 -10.667 -30.334 -26 -59.001 -46c-142 -75.333 -277.333 -118.333 -406 -129h-171c1.33301 0 -2.33398 3 -11.001 9c-93.333 2 -163.666 15 -210.999 39c-11.333 2 -27.333 6.33301 -48 13c-35.333 13.333 -87.666 37.666 -156.999 72.999
c-83.333 53.333 -161.333 128 -234 224c-40.667 54 -76.667 123.333 -108 208c-29.333 78.667 -45.666 145 -48.999 199c-6 92 -2.66699 182 10 270c5.33301 11.333 12.333 27.666 21 48.999c5.33301 25.333 14.666 62.666 27.999 111.999c18.667 30.667 43.667 75 75 133
c4.66699 10 7 21.333 7 34c4 4 12.667 2.66699 26 -4c4 12 3.66699 29.333 -1 52c12 4 28.333 11.333 49 22c6 18 22.333 40 49 66l235 122c27.333 13.333 61.666 25 102.999 35c105.333 24 177.333 36 216 36h102c78.667 0 146 -7.66699 202 -23c30 -8 96.667 -32 200 -72
l103 -66c67.333 -42.667 128.666 -102 183.999 -178c49.333 -67.333 81.666 -129.333 96.999 -186c6.66699 -9.33301 15.334 -24 26.001 -44c18.667 -52 29.667 -128.667 33 -230c0 -3.33301 1.83301 -11.333 5.5 -24s5.5 -22.667 5.5 -30zM1587 626.004
c-8.66699 109.333 -30.0029 209.005 -64.0029 299.005c-44.667 116.667 -97 208 -157 274c-84.667 93.333 -177.334 148.333 -278.001 165c-95.333 16 -160.666 21.667 -195.999 17c-69.333 -9.33301 -128.333 -24.666 -177 -45.999c-6 -2.66699 -45 -25.667 -117 -69
c-5.33301 -8.66699 -13.666 -19 -24.999 -31c-6.66699 -2 -14.334 -4.66699 -23.001 -8c-17.333 -22.667 -38.666 -53.334 -63.999 -92.001c-4 -10.667 -10 -25.334 -18 -44.001c-13.333 -20.667 -27 -45.334 -41 -74.001c-8.66699 -32 -20.667 -80 -36 -144
c0.666992 -24.667 0 -61.334 -2 -110.001c0 -2.66699 -1.66699 -8.5 -5 -17.5s-5 -14.833 -5 -17.5l52 -235c-1.33301 -6.66699 -2.66602 -14.667 -3.99902 -24l26 -50c0.666992 -11.333 3.33398 -26 8.00098 -44c36.667 -72.667 55.334 -110 56.001 -112
c26.667 -44.667 62.667 -87.334 108 -128.001c0.666992 -0.666992 6 -18.667 16 -54c4 0 19 -2.33301 45 -7c42 -39.333 74.333 -66 97 -80c30.667 -18 87.334 -29.667 170.001 -35c66 -4.66699 125.667 -4.33398 179 0.999023l54 16c28.667 6.66699 69.667 21 123 43
c12.667 11.333 29 25 49 41c34 20.667 66.333 50.667 97 90s49.667 75.333 57 108c8.66699 10 19 24.667 31 44c1.33301 16.667 4 36.334 8 59.001c5.33301 5.33301 10.666 13.666 15.999 24.999c1.33301 19.333 5.66602 62.333 12.999 129c6 54 8.33301 91 7 111z" />
    <glyph glyph-name="P" unicode="P" horiz-adv-x="1185" 
d="M1212 1194c7.33301 -47.333 3 -152.332 -13 -314.999c-6 -56.667 -29.667 -125 -71 -205c-40 -77.333 -81 -136 -123 -176c-37.333 -35.333 -90 -60.666 -158 -75.999c-16.667 -11.333 -41.334 -23.333 -74.001 -36c-64 -6.66699 -144.333 -10 -241 -10
c-4.66699 0 -11 -7.33301 -19 -22c2.66699 -42.667 6.33398 -179.667 11.001 -411c0.666992 -44.667 6.66699 -103.334 18 -176.001c0 -21.333 4 -51.666 12 -90.999c16.667 -40.667 43.334 -69.667 80.001 -87l90 -37c0.666992 -12 0 -26.667 -2 -44
c-22.667 -13.333 -46 -20 -70 -20h-124c-1.33301 0 -11.833 2.83301 -31.5 8.5s-33.834 8.5 -42.501 8.5c-24 0 -61.833 -2.83301 -113.5 -8.5s-77.167 -8.5 -76.5 -8.5h-119c-12 0 -26.333 5.33301 -43 16c-0.666992 2.66699 -1.83398 9 -3.50098 19s-2.5 17.333 -2.5 22
c41.333 16 66.333 27.333 75 34c29.333 19.333 53 51.666 71 96.999c8 20 13.333 71.667 16 155c0.666992 13.333 3.66699 48.333 9 105c4.66699 51.333 7 90.666 7 117.999v210c0.666992 16 0 40 -2 72c-1.33301 35.333 -2 60.666 -2 75.999
c0 63.333 9.66699 116.666 29 159.999c-6.66699 7.33301 -14 22.333 -22 45c-6 60.667 -9 124 -9 190c0 4.66699 2.33301 19 7 43s7 43.333 7 58c0 10.667 -1 20.334 -3 29.001c-12.667 48.667 -14.334 110.334 -5.00098 185.001
c2.66699 21.333 -2.66602 88.666 -15.999 201.999c0 36 -6.66699 83.333 -20 142c-17.333 30 -40 49.333 -68 58c-23.333 6.66699 -46.333 13.667 -69 21c0 64 -1 77.333 -3 40c0.666992 18 8.33398 27.333 23.001 28c32 2.66699 83.333 8.33398 154 17.001
c64.667 8 98.334 12 101.001 12h151c28.667 0 58 3.5 88 10.5s55.667 10.5 77 10.5c26 0 59 -3.33301 99 -10c25.333 -8 62.666 -19 111.999 -33c4 -4.66699 11.667 -10 23 -16c75.333 -16.667 142 -67.667 200 -153c41.333 -62 70 -147.667 86 -257zM958 1003
c0 37.333 -1.66699 62.001 -5 74.001c-39.333 148.667 -72.666 244 -99.999 286c-52.667 81.333 -121.667 122 -207 122c-13.333 0 -36 -1 -68 -3c-6.66699 0 -17.667 -6 -33 -18c-12.667 -192.667 -20.334 -348.334 -23.001 -467.001c3.33301 -9.33301 7 -22.333 11 -39
c0 -36 -2.33301 -83 -7 -141s-7 -103.667 -7 -137c0 -42.667 2.66699 -88 8 -136c2 -4 5 -9 9 -15h116c13.333 -4.66699 27.333 -7 42 -7c46.667 0 91.667 21.333 135 64c42 40.667 68 74.667 78 102c34 92.667 51 197.667 51 315z" />
    <glyph glyph-name="Q" unicode="Q" horiz-adv-x="1892" 
d="M2123 -415c-13.333 -15.333 -53.9961 -29.665 -121.996 -42.998l-172 -34c-25.333 -5.33301 -50.666 -8 -75.999 -8c-16.667 0 -75 9.33301 -175 28c-16.667 0 -41.334 2.66699 -74.001 8c-4.66699 4.66699 -12.667 10 -24 16c-34.667 6.66699 -79 22.334 -133 47.001
c-80.667 36.667 -124.334 56.667 -131.001 60c-4 7.33301 -11 19.333 -21 36c-8.66699 0 -20 2.66699 -34 8c-12.667 13.333 -32.334 28 -59.001 44c-21.333 12 -38.666 29.667 -51.999 53c-5.33301 10 -12.333 15.667 -21 17c-44 5.33301 -102.667 8.66602 -176 9.99902
c-31.333 0 -79 13 -143 39l-120 44c-50.667 20.667 -91 43 -121 67c-169.333 138 -274.666 290 -315.999 456c-13.333 34 -27 84.667 -41 152c-3.33301 110 0 200 10 270c5.33301 12 12.333 28.667 21 50c5.33301 25.333 14.666 63 27.999 113
c19.333 30.667 44.333 74.667 75 132c4.66699 10 7 21.333 7 34c4 4.66699 12.667 3.66699 26 -3c4 11.333 4 28.666 0 51.999c11.333 3.33301 27.333 10.666 48 21.999c6.66699 18 23.334 40 50.001 66l235 123c27.333 13.333 61.666 24.666 102.999 33.999
c106 24 178.333 36 217 36h102c78.667 0 146.334 -7.66699 203.001 -23c28 -7.33301 94.667 -31.333 200 -72l104 -66c67.333 -42.667 128.666 -102 183.999 -178c49.333 -67.333 81.666 -129.666 96.999 -186.999c7.33301 -9.33301 16.333 -24 27 -44
c18.667 -52 29.334 -129 32.001 -231c0 -3.33301 2 -11.333 6 -24s6 -22.667 6 -30c0 -49.333 -1.66699 -87 -5 -113c-8.66699 -20 -17.334 -51 -26.001 -93c-2 -42 -11.333 -86.333 -28 -133c-14 -17.333 -34.333 -45.333 -61 -84c-7.33301 -26 -26.333 -63.667 -57 -113
c-22.667 -28.667 -61.334 -67.667 -116.001 -117c-64 -40 -142.333 -84 -235 -132c6 -20.667 26 -44 60 -70c42 -31.333 66 -50.666 72 -57.999c6 -3.33301 15 -7.66602 27 -12.999c4.66699 -2 -0.333008 -15 -15 -39c13.333 -0.666992 25.666 3.66602 36.999 12.999l17 14
c4 -2.66699 11.333 -6.66699 22 -12c42 -23.333 102.333 -51.666 181 -84.999c24 -0.666992 61.333 -3.33398 112 -8.00098c13.333 -2 36 -3 68 -3c3.33301 0 9.33301 -2.16699 18 -6.5s16 -6.83301 22 -7.5c36.667 -2.66699 81 1.66602 133 12.999c0 -26 1.33301 -35 4 -27
zM1604 625.001c-8.66699 110 -30.002 210.005 -64.002 300.005c-44.667 116.667 -97 208.334 -157 275.001c-85.333 93.333 -178.333 148.333 -279 165c-96 16 -161.667 21.667 -197 17c-69.333 -8.66699 -128.333 -24 -177 -46c-6 -2.66699 -45.333 -25.667 -118 -69
c-5.33301 -8.66699 -13.666 -19 -24.999 -31c-6.66699 -2 -14.334 -4.66699 -23.001 -8c-17.333 -22.667 -38.666 -53.334 -63.999 -92.001c-4 -10.667 -10 -25.667 -18 -45c-13.333 -20.667 -27.333 -45.334 -42 -74.001c-8.66699 -32 -20.667 -80 -36 -144
c0.666992 -24.667 0.333984 -61.667 -0.999023 -111c0 -2.66699 -1.83301 -8.33398 -5.5 -17.001s-5.16699 -14.667 -4.5 -18l52 -235c-0.666992 -1.33301 -4.33398 -2 -11.001 -2c-15.333 0 -54.333 3 -117 9l-83 6c1.33301 -4 22.166 -12.5 62.499 -25.5
s72.5 -20.5 96.5 -22.5l-67 -29l44 -13l62 54l23 -30c7.33301 -1.33301 11 -4.33301 11 -9l1 -12c0.666992 -11.333 3.33398 -26 8.00098 -44c36.667 -73.333 55.334 -111 56.001 -113c26.667 -44.667 62.667 -87.334 108 -128.001
c0.666992 -0.666992 6.33398 -18.667 17.001 -54c3.33301 -0.666992 18 -3 44 -7c42.667 -40 75.334 -66.667 98.001 -80c30.667 -18.667 87.667 -30.667 171 -36c66 -4 125.667 -3.66699 179 1c13.333 4.66699 31.333 10.334 54 17.001c28.667 6 69.667 20 123 42
c12.667 11.333 29 25 49 41c34 21.333 66.5 51.666 97.5 90.999s49.833 75.666 56.5 108.999c9.33301 10 20 24.667 32 44c1.33301 16 3.66602 35.333 6.99902 58c6 5.33301 11.667 13.666 17 24.999c1.33301 20 5.66602 63.333 12.999 130c6 54 8.33301 91 7 111z" />
    <glyph glyph-name="R" unicode="R" horiz-adv-x="1424" 
d="M1915 -255c0 -8 -0.339844 -15.9951 -1.00684 -23.9951c-1.33301 -10 -6.16602 -16.5 -14.499 -19.5s-25.5 -6.16699 -51.5 -9.5c-8.66699 -1.33301 -27 -6.33301 -55 -15c-25.333 -8 -44.333 -12 -57 -12c-4.66699 0 -9 0.5 -13 1.5s-10.333 4.83301 -19 11.5
c-11.333 8 -16 14.667 -14 20c-7.33301 4 -21.333 3 -42 -3l51 -28c-50 -2.66699 -83.667 2 -101 14c1.33301 6 3.66602 15.333 6.99902 28c-0.666992 0.666992 -2.66699 2 -6 4c3.33301 0.666992 -24.667 3.66699 -84 9c0 0.666992 -2.33301 -1 -7 -5l23 -11
c-30 -1.33301 -49 0.666992 -57 6l-24 31c-15.333 17.333 -29 24.666 -41 21.999c-15.333 20.667 -51.666 59 -108.999 115c-50 48 -76 77.333 -78 88c-6.66699 4 -15 11 -25 21c-10 12.667 -22 32.334 -36 59.001c-2.66699 6.66699 -8 10.334 -16 11.001
c-9.33301 29.333 -30 55 -62 77c5.33301 8 6 15 2 21l-51 59c-22.667 26.667 -34 49.667 -34 69c0 3.33301 0.333008 6.66602 1 9.99902c2 2 9.33301 1.66699 22 -1c3.33301 -2.66699 8.33301 -6.33398 15 -11.001c14.667 2.66699 26.334 8 35.001 16
c12 -10.667 27.667 -27 47 -49c10 2 15 8 15 18c0 17.333 -9.66699 25.666 -29 24.999c1.33301 1.33301 2.83301 3.66602 4.5 6.99902s3.16699 5.33301 4.5 6c4 -3.33301 10.667 -8 20 -14c5.33301 0 9.33301 2 12 6c2 8 2 18 0 30c-16 13.333 -34.667 20 -56 20
c-12 0 -29.667 -2.83301 -53 -8.5s-40 -8.5 -50 -8.5c-12.667 0 -23.667 2.66699 -33 8c-23.333 13.333 -38.666 36.666 -45.999 69.999c-3.33301 2.66699 -7.66602 6.33398 -12.999 11.001l2 8c0 10.667 -5.66699 20 -17 28s-22 12 -32 12
c-38 -0.666992 -89.333 -0.666992 -154 0c-76 0.666992 -127.333 1 -154 1c-6 0 -9 -3 -9 -9c-1.33301 -38.667 -1.33301 -60.667 0 -66v-129l2 -56c1.33301 -37.333 2 -65.333 2 -84c0 -2.66699 -1.5 -8 -4.5 -16s-3.83301 -14.333 -2.5 -19c6 -8.66699 13 -22.667 21 -42
c7.33301 -48.667 9.66602 -80 6.99902 -94l-45 -32c0 -4 1 -6.66699 3 -8c37.333 -0.666992 97 -8.33398 179 -23.001c6.66699 -2 16.667 -5.33301 30 -10c1.33301 -5.33301 0.333008 -19 -3 -41c-10.667 -8 -20 -12 -28 -12c-20 0 -73.333 6.33301 -160 19l-217 4
c-14 -4 -36 -8 -66 -12c-47.333 -2 -103.666 -3 -168.999 -3c0 11.333 0.333008 27.666 1 48.999c21.333 8.66699 52.333 18.334 93 29.001c21.333 5.33301 44 22.833 68 52.5s36.667 54.167 38 73.5c8.66699 92.667 13 143.334 13 152.001v718c0 2.66699 -1 10.667 -3 24
s-3 22.333 -3 27c-0.666992 8.66699 0.666016 29 3.99902 61s5 57.333 5 76c0 8 -1.33301 23.333 -4 46c-3.33301 25.333 -5 43.666 -5 54.999c-1.33301 19.333 -5 47.666 -11 84.999c-4.66699 9.33301 -11 23.666 -19 42.999c-6 23.333 -32.333 41.333 -79 54
c-6 2.66699 -16.333 7 -31 13c-12 0 -29 0.666992 -51 2c-16 10.667 -18.333 26.667 -7 48c19.333 4.66699 48 10 86 16c108 8.66699 170.333 13 187 13h143c2.66699 0 21.5 2 56.5 6s54.167 6 57.5 6h80c3.33301 0 14 -1 32 -3c20.667 -2 35 -3.33301 43 -4
c12.667 2 31 3.66699 55 5c68.667 -8.66699 146.334 -23 233.001 -43c32 -7.33301 96.667 -49.666 194 -126.999c3.33301 -5.33301 3.33301 -12.666 0 -21.999c-11.333 -11.333 -34.166 -25.833 -68.499 -43.5s-57.5 -32.834 -69.5 -45.501c1.33301 -8 9 -13 23 -15
c12 -1.33301 23 -0.333008 33 3c1.33301 4 5.33301 8.33301 12 13c18.667 3.33301 32 5 40 5c3.33301 -11.333 11 -23 23 -35c10.667 3.33301 16 10.333 16 21c-0.666992 10 -5.66699 19.333 -15 28c9.33301 2.66699 19 2.66699 29 0c14 -4 26.333 -6 37 -6l21 -104
c9.33301 -46.667 14 -85.667 14 -117c0 -26.667 -3 -51 -9 -73c-9.33301 -36 -28.666 -89.333 -57.999 -160c-17.333 -30.667 -50 -75 -98 -133c-1.33301 -2 -32.666 -26.333 -93.999 -73c18.667 -35.333 45 -74.333 79 -117c26.667 -33.333 47.334 -63.666 62.001 -90.999
c16 -30 28.333 -51 37 -63c1.33301 -4.66699 3.66602 -10.667 6.99902 -18l161 -203c2 -4 2 -7.66699 0 -11c28 -21.333 63 -51.666 105 -90.999c18.667 -18.667 44.334 -47 77.001 -85c-21.333 -2 -32 -12 -32 -30c0 -16.667 8.33301 -28.334 25 -35.001
c3.33301 24 13.666 36 30.999 36c2.66699 0 5.33398 -0.333008 8.00098 -1s19 -8.33398 49 -23.001l134 -66c19.333 -8 45.666 -12.333 78.999 -13zM1050.99 315.005c-8 -9.33301 -15.667 -12.998 -23 -10.998c1.33301 7.33301 6 12.666 14 15.999
c1.33301 -0.666992 4.33301 -2.33398 9 -5.00098zM1110.99 934.007c-18 6 -27 15 -27 27v106c0 3.33301 -1 7.5 -3 12.5s-3.33301 8.5 -4 10.5c-4 42.667 -25.333 91 -64 145c-42.667 59.333 -87 93.666 -133 102.999c-6.66699 4 -15.667 8.33301 -27 13
c-67.333 14 -105.333 21 -114 21h-88c-33.333 0 -63.666 -4.33301 -90.999 -13c-2.66699 -1.33301 -10.334 -9.33301 -23.001 -24c4.66699 -39.333 6.66699 -61.333 6 -66c0 -0.666992 -1.16699 -2.66699 -3.5 -6s-3.5 -6.66602 -3.5 -9.99902v-139
c0 -3.33301 -2 -9.16602 -6 -17.499s-5.66699 -14.5 -5 -18.5c4 -16 8.33301 -31.667 13 -47c4.66699 -17.333 4.66699 -32.666 0 -45.999c-10.667 -31.333 -12 -73 -4 -125c-1.33301 10.667 -2 -5 -2 -47v-143c0 -8.66699 -1 -19.334 -3 -32.001
c-1.33301 -9.33301 -1.66602 -17 -0.999023 -23c2 -8.66699 6.33301 -20.334 13 -35.001c16 -4.66699 39.333 -10.334 70 -17.001l195 -4c20.667 8.66699 52 21 94 37c16 4.66699 37 13.334 63 26.001c39.333 36 67.333 69.667 84 101c14 25.333 24.667 59.333 32 102
c0.666992 12.667 3 32 7 58c1.33301 10 3.66602 23 6.99902 39c3.33301 10 9.33301 14 18 12z" />
    <glyph glyph-name="S" unicode="S" horiz-adv-x="1196" 
d="M1139 8c-1.33301 -36 -25 -116.663 -71 -241.996c-3.33301 -9.33301 -17.333 -30.666 -42 -63.999c-63.333 -85.333 -119 -137 -167 -155c-11.333 -7.33301 -29 -17 -53 -29c-72.667 -28 -165.334 -42 -278.001 -42c-32 0 -61.333 1.66699 -88 5
c-2 14.667 0.666992 32.667 8 54c-29.333 28.667 -55 43 -77 43c-17.333 0 -33 -8.66699 -47 -26c13.333 -10 26.333 -15 39 -15c1.33301 -14 -3.66699 -23.667 -15 -29c-10 -4.66699 -22 -4.66699 -36 0c-6 2 -57.667 22 -155 60c-14.667 4 -29 8.33301 -43 13
c-20 7.33301 -35.333 18 -46 32l-12 80c-6.66699 34.667 -14.667 92.334 -24 173.001v227c-0.666992 66.667 13 100 41 100c4.66699 0 9.66699 -1.33301 15 -4c2.66699 -61.333 13.667 -152.666 33 -273.999l28 -52c23.333 -56 61 -99.667 113 -131
c26.667 -16.667 72 -35.334 136 -56.001c13.333 -4 44.333 -12.667 93 -26c33.333 -9.33301 78.666 -16.333 135.999 -21c16.667 26 42.667 43 78 51c46.667 10 78.334 21 95.001 33c11.333 7.33301 23 26.333 35 57l29 77l29 105c-1.33301 8 -2.66602 20 -3.99902 36
c0.666992 38 -8.33301 80 -27 126c-20 50 -44.667 84.667 -74 104c-6 13.333 -16.667 29.666 -32 48.999c-38.667 26 -95 60.333 -169 103c-15.333 14 -39 32.333 -71 55c-104.667 50.667 -196.667 115 -276 193c-30.667 30.667 -60 74.334 -88 131.001
c-0.666992 6.66699 -3 17 -7 31c-4 7.33301 -10.333 14.666 -19 21.999l-5 10c-0.666992 19.333 -1 38.666 -1 57.999c-2.66699 25.333 -9.66699 44.666 -21 57.999c0.666992 26.667 2 67 4 121c-3.33301 3.33301 -7.66602 8.33301 -12.999 15
c-1.33301 6 -1.33301 17.333 0 34l15 21c0 0.666992 8.66699 38.334 26 113.001c10 46 35 86 75 120c3.33301 -5.33301 9.33301 -14 18 -26c2.66699 17.333 11.334 41.333 26.001 72c62.667 70 127.667 124 195 162c20.667 0.666992 49 2.33398 85 5.00098
c38.667 3.33301 93.667 10.333 165 21c2.66699 -2.66699 7.33398 -6.66699 14.001 -12c38 -6.66699 94 -13.667 168 -21c53.333 -2 85.666 -2 96.999 0c51.333 8 73.666 12 66.999 12c14 0 25 -3.33301 33 -10c0 -0.666992 -9 -190.667 -27 -570c-10 -6 -27.333 -8 -52 -6
c-8.66699 38 -13 66.667 -13 86c0.666992 61.333 -13.333 120.666 -42 177.999c-30.667 64 -71.334 106.667 -122.001 128c-42 18 -92.333 27 -151 27c-64 0 -113.667 -9.66699 -149 -29c-6.66699 0.666992 -15.667 -0.333008 -27 -3c-34.667 -20.667 -66 -53 -94 -97
c-29.333 -46 -44.333 -87.667 -45 -125c-0.666992 -6.66699 1.5 -20.334 6.5 -41.001s7.83301 -36.667 8.5 -48c0 -69.333 31.333 -136.333 94 -201c28 -28.667 75 -65.667 141 -111c30.667 -13.333 75 -35.333 133 -66c158 -95.333 267.333 -191.333 328 -288
c5.33301 -14.667 15.333 -39.334 30 -74.001c10.667 -24.667 21 -65.334 31 -122.001c12 -66.667 17 -128.334 15 -185.001z" />
    <glyph glyph-name="T" unicode="T" horiz-adv-x="1458" 
d="M1683 1274l-6.01074 -12.0088c-8 -6 -24.667 -8 -50 -6l-10 10c10 17.333 14.333 28 13 32c-17.333 48.667 -38.666 90 -63.999 124c-30.667 42 -73.667 67 -129 75c-7.33301 4 -17.333 8.66699 -30 14c-12.667 3.33301 -33 3 -61 -1c-30 -4.66699 -51 -5.66699 -63 -3
c-4.66699 0.666992 -13.334 -1.33301 -26.001 -6c-15.333 -5.33301 -25.666 -8 -30.999 -8c-18 -4 -45.667 -8.33301 -83 -13c-20.667 0 -51 -0.666992 -91 -2c-8 -0.666992 -18 -7.16699 -30 -19.5s-19 -22.833 -21 -31.5c1.33301 -15.333 2 -37.333 2 -66
c-8 -24 -17 -58.667 -27 -104c-4.66699 -38.667 -1.33398 -81 9.99902 -127c2 -26.667 5.33301 -67 10 -121l-4 -210c8 -24.667 12 -41 12 -49c0 -12 -4.33301 -25 -13 -39c-10 -16 -15.333 -25.333 -16 -28c3.33301 -6 12.333 -11.333 27 -16
c4.66699 -7.33301 6.33398 -14.666 5.00098 -21.999c-0.666992 -4 -9.66699 -15 -27 -33c6 -10.667 12.333 -27.334 19 -50.001c2.66699 -33.333 -0.333008 -59.666 -9 -78.999c-10 -23.333 -15 -46.666 -15 -69.999c0 -14.667 2.83301 -35.167 8.5 -61.5
s8.5 -46.5 8.5 -60.5c0 -19.333 -4 -38.333 -12 -57c-3.33301 -8.66699 -4.66602 -15 -3.99902 -19c6.66699 -6.66699 14 -11 22 -13c6 -6.66699 8 -15 6 -25c-6.66699 -27.333 -14.667 -68.666 -24 -123.999c0 -1.33301 4.66699 -67.666 14 -198.999
c-1.33301 -23.333 -1.66602 -57.666 -0.999023 -102.999c4 -35.333 16.333 -72.333 37 -111c7.33301 -4.66699 16 -11.334 26 -20.001c9.33301 -18 26.333 -42.667 51 -74c14 -12 30.333 -20 49 -24c22 -2 54.667 -5.66699 98 -11
c6.66699 -7.33301 7.33398 -16.333 2.00098 -27h-278c-3.33301 0 -19.333 2 -48 6s-44.667 6 -48 6h-181c-1.33301 0 -15.166 -2.66699 -41.499 -8s-45.833 -8 -58.5 -8c-93.333 0 -147.666 1.33301 -162.999 4c-2 3.33301 -3 6.66602 -3 9.99902
c0 17.333 20.667 28.666 62 33.999c18.667 1.33301 46 9 82 23c47.333 36.667 79.666 77.334 96.999 122.001c9.33301 24 14.666 53 15.999 87c2 50.667 3 76.667 3 78c4 12.667 10 30.667 18 54c-4 10 -6 24 -6 42c13.333 26.667 20 57.667 20 93c0 33.333 -5 61 -15 83
c-3.33301 6.66699 -4.33301 23.667 -3 51c2 42 7 108.333 15 199c0 2.66699 2 13.334 6 32.001c3.33301 14.667 4.66602 28.334 3.99902 41.001c-2.66699 4 -6 9.66699 -10 17c-0.666992 2.66699 0.833008 7.5 4.5 14.5s5.5 11.833 5.5 14.5
c0 104.667 -0.666992 153.334 -2 146.001c4.66699 32.667 6.66699 50.334 6 53.001c-3.33301 4 -6.66602 11 -9.99902 21c1.33301 18 1.66602 45.667 0.999023 83c-2 34.667 -0.333008 66.334 5 95.001c3.33301 20 9 32.833 17 38.5s18 8.5 30 8.5
c8.66699 0 22.667 -3 42 -9s34 -9 44 -9c15.333 0 29.333 5.66699 42 17c-4 11.333 -17.333 19.666 -40 24.999c-18 3.33301 -36 7 -54 11c-3.33301 4.66699 -10.333 10.667 -21 18c-14 0 -34.667 7.66699 -62 23c1.33301 12.667 2 50.334 2 113.001
c0 4 -0.833008 14.5 -2.5 31.5s-2.5 29.833 -2.5 38.5c0 9.33301 0.666992 28 2 56c0.666992 23.333 0.666992 42 0 56c0 7.33301 -3.33301 12 -10 14c-9.33301 4 -15.666 7.33301 -18.999 10c-0.666992 1.33301 -1 3 -1 5c0 4.66699 3.83301 10.667 11.5 18
s11.834 12.666 12.501 15.999c5.33301 16.667 7 50.667 5 102c-10.667 10 -23.667 15 -39 15c-4 0 -9.83301 -0.333008 -17.5 -1s-13.5 -1 -17.5 -1c-22 0 -39.333 11.333 -52 34c-14.667 -12.667 -39 -27 -73 -43c-7.33301 -1.33301 -15 -2 -23 -2
c-14 0 -33.667 2.5 -59 7.5s-44 7.5 -56 7.5c-19.333 0 -36.666 -4.33301 -51.999 -13c-3.33301 -2 -29.666 -8.33301 -78.999 -19c-6 -1.33301 -18.667 -11.333 -38 -30l-134 -159c-2.66699 -3.33301 -9.33398 -21.666 -20.001 -54.999c-8.66699 -26.667 -20 -40 -34 -40
c-7.33301 0 -15.666 3 -24.999 9c-0.666992 8 2.33301 21.667 9 41c8.66699 22.667 13.334 35.667 14.001 39c6.66699 40 17.667 100.667 33 182c0.666992 1.33301 3 34.333 7 99c2.66699 42 12.334 72.333 29.001 91c50.667 8.66699 88.334 12 113.001 10
c9.33301 -4.66699 23 -10 41 -16c4 -0.666992 11 0.833008 21 4.5s16.667 5.83398 20 6.50098c10 -1.33301 25.333 -2 46 -2c9.33301 4 24.333 8.66699 45 14c14 2.66699 33.667 2 59 -2c30.667 -5.33301 51.334 -8 62.001 -8c3.33301 0 10.833 1.33301 22.5 4
s19.5 4 23.5 4h156c2 0 8.5 1.33301 19.5 4s18.5 3.33398 22.5 2.00098c10.667 -4 24.334 -8.66699 41.001 -14c124 -6.66699 204 -7.33398 240 -2.00098c-2.66699 -0.666992 11.333 -2.66699 42 -6c5.33301 -0.666992 32.666 1.33301 81.999 6
c8.66699 -1.33301 21 -2 37 -2c2.66699 0.666992 7.5 3.16699 14.5 7.5s12.167 6.5 15.5 6.5c56 0 115.333 1.33301 178 4c13.333 0.666992 42.333 -0.666016 87 -3.99902c4 0 11.667 -2.5 23 -7.5s20 -7.5 26 -7.5c11.333 0.666992 50.333 7 117 19
c14.667 -10.667 21.667 -28 21 -52l-6 -60c0 -10.667 0.333008 -28.334 1 -53.001c1.33301 -26.667 2 -40.667 2 -42v-88c0 -0.666992 1.33301 -9.66699 4 -27s4 -33 4 -47z" />
    <glyph glyph-name="U" unicode="U" horiz-adv-x="1525" 
d="M1648 1635c0 -42.667 -5.00195 -64.998 -15.002 -66.998c-15.333 -2.66699 -38 -9.33398 -68 -20.001c-12.667 0.666992 -30.334 -5.33301 -53.001 -18c-26.667 -36 -42.334 -87 -47.001 -153c-2.66699 -5.33301 -5.33398 -14 -8.00098 -26
c-4.66699 -63.333 -6 -103.333 -4 -120c11.333 -103.333 17 -155.333 17 -156v-131c0 -4 -1.5 -12.5 -4.5 -25.5s-4.83301 -21.833 -5.5 -26.5c-0.666992 -8.66699 -0.333984 -24.334 0.999023 -47.001c7.33301 -90 11 -208.333 11 -355
c0 -1.33301 -1.33301 -4.83301 -4 -10.5s-4 -10.834 -4 -15.501c0 -6.66699 0.666992 -28 2 -64c1.33301 -28.667 1.33301 -50.667 0 -66c-3.33301 -60 -10.666 -149 -21.999 -267c-5.33301 -35.333 -19.333 -88.333 -42 -159
c-22.667 -72.667 -42.334 -124.334 -59.001 -155.001c-18.667 -34.667 -53.667 -78.334 -105 -131.001l-123 -125c-7.33301 7.33301 -17 11 -29 11c-7.33301 0 -32.333 -8 -75 -24c-11.333 -9.33301 -29 -22 -53 -38c-3.33301 -2 -9.5 -0.166992 -18.5 5.5
s-13.833 8.5 -14.5 8.5h-89c11.333 0 -9 8 -61 24c-18.667 1.33301 -45 6 -79 14c-21.333 15.333 -53.333 35 -96 59c-12.667 1.33301 -31.667 4.33301 -57 9c-9.33301 2.66699 -25 13 -47 31c-144.667 118.667 -220 320.667 -226 606l-11 538
c-6 148 -17.333 368.667 -34 662c-4.66699 64.667 -21.667 110.334 -51 137.001c-16.667 15.333 -36 26.333 -58 33l-57 16c-2 6.66699 -3 12.667 -3 18c0 21.333 13.667 29.333 41 24c62.667 -11.333 134 -17 214 -17h81c2 0 13.167 2.16699 33.5 6.5
s35.5 6.83301 45.5 7.5c38.667 -3.33301 96 -1 172 7c7.33301 -12 11 -22.667 11 -32c0 -15.333 -10.333 -26.333 -31 -33l-44 -10c-4 -5.33301 -11 -12.666 -21 -21.999c-6 -4 -14.333 -10.333 -25 -19c-13.333 -16 -21 -30.333 -23 -43c-8 -80 -21.333 -191.333 -40 -334
c0.666992 2.66699 5 -16 13 -56c0 -0.666992 -3.66699 -30.667 -11 -90c4 -19.333 2.33301 -64.666 -5 -135.999c-1.33301 -10.667 0 -30 4 -58c4.66699 -36.667 7.33398 -58.667 8.00098 -66c1.33301 -15.333 -0.333984 -65.666 -5.00098 -150.999
c0.666992 -5.33301 2.33398 -12.333 5.00098 -21c0 -6 -2.66699 -48 -8 -126c-2 -26 1.33301 -79.667 10 -161c4.66699 -9.33301 10 -23 16 -41c0.666992 -4 3 -42.667 7 -116c-1.33301 -14 -1.66602 -34.667 -0.999023 -62c3.33301 -12.667 8.33301 -30 15 -52
c2.66699 -8.66699 2.33398 -22.667 -0.999023 -42l40 -82c10 -24.667 29.333 -59 58 -103c72 -74 129 -115.667 171 -125c21.333 -4 46.333 -6 75 -6h160c44.667 0 93 36.333 145 109c50.667 69.333 82.334 140 95.001 212l24 230c6.66699 58 6.33398 137.667 -0.999023 239
l4 803c-4 56 -12.667 134 -26 234c-8 36 -38.333 64.333 -91 85l-50 14c-5.33301 11.333 -8 26.333 -8 45c-4 0 8.33301 2.33301 37 7c60 9.33301 117.333 6 172 -10c9.33301 3.33301 22.333 5.66602 39 6.99902c24 -6.66699 44 -10 60 -10c11.333 0 24 2 38 6
c18 4.66699 30.667 7.66699 38 9c2.66699 0.666992 8.33398 -0.333008 17.001 -3s15 -4 19 -4c8 0 46.333 4.66699 115 14z" />
    <glyph glyph-name="V" unicode="V" horiz-adv-x="1478" 
d="M1658 1590c-12.667 -8 -35 -14.3252 -67 -18.9922s-56.667 -12.334 -74 -23.001c-27.333 -18 -51 -49 -71 -93c-2 -15.333 -7.66699 -40 -17 -74l-90 -324l-55 -82c0 -6.66699 -1 -15.667 -3 -27c-10.667 -21.333 -18.667 -51.666 -24 -90.999
c-5.33301 -44.667 -10 -73 -14 -85c-22 -64 -44.333 -142.667 -67 -236c-15.333 -66.667 -36 -132 -62 -196c-10 -20 -23.333 -51.667 -40 -95c-2.66699 -20.667 -8.33398 -50 -17.001 -88c-36 -110 -86 -276.667 -150 -500c-2.66699 -22.667 -6.66699 -54 -12 -94
c-4.66699 -26.667 -17 -51.334 -37 -74.001c-8 -8.66699 -26 -14 -54 -16c-42.667 -3.33301 -68.334 1.66699 -77.001 15c0.666992 14.667 -0.333008 35 -3 61c-4.66699 10.667 -16.334 27.667 -35.001 51c-16 19.333 -24.333 36.666 -25 51.999c0 -2.66699 1 35.333 3 114
c2 55.333 -1.33301 91 -10 107c-8.66699 6.66699 -19 18 -31 34c-9.33301 26.667 -21.333 87.667 -36 183l-16 27c-8 23.333 -11.333 49 -10 77c8 6.66699 42.667 20.334 104 41.001c40.667 13.333 69.334 46 86.001 98c-19.333 14 -41 21 -65 21
c-16.667 0 -40.667 -4.5 -72 -13.5s-53.666 -13.5 -66.999 -13.5c-20.667 0 -38.334 6.66699 -53.001 20c2.66699 7.33301 4 15.333 4 24c0 21.333 -10.333 53.666 -31 96.999c-25.333 51.333 -40 85.333 -44 102c2.66699 18 4.66699 45 6 81c-8 6 -18 17.333 -30 34
c-2 21.333 -6.33301 50.666 -13 87.999c-16.667 35.333 -41 96 -73 182c-4 27.333 -13 70 -27 128l-30 75c-2 4 -16.333 55.667 -43 155c2 11.333 2.66699 29.666 2 54.999c-3.33301 12.667 -17.333 36.667 -42 72c-20 28 -28.333 53.333 -25 76
c-44.667 21.333 -103 55.333 -175 102c6.66699 16.667 42.667 33 108 49c5.33301 -4.66699 11.666 -11.334 18.999 -20.001c4.66699 -32 19.667 -48 45 -48c-4 0 17.333 4.66699 64 14c29.333 -5.33301 72 -4 128 4c24 11.333 46.667 18.666 68 21.999l57 8
c6 1.33301 33.333 -4 82 -16c38 -10 85.333 -0.333008 142 29c6 -4.66699 12.667 -13.667 20 -27c1.33301 -6.66699 2 -12.667 2 -18c0 -22 -14.667 -34.667 -44 -38c-47.333 -4.66699 -74.666 -8.66699 -81.999 -12c-29.333 -13.333 -44 -43 -44 -89
c0 -27.333 13 -96.666 39 -207.999c-1.33301 -28.667 -0.333008 -71.334 3 -128.001c2 -8.66699 10.667 -22 26 -40c17.333 -20 26.666 -31 27.999 -33c12 -23.333 20.333 -54.333 25 -93c6 -54 10 -84.333 12 -91l54 -209c2 -28 6 -68.667 12 -122
c11.333 -12 24.666 -30 39.999 -54c6 -14.667 10.667 -39 14 -73c4.66699 -44 7.33398 -69.333 8.00098 -76c8 -21.333 16.667 -53 26 -95c0 -22.667 2.66699 -56.334 8 -101.001c6 -26.667 22 -34.334 48 -23.001c16 6.66699 28.333 25 37 55
c4.66699 23.333 9.66699 46.666 15 69.999l50 108c2.66699 6 12 42 28 108c-2 14 -2.33301 34.333 -1 61c8.66699 22 18.667 55.667 30 101c2 25.333 8 59.333 18 102c13.333 10 29.666 30 48.999 60c-2 18.667 -2.66699 45.667 -2 81
c3.33301 23.333 12.333 50.666 27 81.999l32 68c0.666992 1.33301 6.33398 34.666 17.001 99.999c10.667 15.333 22.667 38 36 68c-4 14 -6.33301 34.333 -7 61c13.333 32.667 33 91.334 59 176.001c4 16 4 28.333 0 37c-11.333 32.667 -31 72 -59 118
c-11.333 9.33301 -27.666 16 -48.999 20c-27.333 4.66699 -44.666 8.33398 -51.999 11.001c1.33301 24 8.33301 36 21 36h410c2.66699 0 12.334 -2 29.001 -6c14.667 -3.33301 25.667 -4.33301 33 -3c8 4 21 9.33301 39 16c15.333 -9.33301 20 -32.666 14 -69.999z" />
    <glyph glyph-name="W" unicode="W" horiz-adv-x="1855" 
d="M2024 1444c2 -14 -13.9971 -27.668 -47.9971 -41.001c-46 -17.333 -70 -26.666 -72 -27.999c-35.333 -25.333 -60.666 -68.333 -75.999 -129c-18 -36.667 -38.667 -94 -62 -172c-3.33301 -26 -14.333 -59.667 -33 -101c-27.333 -60 -41.333 -91.333 -42 -94
c-0.666992 -10.667 -1.33398 -25.334 -2.00098 -44.001c-0.666992 -6 -1.66699 -11.333 -3 -16l-272 -845l-33 -119c-17.333 -47.333 -40.333 -71 -69 -71c-10 0 -21.333 3 -34 9c0 3.33301 2.33301 12.666 7 27.999c4 13.333 5.66699 24.333 5 33
c-1.33301 3.33301 -8.33301 10.333 -21 21c-9.33301 8 -14 19 -14 33c0 10 -1 24.667 -3 44c-12 26.667 -27.667 69 -47 127c-2 20 -3.66699 40 -5 60c-4 30.667 -14.667 55 -32 73c-1.33301 6 -3.33301 14.333 -6 25c4.66699 12.667 7 25.334 7 38.001
c0 22.667 -8.33301 46 -25 70l-46 56c8 10.667 18 25.667 30 45c-11.333 12 -23.333 29.333 -36 52c0 14 -1.33301 36.333 -4 67c-9.33301 16 -22.666 40.667 -39.999 74c-4 7.33301 -4.33301 20 -1 38c4.66699 25.333 7 42.666 7 51.999c-8 4.66699 -15.667 7 -23 7
c-16 0 -28 -9.66699 -36 -29l-57 -202c-2 -5.33301 -21 -53 -57 -143c-27.333 -68.667 -43.333 -123 -48 -163c-10 -24 -23.333 -61.667 -40 -113c-13.333 -60.667 -24.333 -106.667 -33 -138c-16 -56.667 -34.333 -103 -55 -139
c-20.667 -10.667 -43.334 -10.334 -68.001 0.999023c-14 30 -25.333 69.333 -34 118c-10 58 -18 95.667 -24 113c-10.667 34 -26.334 61.333 -47.001 82c8.66699 52.667 7 92.667 -5 120c-13.333 11.333 -31.666 31 -54.999 59c-0.666992 10.667 -1.66699 24.667 -3 42
c0 4.66699 -0.666992 8.33398 -2 11.001c-12.667 24.667 -28.667 62.334 -48 113.001c2 10 1.33301 25.333 -2 46l19 18c19.333 -16.667 48.333 -34.334 87 -53.001c3.33301 19.333 -4 39.333 -22 60c-20 24 -31 42 -33 54c-92.667 46.667 -139 97.334 -139 152.001
c0 12.667 2.66699 25.334 8 38.001c-12.667 18 -27.667 45 -45 81c-6 30.667 -17.333 75.334 -34 134.001c-11.333 12.667 -25 32.667 -41 60c2 18 3 45.667 3 83c-10 16 -25.667 43 -47 81l-33 69c-14.667 28 -31.334 48.667 -50.001 62
c-14.667 10.667 -52.334 21.334 -113.001 32.001c2 0 -3.33301 6.33301 -16 19c3.33301 6 9 13.667 17 23c34.667 4 95.334 0.666992 182.001 -10c13.333 -2 34.333 -0.333008 63 5c31.333 5.33301 47.666 8 48.999 8h230c4.66699 0 12.667 3.66699 24 11s19.333 11 24 11
c3.33301 -7.33301 5 -13.666 5 -18.999c0 -14.667 -18.667 -31.334 -56 -50.001s-56.333 -41.667 -57 -69c-2 -42 11 -89 39 -141c5.33301 -8.66699 8 -24.667 8 -48c0.666992 -27.333 2.33398 -46.333 5.00098 -57c7.33301 -30 38 -109.667 92 -239
c1.33301 -17.333 3 -42.333 5 -75c4.66699 -7.33301 10.667 -17.333 18 -30c-1.33301 -24 6.33398 -53 23.001 -87c22 -42.667 34.333 -68.667 37 -78l29 -121c14 -50.667 29.667 -91.667 47 -123c18 0 30 9.33301 36 28c33.333 102.667 60 199.667 80 291
c6.66699 6.66699 15 19 25 37c5.33301 30.667 17 76 35 136c26 58.667 39 101 39 127c0 14.667 -2.33301 28.667 -7 42l-127 366c-12 12 -36.667 27 -74 45c-32.667 16 -52 29.333 -58 40c19.333 3.33301 48.666 9 87.999 17c0 -15.333 2.33301 -24.666 7 -27.999
c16.667 -3.33301 35.334 -5 56.001 -5c24 0 56.667 3 98 9c56.667 8 92 12.667 106 14c10.667 1.33301 44.667 0.333008 102 -3c41.333 -2.66699 75.333 1.66602 102 12.999c4 -10 6 -18.333 6 -25c0 -12.667 -13.333 -22 -40 -28c-34.667 -7.33301 -59.667 -19 -75 -35
c-9.33301 -9.33301 -14 -26 -14 -50c0 -15.333 4.33301 -38.666 13 -69.999c10.667 -40.667 17 -67 19 -79c-3.33301 -20 -4 -49.667 -2 -89c15.333 -17.333 33.666 -42.333 54.999 -75c4 -28.667 10.333 -68.667 19 -120c0.666992 -0.666992 11.667 -37.334 33 -110.001
c14 -47.333 21 -83.666 21 -108.999c0 -7.33301 -0.333008 -14 -1 -20c12.667 -10.667 26 -25.667 40 -45c1.33301 -12 8 -53.333 20 -124c9.33301 -57.333 14 -100.666 14 -129.999c4.66699 -6 10.667 -12.667 18 -20c10.667 4.66699 23.334 14 38.001 28
c16.667 36 41.667 93.333 75 172c8.66699 55.333 22.667 132.333 42 231c1.33301 7.33301 17.333 27.666 48 60.999c1.33301 66.667 18.666 134 51.999 202c0.666992 15.333 4.66699 37.666 12 66.999c7.33301 7.33301 15.666 19.666 24.999 36.999c5.33301 32 18 82 38 150
c16.667 42 12 75.333 -14 100c-10 9.33301 -29 17.333 -57 24c-33.333 9.33301 -56.333 17 -69 23c14.667 22.667 51 30.667 109 24c1.33301 0 6.33301 -1.66699 15 -5s16 -5 22 -5c5.33301 0 16.166 2.66699 32.499 8s32.833 8.66602 49.5 9.99902
c9.33301 0.666992 24.333 -0.833008 45 -4.5s35.667 -5.5 45 -5.5c42 0 87.667 4 137 12zM419.003 599.999l-27 -18l-6 10l26 18z" />
    <glyph glyph-name="X" unicode="X" horiz-adv-x="1172" 
d="M1311 -507c-30 0 -48.8271 -1.50391 -56.4941 -4.50391s-16.834 -4.5 -27.501 -4.5c-12.667 0 -33.834 2.83301 -63.501 8.5s-50.5 8.5 -62.5 8.5h-120c-2 0 -9.66699 -1.33301 -23 -4s-20.666 -4 -21.999 -4h-66c-7.33301 0 -19.833 -1.33301 -37.5 -4
s-31.167 -3.66699 -40.5 -3c-14 2 -26 7.33301 -36 16c-2.66699 12.667 -1.66699 21 3 25c18 8 44.667 22.667 80 44c4.66699 4 21.667 25.333 51 64c4.66699 38.667 -0.333008 73.667 -15 105c-42 90 -94.333 195.667 -157 317c-13.333 30.667 -37 72 -71 124
c-2 1.33301 -4 2 -6 2c-6.66699 0 -15.334 -14.333 -26.001 -43l-24 -66l-85 -151c-2.66699 -18 -8 -41 -16 -69c-10 -17.333 -23.667 -45 -41 -83c-2.66699 0 -6 -0.666992 -10 -2c-3.33301 -11.333 -8.66602 -28 -15.999 -50l-42 -99
c-0.666992 -5.33301 -0.666992 -10.666 0 -15.999c1.33301 -12.667 6.83301 -24.667 16.5 -36s18.5 -17 26.5 -17c3.33301 -15.333 7.66602 -30 12.999 -44c-9.33301 -15.333 -16.333 -23 -21 -23h-89c-1.33301 0 -7.16602 1.66699 -17.499 5s-18.5 5.33301 -24.5 6
c-18 2.66699 -33.333 2 -46 -2l-181 -9c-2 0.666992 -7.16699 0 -15.5 -2s-14.5 -3 -18.5 -3c-17.333 0 -25 14.333 -23 43c7.33301 13.333 20 21.666 38 24.999c24.667 4 37.667 6.33301 39 7c15.333 8 37.333 22.333 66 43c27.333 25.333 57.666 60 90.999 104
c21.333 28 56 83 104 165c36.667 63.333 86.334 158.333 149.001 285c0 6 1.33301 14.667 4 26c22 46.667 43 94 63 142c-10 24.667 -90 191.667 -240 501c-11.333 28 -29.333 70 -54 126c-12.667 20.667 -31 52.334 -55 95.001c-0.666992 2 -1 7.33301 -1 16
c0 15.333 -9.66699 36.666 -29 63.999c-18 25.333 -34.5 43 -49.5 53s-29.5 17 -43.5 21c-8.66699 -0.666992 -21.667 0.333008 -39 3c-18.667 6 -28 21 -28 45c0 8 3.33301 14.333 10 19h473c2 0 6.66699 -6.33301 14 -19c-4 -18 -10 -28 -18 -30s-16 -3.66699 -24 -5
c-2.66699 -2.66699 -4.66699 -10 -6 -22c-6.66699 -8 -15 -23 -25 -45c-4.66699 -16 -4 -34 2 -54c8 -17.333 23 -57.666 45 -120.999c1.33301 -12 4.33301 -29.333 9 -52c2 -6 8.66699 -13.167 20 -21.5s20.666 -25.5 27.999 -51.5l14 -53
c4.66699 -4 10.334 -10.333 17.001 -19c20.667 -48 53 -118 97 -210c5.33301 2.66699 12.333 8.66699 21 18c52.667 107.333 120 253 202 437c9.33301 22 16.666 43.333 21.999 64c2 10.667 2 25.334 0 44.001c-3.33301 26 -5 41 -5 45
c-11.333 6.66699 -27.333 18.334 -48 35.001c-2.66699 9.33301 -7 23 -13 41c36 14.667 59.333 21 70 19c14.667 -2.66699 97.667 -5.33398 249 -8.00098c14 0 28 -0.333008 42 -1l27 4c9.33301 -1.33301 14.666 -11 15.999 -29c-24.667 -9.33301 -61 -24.666 -109 -45.999
c-10 -4.66699 -24 -17.667 -42 -39l-17 -40c-9.33301 -1.33301 -15 -3.66602 -17 -6.99902l-41 -77c-0.666992 -4 -1.33398 -11 -2.00098 -21c-4.66699 -3.33301 -9.66699 -10.333 -15 -21c-2 -11.333 -7.33301 -26 -16 -44c-6.66699 -3.33301 -16.334 -15 -29.001 -35
l-98 -234c-26 -55.333 -61.667 -140 -107 -254c82 -182 133.333 -294.333 154 -337c76 -160.667 148.667 -299 218 -415c19.333 -32.667 39.666 -55.667 60.999 -69l113 -55c2 -5.33301 3 -19 3 -41z" />
    <glyph glyph-name="Y" unicode="Y" horiz-adv-x="1294" 
d="M1467 1646c0 -7.33301 -0.666016 -18.6729 -1.99902 -34.0059c-25.333 -8 -61 -26.667 -107 -56c-26.667 -27.333 -61 -79.666 -103 -156.999c-18 -33.333 -38 -78.666 -60 -135.999c-35.333 -90.667 -54.333 -138.667 -57 -144c-5.33301 -7.33301 -13.333 -19 -24 -35
c-10.667 -19.333 -31.334 -74.666 -62.001 -165.999c-8.66699 -26.667 -23.667 -68.334 -45 -125.001c-18 -29.333 -43 -73 -75 -131c-9.33301 -20 -18.333 -65.333 -27 -136c-4.66699 -39.333 -5.66699 -100.666 -3 -183.999c-1.33301 -44.667 -1.33301 -117.667 0 -219
c0.666992 -43.333 1.33398 -108.333 2.00098 -195c0.666992 -104.667 8.66699 -186 24 -244c2.66699 -11.333 12 -30.666 28 -57.999c17.333 -30 31.333 -49.333 42 -58c19.333 -6 43.333 -20.667 72 -44c0 -25.333 -9 -38 -27 -38c-4 0 -9.83301 0.666992 -17.5 2
s-12.834 2 -15.501 2l-131 5c-54 0 -83 1.66699 -87 5c-22 -4 -65.333 -5.66699 -130 -5l-193 -5c-3.33301 6.66699 -8.33301 15.334 -15 26.001c0.666992 14.667 13 26.667 37 36c18.667 6 37.334 11.667 56.001 17c28.667 9.33301 56.334 41 83.001 95
c22 43.333 36.333 83.333 43 120c0.666992 2 4 12.667 10 32c4.66699 14 6.66699 27 6 39c-8.66699 9.33301 -18.334 27 -29.001 53c2.66699 39.333 4.66699 99 6 179c-4.66699 7.33301 -9.66699 19 -15 35c-3.33301 34 -5 105.333 -5 214c0 68.667 -4 130 -12 184l-38 82
l-49 89l-203 428c-40 64.667 -96.667 163.667 -170 297c-12 26.667 -32 63.667 -60 111c-12.667 15.333 -32 29.333 -58 42l-65 32c-1.33301 16 3.66699 24.667 15 26c17.333 1.33301 157 7.33301 419 18c26 -2 65.667 -3.33301 119 -4c4 -5.33301 6 -10.333 6 -15
c0 -5.33301 -10.667 -20.666 -32 -45.999s-32 -52.333 -32 -81c0 -46.667 13 -91 39 -133c4.66699 -22.667 14.667 -56.334 30 -101.001c72 -156 137 -284.667 195 -386c26 -45.333 46.333 -67.333 61 -66c2 -0.666992 4.33301 -1 7 -1c13.333 0 27.666 13.667 42.999 41
l37 74c5.33301 22.667 15.333 56 30 100c8 12 17.667 30 29 54c14.667 43.333 28.334 79 41.001 107c3.33301 16.667 8.66602 40.334 15.999 71.001c10 17.333 21.333 43 34 77c14 80.667 21 127.334 21 140.001c0 50.667 -15.333 89.334 -46 116.001
c-8.66699 4.66699 -22.667 16 -42 34c2 3.33301 5.66699 7.66602 11 12.999c49.333 4 149.666 -2.66699 300.999 -20c18 -2 47.333 2.16699 88 12.5s69.334 15.166 86.001 14.499z" />
    <glyph glyph-name="Z" unicode="Z" horiz-adv-x="1247" 
d="M1236 -118c0 0.666992 -0.336914 -10.3291 -1.00391 -32.9961c-1.33301 -19.333 -1.66602 -34 -0.999023 -44c2.66699 -31.333 -0.333008 -74 -9 -128c-0.666992 -1.33301 -4 -10.666 -10 -27.999c-4 -12.667 -4.66699 -22.667 -2 -30c14 -40.667 21 -67.667 21 -81
c0 -22.667 -13.333 -34 -40 -34h-1101c-30 8 -41.667 28.333 -35 61c6.66699 5.33301 15.334 13.666 26.001 24.999c12 29.333 26.667 70 44 122c8 34 34 97 78 189c40 83.333 60.667 139.333 62 168c11.333 18.667 27 46.667 47 84l117 250
c8.66699 38.667 30 97.334 64 176.001c0.666992 6.66699 3.33398 16 8.00098 28c17.333 4.66699 87 7 209 7c0.666992 5.33301 -4 11.666 -14 18.999c-32 22 -56.333 35 -73 39c-12 0 -29.667 1 -53 3c-12 1.33301 -21 8.33301 -27 21c14.667 20 32 49.333 52 88
c10 35.333 27.333 86 52 152c13.333 14 28.666 35 45.999 63c0.666992 18.667 5 45 13 79c18 26.667 43 69 75 127c4 27.333 13.333 69.666 28 126.999c4.66699 14.667 19.667 37.667 45 69c22.667 27.333 34 46.666 34 57.999c0 14.667 -13 25.334 -39 32.001h-122
c3.33301 0 -15 -2 -55 -6c-37.333 -3.33301 -65 -4.33301 -83 -3c-11.333 0.666992 -24.666 5.66699 -39.999 15c-1.33301 1.33301 -11.333 13.666 -30 36.999c-14 18.667 -27.333 26.667 -40 24c0 -4.66699 0.666992 -16 2 -34
c1.33301 -15.333 1.66602 -27.666 0.999023 -36.999c-12 -10.667 -24 -17 -36 -19c-26 -4 -57.5 -13.167 -94.5 -27.5s-65.833 -39.5 -86.5 -75.5c-46.667 -83.333 -70 -137.333 -70 -162c0 -5.33301 1.16699 -14 3.5 -26s3.5 -21 3.5 -27
c0 -13.333 -4.5 -25.166 -13.5 -35.499s-21.5 -15.5 -37.5 -15.5c-18 0 -30.333 8.66699 -37 26c-0.666992 1.33301 1.33301 21.333 6 60c8.66699 66 10.334 119.667 5.00098 161c-0.666992 5.33301 -3.83398 15.166 -9.50098 29.499s-8.5 25.166 -8.5 32.499
s3.66699 18.666 11 33.999s11.333 27.666 12 36.999c-3.33301 26 -2.33301 65.333 3 118c4 10 19 18 45 24c27.333 6.66699 63.333 5.66699 108 -3l861 5c12.667 3.33301 25.667 2.16602 39 -3.50098s21 -15.167 23 -28.5c4 -34.667 1.66699 -66 -7 -94
c-12 -36 -26.667 -67 -44 -93c-12.667 -12.667 -28 -32.334 -46 -59.001c-1.33301 -4 -4 -25 -8 -63c-6 -8.66699 -14.667 -23.334 -26 -44.001c-11.333 -37.333 -28.666 -89.666 -51.999 -156.999c-19.333 -25.333 -44.666 -64.333 -75.999 -117
c-2.66699 -18.667 -8.66699 -46 -18 -82s-29.666 -82.333 -60.999 -139c-34 -62.667 -53.333 -100 -58 -112l-109 -216c0.666992 -10.667 0.333984 -25 -0.999023 -43c-10.667 -14.667 -24.334 -36 -41.001 -64c-2 -13.333 -6.33301 -33 -13 -59
c-7.33301 -11.333 -16 -27.666 -26 -48.999c-4.66699 -21.333 -14 -54 -28 -98c-14.667 -22.667 -35 -60 -61 -112c-16 -48 -47 -121.667 -93 -221c-8 -24 -24.667 -61 -50 -111c13.333 -12.667 30 -20 50 -22h81h131c4 0 10.167 1.16699 18.5 3.5s13.5 3.83301 15.5 4.5
c20.667 0 53.334 1 98.001 3c14.667 5.33301 37.334 12.333 68.001 21c14 0.666992 37 3.33398 69 8.00098c37.333 8 78.666 40 123.999 96c5.33301 12 14.333 30 27 54c18 24 39.667 62.667 65 116c-0.666992 31.333 3.66602 77.333 12.999 138
c5.33301 12.667 15.666 19 30.999 19c28.667 0 45.667 -11.667 51 -35v-182z" />
    <glyph glyph-name="bracketleft" unicode="[" horiz-adv-x="842" 
d="M344 1321h352v-64h-280v-1783h280v-66h-352v1913z" />
    <glyph glyph-name="backslash" unicode="\" horiz-adv-x="676" 
d="M0 1249h78l616 -1439h-78z" />
    <glyph glyph-name="bracketright" unicode="]" horiz-adv-x="842" 
d="M145 1321h353v-1913h-353v64h281v1783h-281v66z" />
    <glyph glyph-name="asciicircum" unicode="^" horiz-adv-x="2048" 
d="M934 1462h178l520 -565h-92l-518 436l-520 -436h-90z" />
    <glyph glyph-name="underscore" unicode="_" horiz-adv-x="1024" 
d="M0 -365h1024v-118h-1024v118z" />
    <glyph glyph-name="grave" unicode="`" horiz-adv-x="1024" 
d="M401 1163l256 -305h-59l-283 217c-40.667 31.333 -61 58 -61 80c0 42.667 20.333 64 61 64c26 0 54.667 -18.667 86 -56z" />
    <glyph glyph-name="a" unicode="a" horiz-adv-x="1208" 
d="M1217 -7c-12 -5.33301 -29.6689 -7 -53.002 -5c-38.667 3.33301 -56.667 5 -54 5h-80c-96.667 0 -172 -5 -226 -15c-30 -5.33301 -50 -2.33301 -60 9c-1.33301 20 -0.333008 37 3 51c13.333 1.33301 32 6 56 14c10 6 17.667 16 23 30s6.33301 25 3 33l-40 174
c-1.33301 4.66699 -8.66602 23.667 -21.999 57c-10.667 26.667 -16 47 -16 61c-0.666992 4 -5 6 -13 6c-11.333 0 -66 -2.66699 -164 -8l-211 -3c-15.333 0.666992 -29.666 -13.333 -42.999 -42c-6.66699 -14.667 -16 -36.334 -28 -65.001
c-15.333 -46.667 -22.666 -74.334 -21.999 -83.001c0 4.66699 -3.33301 -15.333 -10 -60c-4.66699 -31.333 -4.66699 -52.666 0 -63.999c2.66699 -6.66699 12.834 -17.334 30.501 -32.001s32.834 -24.334 45.501 -29.001c3.33301 -1.33301 8.66602 -3 15.999 -5
c5.33301 -9.33301 9.66602 -16.666 12.999 -21.999c-14 -4 -33.333 -8.33301 -58 -13c-38.667 3.33301 -94.334 6 -167.001 8c-15.333 -4.66699 -39 -9.33398 -71 -14.001c-1.33301 0 -25.666 3 -72.999 9c-1.33301 3.33301 -2 6.33301 -2 9c0 8 10 19.333 30 34
c7.33301 10 19.666 23 36.999 39c15.333 10 28.666 27.167 39.999 51.5l52 113.5l45 145c13.333 30.667 30.333 77.334 51 140.001l67 205c2.66699 2.66699 6 6.66699 10 12c2 -10.667 4.66699 -16 8 -16c4.66699 0 10.667 14.333 18 43c6.66699 26 10 44.667 10 56
c0 2 -0.333008 3 -1 3c-1.33301 -2 -3.66602 -8 -6.99902 -18c0 6.66699 0.666992 16 2 28l45 124c4.66699 26 19 64.667 43 116l15 52c6 20 17.667 50 35 90c2 8.66699 7 21 15 37c4 4.66699 19.667 6 47 4c26 -0.666992 65.333 -3 118 -7
c17.333 -50 48.333 -129.667 93 -239c1.33301 -12.667 5 -31.334 11 -56.001c10.667 -31.333 24.667 -60.333 42 -87c-3.33301 -4.66699 -0.666016 -22 8.00098 -52l47 -106c14 -46 35.667 -110 65 -192c2 -18.667 8.33301 -45.334 19 -80.001
c0 -5.33301 1.66699 -13.666 5 -24.999c8 -17.333 22.333 -50.666 43 -99.999c7.33301 -10.667 17.333 -27 30 -49c-0.666992 -5.33301 0 -12.666 2 -21.999c9.33301 -27.333 23.666 -65.666 42.999 -114.999c6.66699 -11.333 18 -32 34 -62c4 -8 23 -18.333 57 -31l44 -15
v-27zM702.998 517c-0.666992 0.666992 -24.999 66.999 -72.999 198.999l-37 119c-8 16 -18.667 39 -32 69c-4 14 -11 34 -21 60c-24 -54.667 -50.667 -110 -80 -166c-4 -4 -8.66699 -10.333 -14 -19c-2 -10 -5.66699 -25.333 -11 -46
c-4.66699 -9.33301 -10.334 -22.666 -17.001 -39.999c-0.666992 -11.333 -2.33398 -26 -5.00098 -44c-4.66699 -6.66699 -10 -16 -16 -28c-3.33301 -15.333 -8.33301 -37 -15 -65c-3.33301 -5.33301 -7.66602 -12.666 -12.999 -21.999c1.33301 7.33301 2 1.66602 2 -17.001
h332z" />
    <glyph glyph-name="b" unicode="b" horiz-adv-x="1120" 
d="M1043 464c4.66699 -26 -0.325195 -91 -14.9922 -195c-4.66699 -32.667 -28.667 -75.667 -72 -129c-42 -50.667 -77.667 -82.667 -107 -96c-46.667 -22 -92.334 -37.333 -137.001 -46c-16.667 -3.33301 -66.334 -5 -149.001 -5h-426c-10 0 -21.667 3 -35 9
c0 2 -0.833008 5.83301 -2.5 11.5s-2.5 9.83398 -2.5 12.501c34 9.33301 54.667 16 62 20c24 11.333 43.333 30 58 56c6.66699 12 11.334 42.333 14.001 91c0 7.33301 2.33301 27.666 7 60.999c4 30 6 52.667 6 68c0 88.667 0.666992 136.667 2 144s7.33301 19 18 35
c-4.66699 4.66699 -10.667 13.334 -18 26.001c-3.33301 12 -5 29 -5 51v98c0 2 -1 12.333 -3 31c1.33301 -7.33301 4.66602 35.667 9.99902 129c-1.33301 1.33301 -3.33301 3.66602 -6 6.99902c-6.66699 26 -6 59.333 2 100c2 12.667 -2.33301 52 -13 118
c-0.666992 20.667 -6.33398 48.334 -17.001 83.001c-14 16.667 -32.667 27.667 -56 33l-57 12c0 37.333 -1 45.333 -3 24c1.33301 10 7.66602 15.333 18.999 16c26.667 1.33301 69.334 4.66602 128.001 9.99902c53.333 4.66699 80.666 7 81.999 7h118
c15.333 0 44 2.66699 86 8c29.333 4 66.666 3.33301 111.999 -2c4 -0.666992 42.333 -9.66699 115 -27c38 -9.33301 74 -34.166 108 -74.499s53.667 -78.833 59 -115.5c3.33301 -21.333 5 -42 5 -62c0 -100 -44.333 -188.667 -133 -266
c1.33301 -0.666992 3.66602 -2.33398 6.99902 -5.00098c49.333 2.66699 102.666 -24.333 159.999 -81c41.333 -40.667 67.666 -93 78.999 -157zM873.008 979c-30 -2.66699 -70.667 1.33691 -122 12.0039c-14 8.66699 -25.667 24.667 -35 48l-23 57
c-6.66699 12.667 -21 26.667 -43 42s-40.667 24 -56 26c-70.667 10 -113 8.33301 -127 -5c-2.66699 -48.667 -7.66699 -122 -15 -220c-0.666992 -2.66699 0.666016 -6.33398 3.99902 -11.001s5 -7.33398 5 -8.00098c0 -1.33301 -3 -26.666 -9 -75.999
c-4 -30.667 -3 -70.334 3 -119.001c22.667 -8 34.667 -11.667 36 -11c82.667 3.33301 137.334 9.66602 164.001 18.999c63.333 21.333 95 84.333 95 189c0 12.667 -0.333008 24.667 -1 36c2.66699 3.33301 5.66699 6 9 8c30.667 1.33301 69 5.66602 115 12.999z
M834.008 376.004c-0.666992 8.66699 -17.665 50.666 -50.998 125.999c-6.66699 14 -16.667 32 -30 54c-34 36 -70.667 59 -110 69c-28.667 8 -72 10.667 -130 8c-24.667 -1.33301 -45.334 -5.66602 -62.001 -12.999c-4 -33.333 -8 -74 -12 -122
c-0.666992 -32.667 0 -67.667 2 -105c2 -50 3 -76 3 -78c1.33301 -57.333 10.333 -126 27 -206c1.33301 -7.33301 11.666 -19 30.999 -35c38.667 0 77.667 -0.333008 117 -1c44 0.666992 80.333 13 109 37c20 15.333 42.667 36.333 68 63c29.333 65.333 42 133 38 203z" />
    <glyph glyph-name="c" unicode="c" horiz-adv-x="1344" 
d="M1201 1226c-1.33301 -20 -5.66895 -56.998 -13.002 -110.998c-6 -42.667 -9 -76 -9 -100c0 -22 2 -42.667 6 -62c-8.66699 -7.33301 -13 -16.333 -13 -27c0 -4.66699 1.33301 -12.5 4 -23.5s3.33398 -19.5 2.00098 -25.5c-6 -8.66699 -15.667 -14.334 -29 -17.001
c-14 -3.33301 -25 -1.33301 -33 6c5.33301 20.667 8 41 8 61c0 0.666992 -2.33301 8 -7 22c0 9.33301 -2 22 -6 38c-20.667 32 -31.334 48.667 -32.001 50c-14.667 20 -29.667 35.333 -45 46c-42.667 28.667 -88 48 -136 58c-30.667 7.33301 -43 11 -37 11h-162
c-25.333 -5.33301 -63 -14.666 -113 -27.999c-57.333 -18 -111 -52.667 -161 -104c-7.33301 -7.33301 -23 -34.666 -47 -81.999c-34 -68.667 -51 -124.334 -51 -167.001c0 -6.66699 0.666992 -12.334 2 -17.001c-1.33301 5.33301 -3 -2.33398 -5 -23.001
c-4 -49.333 -5.33301 -80.666 -4 -93.999c0.666992 -0.666992 1.83398 -3.33398 3.50098 -8.00098s2.5 -8.33398 2.5 -11.001c-1.33301 -16 2.33398 -55 11.001 -117c0 -14.667 2 -37.334 6 -68.001c5.33301 -7.33301 12 -18.333 20 -33c2 -9.33301 5.33301 -22 10 -38
c12 -14 27.667 -35.333 47 -64c20 -42.667 40.333 -72.334 61 -89.001c21.333 -13.333 51.666 -34 90.999 -62c3.33301 -8.66699 9.33301 -20.667 18 -36c5.33301 -0.666992 13.833 0.333008 25.5 3s20.5 4 26.5 4s22.5 -2.83301 49.5 -8.5s47.167 -8.83398 60.5 -9.50098
c46.667 -2.66699 99.334 1.33301 158.001 12c14.667 2.66699 37.334 6 68.001 10c56.667 9.33301 106 55.333 148 138c0.666992 1.33301 2.66699 15 6 41c2.66699 8 5.66699 19.333 9 34c0.666992 16.667 2.33398 42 5.00098 76c5.33301 2 9.66602 3 12.999 3
c19.333 0 29.666 -22.667 30.999 -68c2 -70 -1 -138 -9 -204c-0.666992 -20.667 -6.66699 -48.667 -18 -84c-5.33301 -7.33301 -25.333 -15.666 -60 -24.999c-52 -13.333 -90.5 -21.666 -115.5 -24.999s-62.167 -8 -111.5 -14c-116 -13.333 -213 -7.66602 -291 17.001
c-6.66699 0 -15.667 0.666992 -27 2c-8.66699 4.66699 -21 10.334 -37 17.001c-72.667 19.333 -145.667 61 -219 125c-76.667 68 -126.667 137.667 -150 209l-24 53c0 5.33301 -0.666992 13 -2 23c-6 10 -13 25 -21 45c-3.33301 16.667 -7 40.667 -11 72
c-0.666992 18.667 0.666016 63 3.99902 133c0.666992 16 14.334 82.667 41.001 200l43 72c15.333 26 27 44.333 35 55c16 23.333 29.333 36.666 40 39.999c14.667 -1.33301 24.334 0.333984 29.001 5.00098l132 130c4.66699 -1.33301 11.334 -2 20.001 -2
c7.33301 7.33301 18.666 15.333 33.999 24c7.33301 -2 18.666 -3.66699 33.999 -5c36.667 10.667 90.667 23.667 162 39c27.333 4 60.333 6 99 6h128l159 -14c37.333 0.666992 86.333 -4 147 -14z" />
    <glyph glyph-name="d" unicode="d" horiz-adv-x="1503" 
d="M1330 720c4 -34 0.668945 -94 -9.99805 -180l-29 -117c-27.333 -113.333 -77 -203.666 -149 -270.999c-28 -26 -64 -52 -108 -78c-52 -31.333 -94 -48.333 -126 -51c-4 -2.66699 -10.667 -5.66699 -20 -9c-98.667 -14.667 -146.334 -22 -143.001 -22h-651
c-5.33301 23.333 -3.66602 38 5.00098 44c28 10 47.333 15 58 15l17 22c31.333 32.667 47 68.667 47 108c0 0.666992 -2 9 -6 25c2.66699 6.66699 4.66699 16.334 6 29.001c-2.66699 5.33301 -6 13.666 -10 24.999c-0.666992 4 0.666016 11.5 3.99902 22.5
s5.33301 19.167 6 24.5c1.33301 25.333 2 65.333 2 120v113c-0.666992 76.667 0 188 2 334c0 2 -1.66699 6.5 -5 13.5s-5 12.167 -5 15.5c0 10.667 1.66699 27.167 5 49.5s5 39.166 5 50.499c0 2.66699 -2 7.66699 -6 15s-6.66699 13.333 -8 18
c0.666992 12.667 -0.333008 32 -3 58c-11.333 44.667 -28.333 73 -51 85c-18.667 9.33301 -50.667 17.333 -96 24c-0.666992 4 -1 12.667 -1 26c28.667 14 57.334 18 86.001 12l7 -5.5c4.66699 -3.66699 8.66699 -5.16699 12 -4.5l17 10l66 2
c24 -0.666992 42.667 -10.667 56 -30c2 0 4.33301 0.333008 7 1c6 10 16 23 30 39c16 -2.66699 38.333 -6 67 -10c1.33301 -0.666992 4.16602 1.33301 8.49902 6s8.16602 7.66699 11.499 9c20.667 6.66699 51.667 10 93 10h254c110 -24.667 187.667 -47 233 -67
c86 -37.333 156.667 -94.666 212 -171.999c11.333 -14.667 27 -38.334 47 -71.001c29.333 -58 50.333 -137.333 63 -238zM1285 721c-81.333 5.33301 -138.666 7.33594 -171.999 6.00293c-5.33301 2.66699 -7.33301 14 -6 34c-12 29.333 -31 71.333 -57 126
c-35.333 72 -74.333 129.167 -117 171.5s-112 72.166 -208 89.499c-43.333 7.33301 -63 11 -59 11h-103c-2.66699 0 -21 -3.16699 -55 -9.5s-56.667 -10.166 -68 -11.499c-9.33301 -46.667 -13 -97.334 -11 -152.001c1.33301 -26 2 -79 2 -159v-395
c0 0.666992 -1 -10.666 -3 -33.999c-1.33301 -20.667 -1.33301 -36 0 -46c3.33301 -38.667 5 -55.334 5 -50.001c-2 -26.667 -2.33301 -49 -1 -67c0 -4 2 -13 6 -27c3.33301 -11.333 4.66602 -20 3.99902 -26c-0.666992 -0.666992 -11.667 -5 -33 -13
c-15.333 -6.66699 -24.666 -15.334 -27.999 -26.001c11.333 -10 26.333 -16 45 -18c13.333 -0.666992 26.666 -1 39.999 -1c134 -15.333 211.667 -23 233 -23c63.333 0 119.333 9.66699 168 29c42.667 17.333 77.667 40 105 68c58.667 59.333 97.667 133 117 221
c9.33301 42.667 16 113.667 20 213c0 8 -6 19.333 -18 34c-1.33301 9.33301 0.666992 14.666 6 15.999c10 3.33301 30.667 7 62 11c27.333 2.66699 66.333 7 117 13c6 4.66699 9 9.66699 9 15z" />
    <glyph glyph-name="e" unicode="e" horiz-adv-x="1059" 
d="M1081 319c-2 -34.667 -6.33398 -83.668 -13.001 -147.001c-8 -17.333 -18 -41.666 -30 -72.999c-2.66699 -13.333 -7.66699 -32 -15 -56c-2.66699 -7.33301 -11.334 -19.666 -26.001 -36.999c-17.333 -21.333 -31.333 -32 -42 -32h-255c-4.66699 0 -34.667 1 -90 3
s-85.333 3 -90 3h-154c-4 0 -24.5 1.83301 -61.5 5.5s-57.833 5.5 -62.5 5.5h-151l-13 14c7.33301 9.33301 36.333 29.333 87 60c34.667 22 52 48.667 52 80v316c0 51.333 8 120.333 24 207c-8.66699 26.667 -10.334 60 -5.00098 100c-12 10 -18 24 -18 42
c0 1.33301 6.66699 28.666 20 81.999c0.666992 4.66699 -2.66602 14 -9.99902 28c-9.33301 16.667 -14.333 25.334 -15 26.001c-4.66699 14 -6.66699 36 -6 66v68c-2 22.667 -6.66699 41 -14 55c-10 19.333 -26.333 34.666 -49 45.999l-60 27
c9.33301 22 19.333 33.667 30 35c20.667 -2.66699 50.334 -3.33398 89.001 -2.00098c42.667 10 63.334 15 62.001 15h177c2.66699 0 22.834 -2.33301 60.501 -7s66.167 -7.33398 85.5 -8.00098c8 0 74.667 4.33301 200 13c28.667 2 103.667 0 225 -6
c10.667 -7.33301 16 -16.333 16 -27c0 -6 -2.16699 -14.667 -6.5 -26s-6.5 -19.666 -6.5 -24.999c-0.666992 -22 -7.66699 -94.667 -21 -218c-2 -4 -11.667 -10.333 -29 -19c-4 6.66699 -16.333 42.334 -37 107.001c-13.333 42 -38 65 -74 69l-45 10
c-20.667 4.66699 -36.667 5.33398 -48 2.00098c-29.333 -8.66699 -93 -9.66699 -191 -3c-54 4 -94.667 3 -122 -3c-8 -2 -13.333 -9.66699 -16 -23c24 -78 25 -147 3 -207c1.33301 4 2 -12.667 2 -50c0 -9.33301 -1.66699 -28.666 -5 -57.999
c-3.33301 -24 -4 -43.333 -2 -58c0.666992 -6.66699 7 -15.334 19 -26.001h377l35 12c18.667 6.66699 31.667 17 39 31c6.66699 17.333 19 41.333 37 72c21.333 0 35 -7.33301 41 -22c-2.66699 -38 -5.33398 -86.667 -8.00098 -146
c-0.666992 -39.333 -5.33398 -97 -14.001 -173c-2.66699 -11.333 -16 -15 -40 -11c-8.66699 16 -24 37 -46 63c-40.667 30.667 -77.667 46 -111 46h-138c-8.66699 0 -25.667 1.66699 -51 5s-44.333 5 -57 5c-35.333 0 -57.666 -10.333 -66.999 -31
c-10.667 -23.333 -16 -41.333 -16 -54c0 -12 2.33301 -34.667 7 -68s6.66699 -59 6 -77c-0.666992 -9.33301 -3.83398 -26.833 -9.50098 -52.5s-8.5 -45.834 -8.5 -60.501c0 -11.333 1.33301 -21.666 4 -30.999c4.66699 -16 22.834 -35.333 54.501 -58
s58.834 -35.667 81.501 -39l10 -4c6.66699 -2 12.667 -3 18 -3h166c37.333 0 68.666 6 93.999 18c35.333 16 69.666 42.667 102.999 80c36.667 41.333 56.334 80.666 59.001 117.999c17.333 11.333 39 13.333 65 6z" />
    <glyph glyph-name="f" unicode="f" horiz-adv-x="1039" 
d="M1002 1242c6 -31.333 4.00098 -119.663 -5.99902 -264.996c-0.666992 -11.333 -9.33398 -24.666 -26.001 -39.999c-2.66699 -0.666992 -13.667 -1 -33 -1c-4 47.333 -9 80.666 -15 99.999c-12.667 39.333 -34.5 63.5 -65.5 72.5s-98.5 13.5 -202.5 13.5h-174
c-32.667 0 -49 -31.667 -49 -95c0 8 3.33301 -27 10 -105c1.33301 -16.667 -1 -44 -7 -82c-6.66699 -42 -10 -72.667 -10 -92c0 -30 5.33301 -55 16 -75h132c2.66699 0 13.5 -1.83301 32.5 -5.5s30.833 -5.5 35.5 -5.5h128c48 0 89.667 25 125 75
c2.66699 10 7.33398 24 14.001 42c7.33301 6 22 8.66699 44 8c3.33301 -20.667 6.33301 -50.667 9 -90c-2 -48 -10 -143 -24 -285c-2 -18.667 -19 -26.667 -51 -24l-18 82c-10.667 34 -30 55.333 -58 64c-16.667 4.66699 -58 7 -124 7h-148
c-6.66699 -4 -22.667 -5.33301 -48 -4c-22.667 1.33301 -38.334 -4 -47.001 -16c0.666992 -16 -0.333008 -39.667 -3 -71c-0.666992 -6 -5.66699 -26 -15 -60c-7.33301 -24.667 -10.333 -44.667 -9 -60c4.66699 -8.66699 9.33398 -21.334 14.001 -38.001
c0 -12 -1.16699 -30.333 -3.5 -55s-3.5 -43 -3.5 -55c0 -52 18 -92.667 54 -122c0.666992 -0.666992 50 -20 148 -58c-12.667 -15.333 -29.334 -23.333 -50.001 -24c40 0.666992 20.667 2 -58 4c-61.333 1.33301 -137.666 4.66602 -228.999 9.99902
c-48.667 2 -80.334 1.66699 -95.001 -1c-8.66699 -5.33301 -20.667 -11.333 -36 -18c0.666992 0 -24.333 5.33301 -75 16c4 12 19.667 27.667 47 47s43.666 33.666 48.999 42.999c24.667 46.667 37 90.334 37 131.001v240c0 -0.666992 -0.833008 22.5 -2.5 69.5
s-2.5 82.5 -2.5 106.5c0 -3.33301 0.666992 8.33398 2 35.001c1.33301 18.667 1 34.667 -1 48c-2 19.333 -7 35.666 -15 48.999c23.333 33.333 35 72.666 35 117.999s-11.667 97 -35 155c0 12 -0.666992 28 -2 48c-0.666992 11.333 -2.66699 20.666 -6 27.999
c-13.333 28 -33 54.333 -59 79c-7.33301 7.33301 -24.333 12.333 -51 15c-5.33301 7.33301 -7.33301 21 -6 41c-3.33301 0 42.334 1 137.001 3c147.333 2 372 4.33301 674 7c30 0 70 -3.33301 120 -10z" />
    <glyph glyph-name="g" unicode="g" horiz-adv-x="1186" 
d="M1208 1240c1.33301 -5.33301 1.99805 -11.3291 1.99805 -17.9961c0 -14.667 -3.16699 -40.334 -9.5 -77.001s-9.5 -64 -9.5 -82c0 -9.33301 0.333008 -18 1 -26c-3.33301 -12 -6.33301 -28.667 -9 -50c5.33301 -26.667 8.33301 -37 9 -31c-2 -4 -5 -9 -9 -15
c0 -6.66699 2 -25.667 6 -57c-16.667 -16 -31.667 -24 -45 -24c-5.33301 0 -11.333 4 -18 12c6 39.333 8 63.666 6 72.999c-2 10.667 -6 25.667 -12 45c-13.333 29.333 -38 61.666 -74 96.999c-14 13.333 -46.667 31 -98 53c-6 2.66699 -27.667 7.33398 -65 14.001
c-24 4 -59.333 6 -106 6c-132 0 -235.667 -35 -311 -105c-9.33301 -4.66699 -22.666 -15 -39.999 -31c-58 -80 -91 -158.333 -99 -235c-3.33301 -32 -5 -84.667 -5 -158v-66c0 4 4.66699 -13.667 14 -53c0.666992 -20.667 4 -48.667 10 -84
c4 -3.33301 10.667 -13.333 20 -30c0.666992 -8.66699 3 -20 7 -34l43 -57c2.66699 -8 7.33398 -19.333 14.001 -34c30 -54.667 76.333 -100 139 -136c28 -16 55.667 -27.333 83 -34c131.333 -30.667 215.666 -46 252.999 -46c17.333 0 34.333 2 51 6
c8 1.33301 19.667 5.33301 35 12l5 39c0 9.33301 -4.33301 15.666 -13 18.999c-12 4 -20 9.33301 -24 16c-6.66699 10.667 -7 31.334 -1 62.001v159c-4 38.667 -9.66699 69 -17 91c-4 3.33301 -9.33301 9.66602 -16 18.999c-11.333 35.333 -35.666 58 -72.999 68
c-15.333 4 -48 6.66699 -98 8c-2 1.33301 -5 3.66602 -9 6.99902v26c16.667 5.33301 44 8 82 8c2.66699 0 26 -1.83301 70 -5.5s67.333 -5.5 70 -5.5c3.33301 0 9 1.5 17 4.5s14 4.83301 18 5.5c40.667 3.33301 63.334 5 68.001 5c94 0 134 -0.333008 120 -1v-43
c0 -2 -3 -9 -9 -21c-7.33301 -14 -11.666 -23.667 -12.999 -29c-11.333 -46 -18 -92.667 -20 -140c-2.66699 -60 -4 -101.333 -4 -124c0 -46 5 -109.333 15 -190c-30.667 -16 -111 -37.333 -241 -64c-10.667 0.666992 -27 0 -49 -2c-30 -6.66699 -51 -10 -63 -10
c-3.33301 0 -8.33301 1 -15 3s-11.334 3 -14.001 3c-68.667 3.33301 -125.667 9 -171 17c-17.333 6.66699 -43 15 -77 25c-67.333 13.333 -141.666 56 -222.999 128c-84.667 75.333 -136.667 147.666 -156 216.999c-6 15.333 -13.667 38.333 -23 69
c-5.33301 10 -12.333 25 -21 45c-8 32.667 -12 60.334 -12 83.001c0 -2 1.66699 10.333 5 37c3.33301 22.667 3.66602 38.667 0.999023 48c-2.66699 10.667 -4 22 -4 34c0 22.667 5.66699 55 17 97c13.333 52 21.333 87 24 105c65.333 118 105 177 119 177
c2.66699 0 4.66699 -1.16699 6 -3.5s3.66602 -3.5 6.99902 -3.5c11.333 0 20.333 2.66699 27 8c2.66699 8 8 19 16 33c62 68.667 99.667 103 113 103c3.33301 0 5.66602 -0.666992 6.99902 -2s3.33301 -2 6 -2s9.83398 4.5 21.501 13.5s19.167 13.5 22.5 13.5
c2.66699 0 6.5 -1.33301 11.5 -4s8.83301 -4 11.5 -4c3.33301 0 33 7 89 21s85.667 21 89 21h257c3.33301 0 34 -3.16699 92 -9.5s88.667 -9.5 92 -9.5h35.5h48.5z" />
    <glyph glyph-name="h" unicode="h" horiz-adv-x="1496" 
d="M1424 1236c0 -7.33301 -4.00098 -14.0039 -12.001 -20.0039c-28 -7.33301 -52 -17.333 -72 -30c-11.333 -7.33301 -24.833 -22.666 -40.5 -45.999s-23.5 -41 -23.5 -53c0 -60 0.666992 -83.667 2 -71c-5.33301 -16 -11.333 -39.333 -18 -70c0 -8 4.33301 -42.333 13 -103
c2.66699 -20.667 4 -47.667 4 -81c0 -39.333 -2.16699 -87.166 -6.5 -143.499s-6.5 -82.5 -6.5 -78.5v-148c0 -150.667 17.667 -255 53 -313c6.66699 -11.333 21.334 -23 44.001 -35s42 -18.667 58 -20c-4 -6.66699 -11.333 -16.667 -22 -30h-467c0 4 -1 10.167 -3 18.5
s-3 14.166 -3 17.499l63 30c20.667 10 40 40.667 58 92c15.333 44.667 23 79.667 23 105v146c0 10 -2.33301 37.333 -7 82c-3.33301 34 -3.33301 61.333 0 82c2.66699 15.333 -3 41.333 -17 78c-32.667 -24 -82 -42 -148 -54c-34.667 -6.66699 -64.667 -8 -90 -4
c-34.667 6 -53 9 -55 9h-252c-15.333 -8.66699 -35 -24.667 -59 -48c-10 -16 -13.333 -38.667 -10 -68c5.33301 -11.333 11.333 -27.666 18 -48.999c-2 9.33301 -4.33301 -9 -7 -55c-0.666992 -3.33301 1.66602 -55.666 6.99902 -156.999
c5.33301 -109.333 43 -170.666 113 -183.999c2.66699 -0.666992 17 -6 43 -16c-22.667 -24.667 -48.334 -37 -77.001 -37c-8 0 -17.667 1 -29 3c-13.333 2 -21.666 3 -24.999 3l-394 6c0.666992 12 16 24 46 36c35.333 14.667 62.333 36.334 81 65.001
c14 22 23.333 63.333 28 124c5.33301 63.333 6 117.333 2 162c-2.66699 5.33301 -6.66699 12.666 -12 21.999c-0.666992 51.333 2.33301 127.666 9 228.999c0.666992 3.33301 4.33398 14 11.001 32c6 15.333 8.66699 28 8 38c-7.33301 11.333 -16.666 31 -27.999 59
c2 -8 4.33301 14 7 66c0.666992 10.667 -0.5 26.334 -3.5 47.001s-4.5 32.334 -4.5 35.001v161c0 21.333 -15 47 -45 77s-59.667 49.667 -89 59c0.666992 1.33301 8 12.666 22 33.999c24 0.666992 61.333 3 112 7c48 4 73 6 75 6h190c8.66699 0 17.667 1 27 3
s15.666 3 18.999 3c13.333 0 36.666 -13 69.999 -39l-70 -35c-28.667 -15.333 -49.667 -32.333 -63 -51c-21.333 -29.333 -32 -84.333 -32 -165v-214c0 -4 1 -8.33301 3 -13s3 -8.33398 3 -11.001c31.333 -14 58 -21 80 -21h397c14 -2 34.667 -6.33301 62 -13
c0.666992 0 9.66699 -4 27 -12c13.333 -6 23.666 -9 30.999 -9c4.66699 0 8.66699 0.666992 12 2c21.333 25.333 32 56 32 92c0 18 -3.66699 44 -11 78s-10.666 57.667 -9.99902 71c0 10.667 -2 31.667 -6 63c-4.66699 36.667 -7.33398 62.667 -8.00098 78
c-3.33301 64.667 -52.666 122.334 -147.999 173.001c12.667 13.333 22.334 20 29.001 20h149c-8.66699 0 19 0.666992 83 2c56 2 99 2.33301 129 1z" />
    <glyph glyph-name="i" unicode="i" horiz-adv-x="630" 
d="M592 1142c-2.66699 -10 -6.99707 -24.002 -12.9971 -42.002l-60 -13c-25.333 -6 -41.333 -17.333 -48 -34c-5.33301 -8 -12 -19.333 -20 -34c-1.33301 -4.66699 -10 -43.334 -26 -116.001l-4 -420c-4.66699 -17.333 -7 -26.666 -7 -27.999l7 -21l-2 -155
c-4.66699 -21.333 -4.66699 -50.666 0 -87.999c4.66699 -43.333 14 -78.666 28 -105.999c4.66699 -9.33301 16.334 -19.666 35.001 -30.999c34.667 -20 69.334 -29.667 104.001 -29c-0.666992 -8.66699 -4.33398 -21.334 -11.001 -38.001h-116c-2 0 -13.5 0.666992 -34.5 2
s-32.167 2 -33.5 2c-2 0 -11 -0.666992 -27 -2s-24.667 -2 -26 -2s-7.5 0.666992 -18.5 2s-17.5 2 -19.5 2s-6.5 -0.666992 -13.5 -2s-11.5 -2 -13.5 -2l-209 -5c-18 0 -27 6.66699 -27 20c0 15.333 4.66699 24.333 14 27c21.333 4 42.666 7.66699 63.999 11
c24.667 5.33301 40.667 14.333 48 27l12 37c9.33301 -0.666992 23.666 -2.66699 42.999 -6c6.66699 27.333 10 45 10 53c0 7.33301 -3.33301 17.333 -10 30c5.33301 13.333 6.33301 24.666 3 33.999c-2.66699 6.66699 -9 18 -19 34c-8.66699 14 -13 22 -13 24
c0 -4.66699 5.66699 15.333 17 60c1.33301 5.33301 -0.666992 13 -6 23c11.333 18.667 17 31.334 17 38.001c0 1.33301 -1.66699 23 -5 65c0 3.33301 -2.33301 9.66602 -7 18.999s-7 15 -7 17c0 2.66699 2.66699 7.33398 8 14.001c-1.33301 -2.66699 -2 1 -2 11v121
c0 2 1.5 8 4.5 18s4.5 16 4.5 18c0 1.33301 -1 3.83301 -3 7.5s-3 6.5 -3 8.5c0 -2.66699 1 12.333 3 45c0 6.66699 -0.666992 17.667 -2 33l-2 23v79c0 7.33301 -4.66699 18 -14 32c2.66699 7.33301 0.666992 21 -6 41c-0.666992 9.33301 -3.33398 23.333 -8.00098 42
c-5.33301 6 -12 14.667 -20 26c-2.66699 6.66699 -7.33398 16.667 -14.001 30c-13.333 20.667 -26 34 -38 40c-15.333 4 -38.333 11.333 -69 22c2 9.33301 5.66699 21.333 11 36h9c2 0 8.16699 -0.666992 18.5 -2s16.5 -2 18.5 -2z" />
    <glyph glyph-name="j" unicode="j" horiz-adv-x="645" 
d="M610 1253c-1.33301 -9.33301 -4.00293 -22.6689 -8.00293 -40.002c-22.667 -1.33301 -55 -9 -97 -23c-24.667 -15.333 -41.667 -50.666 -51 -105.999c-0.666992 -6.66699 -3.66699 -19.334 -9 -38.001s-8.66602 -32.667 -9.99902 -42l-9 -720
c2 -13.333 5.66699 -32.666 11 -57.999c-2 6.66699 -3.66699 -5 -5 -35c-1.33301 -18.667 -1 -44.667 1 -78c2 -40 3 -67 3 -81c0 -1.33301 1.5 -4.33301 4.5 -9s4.83301 -8.66699 5.5 -12c2.66699 -13.333 5.66699 -27 9 -41c3.33301 -16.667 3 -29.667 -1 -39
c-5.33301 -12.667 -25 -37.667 -59 -75c-84 -92.667 -161.667 -171 -233 -235c-58 -51.333 -112.667 -77 -164 -77c-20 0 -39.667 7.83301 -59 23.5s-29 33.5 -29 53.5c0 4.66699 0.666992 9 2 13c32 14.667 81 34.334 147 59.001c14 -2.66699 35 -4.66699 63 -6
c11.333 1.33301 20.5 8.16602 27.5 20.499s17.833 32.833 32.5 61.5c10.667 26 21.334 108.333 32.001 247c9.33301 10.667 24 18.334 44 23.001c30 7.33301 47 12 51 14c-13.333 3.33301 -29.333 5 -48 5c-2 0 -7.16699 -1.16699 -15.5 -3.5s-14.833 -3.5 -19.5 -3.5
c-6.66699 14 -9 48.333 -7 103c2 39.333 0.666992 79.666 -4 120.999c0 4.66699 -3 20.334 -9 47.001c-4 20 -5.66699 36.667 -5 50l10 78c4 33.333 2.66699 61.666 -4 84.999c-4 12.667 -8.66699 22.334 -14 29.001c10 31.333 14.667 58 14 80
c0 57.333 -2 142.666 -6 255.999c0 18.667 -1 46.334 -3 83.001c-2 4 -5 11 -9 21c-3.33301 19.333 -8.66602 47.333 -15.999 84c-5.33301 7.33301 -12.666 18.333 -21.999 33c-10.667 22 -17.334 35.333 -20.001 40c-9.33301 14 -21 25 -35 33l-72 23c0 6 3 18 9 36h577z
" />
    <glyph glyph-name="k" unicode="k" horiz-adv-x="1305" 
d="M1335 -7l-154.006 3.00586h-94l-156 -3c-8 14 -8.66699 26 -2 36c29.333 2.66699 44 9 44 19c0 3.33301 -0.666992 7 -2 11c-10 8 -24 21.333 -42 40c-0.666992 5.33301 -8.33398 15 -23.001 29c-34.667 32.667 -83 75.334 -145 128.001
c-12.667 14 -31.667 33.333 -57 58c-16.667 10.667 -37 26.334 -61 47.001c10.667 2.66699 15.667 4 15 4l23 -8c0.666992 -0.666992 9 -3 25 -7c-6.66699 13.333 -22.667 23.666 -48 30.999c-3.33301 1.33301 -8.33301 6.5 -15 15.5s-14 13.167 -22 12.5
c0 -4.66699 3.66699 -8 11 -10c-1.33301 -5.33301 -3.66602 -11.333 -6.99902 -18c-8 3.33301 -19 9 -33 17c-2.66699 4.66699 -7.33398 10.667 -14.001 18c-9.33301 2.66699 -22 8.66699 -38 18c-6 9.33301 -17.333 24.666 -34 45.999c-10 6.66699 -24.333 17.667 -43 33
c-10.667 10 -26.667 22.333 -48 37c-8 -5.33301 -10.667 -25.666 -8 -60.999c2 -19.333 4.66699 -48.666 8 -87.999c-1.33301 -22.667 -2.66602 -56.334 -3.99902 -101.001c2 -20 5.33301 -50 10 -90c3.33301 -13.333 7.66602 -32.333 12.999 -57
c-0.666992 -10.667 0.666016 -25.334 3.99902 -44.001c20 -34 48 -54.333 84 -61c15.333 -2 35.333 -8 60 -18c0.666992 -17.333 -1 -27.666 -5 -30.999c-12.667 -0.666992 -34 -3 -64 -7h-90c-1.33301 0 -10.333 1.66699 -27 5s-27.667 5 -33 5
c-14.667 1.33301 -37 0.666016 -67 -2.00098c-32.667 -3.33301 -48 -5 -46 -5h-128c-11.333 -3.33301 -24 -3.33301 -38 0c-16 4 -24 12 -24 24c0 2.66699 0.333008 5.33398 1 8.00098c2.66699 5.33301 12.334 9.33301 29.001 12c22 3.33301 37 7 45 11
c18 9.33301 34 26.333 48 51c5.33301 10 10.333 37.333 15 82c3.33301 30 7.33301 75.333 12 136c-2 31.333 -3.33301 78 -4 140c0.666992 8 8.66699 23.667 24 47c0 -2 -3.66699 1.5 -11 10.5s-11 19.833 -11 32.5v98c0 42.667 0.666992 62 2 58
c-8 28 -6.33301 64.667 5 110c4 13.333 3.33301 23.5 -2 30.5l-8 10.5v76c0 9.33301 -0.666992 11.333 -2 6c5.33301 6 8 10.667 8 14v136c0 16 -3.66699 35.333 -11 58c-9.33301 28.667 -21 46.334 -35 53.001c-19.333 9.33301 -52.333 17 -99 23
c-1.33301 4 -2 7.33301 -2 10c0 18 14.667 26.333 44 25l159 -9h79c0.666992 0 7.5 1.16699 20.5 3.5s24.5 3.5 34.5 3.5c80 0 129.333 1 148 3c4.66699 -6.66699 7 -13.334 7 -20.001c0 -0.666992 -0.333008 -3.66699 -1 -9v-10l-58 -12
c-25.333 -8.66699 -45 -24.667 -59 -48c-1.33301 -2.66699 -4.33301 -21 -9 -55l-20 -117c-0.666992 -4 0.333008 -12 3 -24c4 -14 6 -25.333 6 -34c0 -1.33301 -1.5 -4.33301 -4.5 -9s-4.5 -8 -4.5 -10c-1.33301 -10 -0.333008 -21.667 3 -35
c-2.66699 -15.333 -5 -35.666 -7 -60.999c0 -0.666992 3.33301 -21.334 10 -62.001c-3.33301 -19.333 -2.33301 -48.333 3 -87c2 1.33301 10.667 8 26 20l44 48c66.667 67.333 112 115 136 143c6.66699 4 17 11.333 31 22c52 50 93.333 92.667 124 128
c8.66699 9.33301 22.334 25.666 41.001 48.999c10.667 15.333 22.667 36.333 36 63c9.33301 18.667 7.33301 35.5 -6 50.5s-30.666 24.167 -51.999 27.5c-17.333 2 -34.666 4.33301 -51.999 7c-2.66699 2.66699 -4 12.667 -4 30c30.667 8.66699 85.667 8 165 -2
c5.33301 2 13.666 3.66699 24.999 5c26 -2.66699 38.667 -4.33398 38 -5.00098c48 2 116 5.33301 204 10c0 -14.667 -1.66699 -28.667 -5 -42c-43.333 4.66699 -84 -3.33301 -122 -24l-60 -55c-4.66699 -2.66699 -11.667 -7 -21 -13l-197 -212
c-5.33301 -2 -12 -5.33301 -20 -10c-12.667 -10.667 -53.667 -52.334 -123 -125.001c-6.66699 -10 -17.667 -25.333 -33 -46c-12 -11.333 -29 -29 -51 -53c6 -2.66699 14 -7.33398 24 -14.001c32.667 -28.667 65.334 -60.334 98.001 -95.001c0.666992 -4 3 -9.33301 7 -16
c22.667 -22.667 57 -55.334 103 -98.001l46 -29c16 -11.333 42.667 -37.666 80 -78.999c12.667 -14 26.334 -26.333 41.001 -37l38 -21l28 -38c4.66699 -4.66699 36.334 -31.334 95.001 -80.001c22.667 -25.333 56.334 -56.333 101.001 -93
c2.66699 -3.33301 7.33398 -8 14.001 -14l71 -31c8.66699 -0.666992 20.667 -1.33398 36 -2.00098c7.33301 -10 11 -23.667 11 -41z" />
    <glyph glyph-name="l" unicode="l" horiz-adv-x="1128" 
d="M1170 284l-42 -147.005c-17.333 -58 -42 -113 -74 -165l-888 8c-8.66699 2.66699 -24 5.83398 -46 9.50098s-37 6.83398 -45 9.50098c0 17.333 6.66699 30.333 20 39c27.333 -0.666992 55 5.66602 83 18.999c36.667 17.333 59.334 43 68.001 77c4 14 4.66699 38.667 2 74
c-2.66699 40.667 -3.33398 68.334 -2.00098 83.001c0.666992 8 4.33398 35.333 11.001 82c4.66699 36 7 64.333 7 85c0 240 -4 401 -12 483c2 2.66699 6 8.33398 12 17.001c-5.33301 67.333 -14 122.333 -26 165c-6 20 -26.167 38.833 -60.5 56.5s-59.5 24.167 -75.5 19.5
c0 27.333 17.667 41 53 41c10 0 23.667 -1.16699 41 -3.5s28.333 -3.5 33 -3.5h501c1.33301 -16 -15.334 -28.333 -50.001 -37l-73 -18c-30 -14 -46 -21.667 -48 -23c-19.333 -12 -31.333 -25.667 -36 -41c-14 -46.667 -23.667 -108.667 -29 -186l-14 -189
c13.333 -38 20 -72.333 20 -103c0 -15.333 -2.33301 -36.166 -7 -62.499s-7 -47.166 -7 -62.499v-272l46 -139c4 -11.333 16.667 -18.666 38 -21.999c26.667 -3.33301 64.667 -9 114 -17c8.66699 -2 17 -2 25 0l144 21c58.667 10 103.667 26 135 48
c11.333 8.66699 25.333 32 42 70c17.333 41.333 32.333 68.666 45 81.999c10 10.667 23.333 16 40 16c8.66699 0 27 -4.66699 55 -14z" />
    <glyph glyph-name="m" unicode="m" horiz-adv-x="1634" 
d="M1656 35c2.66699 -4.66699 4.00195 -9.33789 4.00195 -14.0049c0 -22.667 -13.667 -34 -41 -34c-5.33301 0 -10.666 1 -15.999 3c-16 7.33301 -34.333 11.666 -55 12.999c-14.667 1.33301 -33.667 1.33301 -57 0c-28.667 -0.666992 -47.334 -1 -56.001 -1
c-94 2 -148.833 1.5 -164.5 -1.5s-40.5 -6.16699 -74.5 -9.5c-30 -2.66699 -48.667 3.33301 -56 18c-2 4.66699 -1 11.167 3 19.5s9.33301 13.166 16 14.499c2 0.666992 27.667 3.33398 77 8.00098c38 4 61.333 36 70 96l6 181c0 4.66699 -1.16699 12.334 -3.5 23.001
s-3.5 18.334 -3.5 23.001c1.33301 54.667 -3 132.334 -13 233.001v79c0 1.33301 -2.83301 13.5 -8.5 36.5s-8.83398 39.5 -9.50098 49.5c-3.33301 44.667 -4.33301 75.334 -3 92.001c0 0.666992 1.83301 7.33398 5.5 20.001s5.5 23.334 5.5 32.001
c0 14 -4.33301 24.667 -13 32c-16 -11.333 -28 -32.333 -36 -63c-6 -9.33301 -13.333 -22.666 -22 -39.999c-2.66699 -12.667 -7.66699 -31 -15 -55c-3.33301 -4.66699 -8.66602 -13 -15.999 -25c-1.33301 -7.33301 -4 -17.333 -8 -30l-53 -108
c-1.33301 -9.33301 -4 -23.333 -8 -42c-6 -8 -12.667 -18.333 -20 -31c-1.33301 -10 -5 -23.333 -11 -40c-12 -20.667 -28.667 -52.334 -50 -95.001c-2 -13.333 -6.66699 -32.666 -14 -57.999c-3.33301 -4 -8 -10 -14 -18l-14 -43
c-5.33301 -8.66699 -11.666 -21 -18.999 -37c-2 -9.33301 -6 -23.666 -12 -42.999c-5.33301 -6.66699 -11.666 -17.667 -18.999 -33c0 -0.666992 -20.333 -48 -61 -142c-0.666992 -12.667 -7.66699 -30 -21 -52c-0.666992 0 -15.667 -1.66699 -45 -5
c-18 -2 -32 2.16699 -42 12.5s-25.667 39.5 -47 87.5c-10.667 20.667 -25.334 51.334 -44.001 92.001c-6.66699 21.333 -16.667 50 -30 86c-2 4.66699 -38 75 -108 211c-2 8.66699 -5.66699 21 -11 37c-32.667 62.667 -80 161.667 -142 297c-6 26.667 -18 65.667 -36 117
c-17.333 35.333 -35.666 53 -54.999 53c-5.33301 -4.66699 -8 -22.334 -8 -53.001c2.66699 -8 5.33398 -20 8.00098 -36c0.666992 -8.66699 0.333984 -21 -0.999023 -37c-0.666992 -19.333 -1 -28.333 -1 -27v-96l-25 -377v-83c0 6 -0.5 -1 -1.5 -21s-1.5 -52.667 -1.5 -98
c0.666992 -12 4 -28 10 -48c16.667 -27.333 32.667 -45.666 48 -54.999c13.333 -2.66699 33.666 -9.33398 60.999 -20.001c10 -5.33301 13 -14.666 9 -27.999c-13.333 -15.333 -51.333 -19 -114 -11h-91c-18 0 -31.667 -0.666992 -41 -2c-44 -4.66699 -89 -6.66699 -135 -6
c-6 4 -10 11 -12 21c-2 11.333 1 19 9 23c3.33301 2 18.666 4.66699 45.999 8l24 14c32 15.333 53.667 45 65 89c2.66699 10.667 6.66699 45.334 12 104.001c3.33301 8.66699 7.66602 21 12.999 37c4.66699 24 7 40.333 7 49v76c0 2.66699 0.833008 6.66699 2.5 12
s2.5 8.66602 2.5 9.99902c-0.666992 40.667 4.66602 100 15.999 178c1.33301 5.33301 3 27.666 5 66.999c2.66699 68 3.33398 114 2.00098 138c0 2.66699 1 8.5 3 17.5s3 14.5 3 16.5v140c0 2.66699 3.5 12.5 10.5 29.5s11.5 28.833 13.5 35.5
c2.66699 12 2.66699 26.333 0 43l-23 45c-0.666992 14 -9 31.667 -25 53l-38 6c-16.667 2.66699 -38.834 6.66699 -66.501 12s-42.5 8.33301 -44.5 9c-18.667 5.33301 -28.334 14 -29.001 26c16 14 43 18.667 81 14l114 -16c6 -0.666992 15.667 0 29 2
c16.667 3.33301 28.334 5 35.001 5c3.33301 0.666992 41.333 -1.33301 114 -6c20 -0.666992 36 -21 48 -61c5.33301 -8.66699 14 -25 26 -49c3.33301 -12.667 9 -31 17 -55c11.333 -10 25 -26.333 41 -49c0.666992 -12.667 2.33398 -31 5.00098 -55
c5.33301 -7.33301 11.666 -17.666 18.999 -30.999l151 -355c11.333 -28 23.166 -60.833 35.499 -98.5s30.5 -79.5 54.5 -125.5c10 -10.667 22.667 -27 38 -49c2 -2.66699 5 -16.334 9 -41.001c3.33301 -15.333 10.666 -24 21.999 -26c8 1.33301 14.333 6.33301 19 15
c20.667 39.333 44.334 98 71.001 176s52.667 141 78 189c2.66699 10 7.33398 25.333 14.001 46l25 55c0.666992 2.66699 4.16699 7.5 10.5 14.5s10.166 12.167 11.499 15.5c2 14 6.66699 33.667 14 59l28 64l50 71c2 2 5.66699 18 11 48
c0.666992 3.33301 20.667 52.666 60 147.999c0.666992 12 4.33398 30.333 11.001 55c18 40.667 58 55.667 120 45c7.33301 -4 18.666 -8.33301 33.999 -13c48.667 -4.66699 84 -4.33398 106 0.999023c13.333 0 32 1.33301 56 4c5.33301 3.33301 14.333 7.83301 27 13.5
s26.334 6.16699 41.001 1.5c7.33301 -2.66699 11.333 -8 12 -16c2 -20.667 -8.33301 -33.334 -31 -38.001l-58 -8c-5.33301 -4 -14.5 -10.333 -27.5 -19s-30.833 -24 -53.5 -46c-0.666992 -1.33301 -6.33398 -25.666 -17.001 -72.999
c-8.66699 -38.667 -7.66699 -96.667 3 -174c4.66699 -36 7.66699 -69 9 -99c0 -32 1 -81 3 -147c0 2 -1.33301 -34.667 -4 -110c-1.33301 -42 1.66699 -83.667 9 -125c7.33301 -26.667 15 -66.667 23 -120c4 -70.667 7.33301 -112 10 -124
c7.33301 -36.667 25.666 -67.334 54.999 -92.001c8.66699 -7.33301 20 -10.666 34 -9.99902c17.333 1.33301 28.333 1.33301 33 0c8 -2.66699 15 -8.66699 21 -18z" />
    <glyph glyph-name="n" unicode="n" horiz-adv-x="1351" 
d="M1063 446l-8.99902 -11l-6 6l5 21c11.333 -10.667 14.666 -16 9.99902 -16zM1434 1210c-12.667 -2 -30.9932 -5.33203 -54.9932 -9.99902c-25.333 -7.33301 -45.333 -23.333 -60 -48c-20.667 -36.667 -33.334 -72.667 -38.001 -108
c-8.66699 -61.333 -13 -111.333 -13 -150c0 -2.66699 1.33301 -31.5 4 -86.5s4 -84.167 4 -87.5v-159c0 -2 1.16699 -8.66699 3.5 -20s3.16602 -20 2.49902 -26c-4 -80.667 -6 -126 -6 -136c0 -5.33301 1.33301 -16.166 4 -32.499s4 -25.833 4 -28.5v-307
c0 -4 0.5 -6.16699 1.5 -6.5s1.5 -0.833008 1.5 -1.5c-46.667 -8 -67.667 -12 -63 -12c-28 0 -45.333 3 -52 9c-46 42.667 -114 117.334 -204 224.001l-72 92c-28 27.333 -66 67.333 -114 120c-12 20 -32 49.667 -60 89l-255 321c-14.667 11.333 -34.667 29.333 -60 54
c-0.666992 4.66699 -2.66699 11.334 -6 20.001c-8 12.667 -21.333 31.667 -40 57c-14 -6.66699 -21 -17 -21 -31c0 0.666992 4.66699 -33.333 14 -102c0.666992 -4 0 -10.167 -2 -18.5s-3 -13.833 -3 -16.5c0 -26.667 1.16699 -67.834 3.5 -123.501s3.5 -82.834 3.5 -81.501
v-140c0 -4 0.5 -38 1.5 -102s1.5 -97.667 1.5 -101c0 -139.333 49.667 -212.666 149 -219.999c2 0 4.5 -2.83301 7.5 -8.5s5.16699 -9.16699 6.5 -10.5c0.666992 -12 -1 -22 -5 -30h-349c-2.66699 0 -14.834 -1.83301 -36.501 -5.5s-34.167 -5.5 -37.5 -5.5h-16
c-6 6 -9 9.66699 -9 11c0 23.333 7.33301 39 22 47c17.333 5.33301 42.666 15.333 75.999 30c32.667 18 52.334 46.667 59.001 86c17.333 96.667 21 155.667 11 177c-4.66699 9.33301 -5.33398 17.333 -2.00098 24l8 10l-6 9
c-0.666992 7.33301 -0.333984 20.166 0.999023 38.499s2 31.5 2 39.5c0 9.33301 -1.83301 25.333 -5.5 48s-5.5 38.667 -5.5 48c0 -10 1.33301 10.667 4 62c-0.666992 2 -3.66699 8.66699 -9 20l5 5c2.66699 4 4.33398 11.333 5.00098 22c1.33301 2 1.33301 4.33301 0 7
c-9.33301 75.333 -14 126 -14 152v138l-3.5 59c-2.33301 39.333 -3.5 67.666 -3.5 84.999c0 2 1.16699 6.33301 3.5 13s3.16602 12.334 2.49902 17.001c-50.667 53.333 -114.334 77.333 -191.001 72l-5 5v33c7.33301 8.66699 25.333 13 54 13
c3.33301 0 30.166 -1.33301 80.499 -4s77.166 -4 80.499 -4c2.66699 0 27.5 1.33301 74.5 4s72.167 4 75.5 4c16 0 25.333 -0.666992 28 -2c9.33301 -3.33301 28.666 -25 57.999 -65l250 -348l102 -128c-8 -58.667 0.333008 -88 25 -88c2.66699 0 8 2 16 6s13.667 6 17 6
c8.66699 0 20.334 -12.333 35.001 -37l21 -37c48.667 -39.333 79 -69.333 91 -90c2.66699 -11.333 7.33398 -28 14.001 -50c5.33301 -7.33301 9.66602 -11 12.999 -11s6.66602 1.33301 9.99902 4s5.33301 4 6 4c18 -19.333 42.333 -47.666 73 -84.999
c11.333 5.33301 17 10.333 17 15c0 3.33301 -1.33301 9 -4 17s-4 13.667 -4 17v107c0 3.33301 -0.5 8.16602 -1.5 14.499s-1.5 14.5 -1.5 24.5c2.66699 12.667 4.66699 30.667 6 54c-3.33301 19.333 -7.66602 47.666 -12.999 84.999
c-1.33301 5.33301 -0.666016 15.333 2.00098 30s4 23 4 25c0 2.66699 -1 8.16699 -3 16.5s-3 14.166 -3 17.499c-1.33301 12 -1.33301 28.333 0 49c1.33301 26 2 43.333 2 52c0 3.33301 -1.5 9 -4.5 17s-4.83301 14 -5.5 18l4 27c0.666992 5.33301 -0.5 15.666 -3.5 30.999
s-4.5 27 -4.5 35c0 2.66699 1.33301 8.66699 4 18s3.66699 16 3 20c-4 27.333 -11 67.333 -21 120c-9.33301 34.667 -47.333 57.667 -114 69c1.33301 11.333 0 23.333 -4 36c7.33301 6 31 9 71 9l182 -7c-4 0 26 2 90 6c38 2.66699 67.667 0.333984 89 -6.99902v-37z" />
    <glyph glyph-name="o" unicode="o" horiz-adv-x="1542" 
d="M1442 623c0 -38 -0.995117 -66.9971 -2.99512 -86.9971c-6.66699 -15.333 -13.667 -39 -21 -71c-1.33301 -32 -8.33301 -66 -21 -102c-10.667 -13.333 -26.334 -35 -47.001 -65c-5.33301 -20 -20 -48.667 -44 -86l-88 -90c-6 -2 -13.667 -5.33301 -23 -10
c-8.66699 -8 -24 -19.667 -46 -35c-109.333 -58 -213.333 -91 -312 -99h-132c1.33301 0 -1.33398 2 -8.00098 6c-72 2 -126 12 -162 30c-9.33301 2 -22 5.33301 -38 10c-26.667 10.667 -66.667 29.667 -120 57c-64 40.667 -124 98 -180 172
c-31.333 41.333 -59 94.666 -83 159.999c-22.667 60.667 -35.334 111.667 -38.001 153c-4.66699 70.667 -2 140 8 208c4 8.66699 9.33301 21 16 37c4 20 11 49 21 87c14.667 23.333 34 57.333 58 102c3.33301 7.33301 5 16 5 26c3.33301 3.33301 10 2.33301 20 -3
c3.33301 9.33301 3.33301 22.666 0 39.999c8.66699 2.66699 21 8.33398 37 17.001c5.33301 14 18 31 38 51l181 94c20.667 10 47 18.667 79 26c81.333 18.667 136.666 28 165.999 28h78c60.667 0 112.667 -5.66699 156 -17c23.333 -6.66699 74.666 -25.334 153.999 -56.001
l79 -50c52 -33.333 99.333 -79 142 -137c38 -52 62.667 -100 74 -144c5.33301 -7.33301 12 -18.333 20 -33c14.667 -40 23 -99.333 25 -178c0 -2.66699 1.5 -8.83398 4.5 -18.501s4.5 -17.167 4.5 -22.5zM1220 597.003c-6 84 -22.3369 160.671 -49.0039 230.004
c-34 89.333 -74 159.666 -120 210.999c-65.333 72 -136.666 114.333 -213.999 127c-73.333 12 -123.666 16 -150.999 12c-53.333 -6.66699 -98.666 -18.334 -135.999 -35.001c-4.66699 -2 -35 -19.667 -91 -53c-3.33301 -6.66699 -9.33301 -14.667 -18 -24
c-5.33301 -1.33301 -11.333 -3.33301 -18 -6c-13.333 -17.333 -30 -40.666 -50 -69.999c-2.66699 -8 -7 -19.333 -13 -34c-10 -16 -20.667 -35 -32 -57l-28 -111c0.666992 -18.667 0.333984 -47 -0.999023 -85c0 -2 -1.33301 -6.33301 -4 -13s-3.66699 -11.334 -3 -14.001
l40 -180c-2 -5.33301 -3.33301 -11.666 -4 -18.999c4.66699 -9.33301 11.334 -22 20.001 -38c0.666992 -8.66699 2.66699 -20 6 -34c28 -56 42.667 -84.667 44 -86c20 -34.667 47.333 -67.667 82 -99c0.666992 -0.666992 5 -14.334 13 -41.001
c2.66699 -0.666992 14 -2.66699 34 -6c32.667 -30 57.667 -50.333 75 -61c49.333 -29.333 138.666 -38.333 267.999 -27l42 13c22 4.66699 53.667 15.667 95 33c9.33301 8.66699 21.666 19 36.999 31c66.667 41.333 106.334 92.333 119.001 153
c6.66699 8 14.667 19.333 24 34c1.33301 12.667 3.33301 27.667 6 45c4 4 8 10.333 12 19c1.33301 15.333 4.66602 48.666 9.99902 99.999c4.66699 41.333 6.33398 69.666 5.00098 84.999z" />
    <glyph glyph-name="p" unicode="p" horiz-adv-x="1099" 
d="M1010 991c6 -28 2.33203 -90.0049 -11.001 -186.005c-4.66699 -33.333 -24 -73.166 -58 -119.499s-68.333 -80.833 -103 -103.5c-31.333 -21.333 -75.333 -36.666 -132 -45.999c-14 -6 -34.667 -12.667 -62 -20c-52.667 -4.66699 -119.334 -7 -200.001 -7
c-4.66699 0 -10.334 -4 -17.001 -12c2.66699 -25.333 5.66699 -106 9 -242c1.33301 -26.667 6.66602 -61.334 15.999 -104.001c0 -12 3.33301 -29.667 10 -53c13.333 -24 35.666 -41 66.999 -51l74 -22c0.666992 -7.33301 0.333984 -16 -0.999023 -26
c-19.333 -8 -39 -12 -59 -12h-103c-1.33301 0 -10.166 1.66699 -26.499 5s-28.166 5 -35.499 5c-20 0 -51.5 -1.66699 -94.5 -5s-64.167 -5 -63.5 -5h-99c-10 0 -22 3.33301 -36 10c0 1.33301 -0.833008 5 -2.5 11s-2.5 10.333 -2.5 13c34.667 9.33301 55.667 16 63 20
c24 11.333 43.667 30.333 59 57c6.66699 12 11 42.333 13 91c0.666992 8 3 28.667 7 62c4 30 6 53 6 69v124c-0.666992 30.667 -1.66699 61.334 -3 92.001c0.666992 34.667 8.66699 64.334 24 89.001c-5.33301 4.66699 -11.333 13.334 -18 26.001
c-5.33301 36 -8 73.333 -8 112c0 0.666992 2.66699 12 8 34c4.66699 18 5 32.333 1 43c-10.667 28.667 -12 64.667 -4 108c2.66699 12.667 -1.66602 52.334 -12.999 119.001c0 21.333 -5.66699 49.333 -17 84c-14 17.333 -32.667 28.666 -56 33.999l-58 12c0 38 -1 46 -3 24
c1.33301 10.667 8 16.334 20 17.001c26.667 1.33301 69.334 4.33301 128.001 9c54 4.66699 82 7 84 7h126c24 0 48.5 2.16699 73.5 6.5s46.167 6.5 63.5 6.5c22 0 50 -2 84 -6l92 -20c4 -2.66699 10.333 -5.66699 19 -9c63.333 -9.33301 119 -39.333 167 -90
c34.667 -36 58.667 -86.333 72 -151zM797.999 878.995c0 21.333 -1.00098 35.668 -3.00098 43.001c-33.333 87.333 -61.333 143.666 -84 168.999c-31.333 34 -66.333 55.333 -105 64c-25.333 6 -66.666 7.66699 -123.999 5c-6 0 -15 -3.66699 -27 -11
c-10.667 -112.667 -17.334 -204 -20.001 -274c3.33301 -5.33301 6.33301 -13 9 -23c0 -9.33301 -3 -47.333 -9 -114c-3.33301 -42.667 -2 -86 4 -130l8 -8h97c10.667 -3.33301 22.334 -5 35.001 -5c38.667 0 75.667 12.333 111 37s57.333 45 66 61
c28 54.667 42 116.667 42 186z" />
    <glyph glyph-name="q" unicode="q" horiz-adv-x="1530" 
d="M1633 -214c-10.667 -11.333 -41.999 -22.332 -93.999 -32.999c-113.333 -21.333 -176.666 -32 -189.999 -32s-58.333 7 -135 21c-12.667 0 -31.667 2 -57 6c-4 4 -10.333 8.33301 -19 13c-26.667 4.66699 -60.667 16.667 -102 36c-62 28.667 -95.667 44 -101 46
c-2.66699 6 -8 15.333 -16 28c-6.66699 0 -15.334 2 -26.001 6c-9.33301 10 -24.333 21.333 -45 34c-16.667 9.33301 -30 23 -40 41c-4.66699 7.33301 -10 11.666 -16 12.999c-34 4 -79.333 6.33301 -136 7c-24.667 0.666992 -61.334 10.667 -110.001 30l-92 35
c-38.667 15.333 -69.667 32.333 -93 51c-130.667 106 -211.667 223 -243 351c-10.667 26 -21.334 65 -32.001 117c-2.66699 84 0 153.333 8 208c4 8.66699 9.33301 21.334 16 38.001c4 19.333 11 48 21 86c14.667 24 34 58 58 102c4 8 6 17 6 27
c2.66699 2.66699 9 1.66699 19 -3c3.33301 8.66699 3.33301 22 0 40c9.33301 2.66699 22 8.33398 38 17.001c4.66699 13.333 17.334 30.333 38.001 51l181 94c20.667 10.667 47 19.667 79 27c81.333 18 137 27 167 27h78c60.667 0 113 -5.66699 157 -17
c21.333 -6 72.666 -24.667 153.999 -56l79 -50c52 -33.333 99.333 -79.333 142 -138c38 -52 63 -99.667 75 -143c5.33301 -7.33301 12 -18.666 20 -33.999c14.667 -40 23 -99.333 25 -178c0 -2.66699 1.5 -8.83398 4.5 -18.501s4.5 -17.5 4.5 -23.5
c0 -37.333 -1.33301 -66 -4 -86c-6 -15.333 -12.667 -39.333 -20 -72c-1.33301 -32 -8.33301 -66 -21 -102c-10.667 -14 -26.334 -35.667 -47.001 -65c-6 -20 -20.667 -49 -44 -87c-17.333 -22 -47.333 -52 -90 -90c-48.667 -30.667 -108.667 -64.334 -180 -101.001
c4.66699 -16 20 -34 46 -54c32 -24 50.333 -39 55 -45c4.66699 -2.66699 11.667 -6 21 -10c3.33301 -1.33301 -0.333984 -11.333 -11.001 -30c10 -0.666992 19.333 2.66602 28 9.99902l13 11l17 -10c32.667 -17.333 79 -39 139 -65
c18.667 -0.666992 47.334 -2.66699 86.001 -6c10.667 -1.33301 28.334 -2 53.001 -2c2 0 6.33301 -1.66699 13 -5s12.334 -5.33301 17.001 -6c28.667 -2 63 1.33301 103 10c0 -20 1 -27 3 -21zM1233 586.001c-6 84.667 -22.333 161.67 -49 231.003
c-34 90 -74.333 160.333 -121 211c-64.667 72.667 -136 115.334 -214 128.001c-73.333 12 -124 16.333 -152 13c-52.667 -7.33301 -98 -19.333 -136 -36c-4.66699 -2 -34.667 -19.667 -90 -53c-4 -6.66699 -10.333 -14.667 -19 -24
c-5.33301 -1.33301 -11.333 -3.33301 -18 -6c-13.333 -17.333 -30 -41 -50 -71c-2.66699 -8 -7.33398 -19.333 -14.001 -34c-10 -16 -20.333 -35 -31 -57c-6.66699 -24.667 -16 -61.667 -28 -111c0.666992 -18.667 0.333984 -47 -0.999023 -85c0 -2 -1.33301 -6.5 -4 -13.5
s-4 -11.5 -4 -13.5l40 -181c-30.667 -3.33301 -61.334 -8 -92.001 -14c8.66699 -2 26 -6.33301 52 -13l-23 -10l71 -4c5.33301 -0.666992 8.33301 -3 9 -7v-9c0.666992 -8.66699 2.66699 -20 6 -34c28 -56 42.667 -84.667 44 -86c20 -34.667 47.333 -67.667 82 -99
c0.666992 -0.666992 5 -14.667 13 -42c3.33301 0 15 -1.66699 35 -5c32 -30.667 57 -51.334 75 -62.001c49.333 -29.333 139 -38.333 269 -27c10.667 4 24.334 8.33301 41.001 13c22 5.33301 53.667 16.333 95 33l38 32c66.667 41.333 106 92.333 118 153
c7.33301 7.33301 15.333 18.666 24 33.999l7 45c4 4 8 10.333 12 19c1.33301 15.333 4.66602 48.666 9.99902 99.999c4.66699 41.333 6.33398 69.666 5.00098 84.999z" />
    <glyph glyph-name="r" unicode="r" horiz-adv-x="1136" 
d="M1336 21c-5.33301 -7.33301 -13.9961 -16.3301 -25.9961 -26.9971c-30 -16.667 -51.667 -25 -65 -25h-120c-40.667 0 -71 1.66699 -91 5c-14.667 5.33301 -37 13 -67 23c-25.333 8 -69.666 48 -132.999 120c-5.33301 6 -31.333 49 -78 129
c-42 72.667 -75 133.667 -99 183c-6 18.667 -16.667 42.667 -32 72c-6.66699 7.33301 -23.334 10 -50.001 8l-51 -6c-22 1.33301 -54.667 1.66602 -98 0.999023c-4.66699 0 -10.334 -4 -17.001 -12c2.66699 -26 6 -107.667 10 -245c0.666992 -26.667 6 -61.667 16 -105
c0 -12 3.33301 -29.667 10 -53c14 -24 36.667 -41.333 68 -52l76 -22c0.666992 -7.33301 0 -16 -2 -26c-19.333 -8 -39 -12 -59 -12h-105c-1.33301 0 -10.333 1.66699 -27 5s-28.667 5 -36 5c-20.667 0 -52.834 -1.66699 -96.501 -5l-65.5 -5h-101c-10 0 -22 3 -36 9
c0 2 -0.833008 6 -2.5 12s-2.5 10.333 -2.5 13c34.667 9.33301 56 16 64 20c24.667 11.333 44.667 30.666 60 57.999c6.66699 12 11.334 42.667 14.001 92c0 8 2.33301 28.667 7 62c4 30.667 6 54 6 70c0 90.667 0.833008 139.667 2.5 147s7.83398 19.333 18.501 36
c-4.66699 4.66699 -10.667 13.667 -18 27c-3.33301 12 -5 29 -5 51v101c0 0.666992 -1 11 -3 31c0.666992 -8 3.66699 36 9 132c-0.666992 1.33301 -2.33398 3.66602 -5.00098 6.99902c-7.33301 26 -7 60.333 1 103c2.66699 12 -1.66602 52 -12.999 120
c-0.666992 21.333 -6.66699 49.333 -18 84c-14.667 18 -33.667 29.333 -57 34c-20 4.66699 -39.667 9 -59 13c0 38 -1 46 -3 24c1.33301 10.667 8 16.334 20 17.001c27.333 1.33301 71 4.33301 131 9c55.333 5.33301 83.666 8 84.999 8h129c24 0 48.667 2 74 6s47 6 65 6
c22.667 0 51 -2 85 -6l94 -20c4 -2.66699 10.667 -5.66699 20 -9c64 -10 120.667 -40.333 170 -91c27.333 -28.667 51.666 -79.334 72.999 -152.001l3 -47c1.33301 -16.667 0 -41.667 -4 -75c-8.66699 -70.667 -25.334 -124 -50.001 -160
c-22.667 -33.333 -66.334 -80 -131.001 -140c-0.666992 -14 2 -26.333 8 -37l126 -242c50 -87.333 110.667 -161.666 182 -222.999c6 -5.33301 30.667 -14 74 -26c26 -6.66699 48 -8.33398 66 -5.00098c26.667 5.33301 45.667 7.33301 57 6
c1.33301 -4.66699 2 -11.667 2 -21zM788.004 877.003c0 22 -1.66504 36.668 -4.99805 44.001c-33.333 88.667 -61.666 145.334 -84.999 170.001c-32 34.667 -67.667 56.667 -107 66c-26 6 -68 7.66699 -126 5c-6 -0.666992 -15.333 -4.33398 -28 -11.001
c-10.667 -114.667 -17.334 -207.334 -20.001 -278.001c3.33301 -5.33301 6.66602 -13 9.99902 -23c0 -9.33301 -3 -47.333 -9 -114c-4 -44 -3 -88 3 -132c2 -2 4.66699 -5 8 -9h99c11.333 -2.66699 23.333 -4 36 -4c39.333 0 77.166 12.5 113.499 37.5s58.5 45.5 66.5 61.5
c29.333 54.667 44 117 44 187z" />
    <glyph glyph-name="s" unicode="s" horiz-adv-x="1050" 
d="M983 313c0 -14.667 -7.83008 -43.499 -23.4971 -86.499s-27.167 -69.5 -34.5 -79.5c-31.333 -38 -64.666 -71.333 -99.999 -100c-19.333 -15.333 -44.666 -28 -75.999 -38c-80.667 -25.333 -157 -38 -229 -38c1.33301 0 -11.334 0.666992 -38.001 2
c-24 2 -41.667 2.66699 -53 2c2 -6 3 5.66699 3 35c-16.667 16 -38.667 24 -66 24c-10 0 -19.333 -4.33301 -28 -13c1.33301 -1.33301 11.333 -6 30 -14c-4 -12 -12 -18 -24 -18c-12.667 0 -41 5.33301 -85 16c-57.333 14 -99 30 -125 48c-6 4 -12.667 30.667 -20 80
c-5.33301 39.333 -8 87.666 -8 144.999c0 52 2.66699 94.333 8 127c3.33301 -0.666992 14 0.666016 32 3.99902c5.33301 -6.66699 7.66602 -19.334 6.99902 -38.001c-0.666992 -24 -1 -35.667 -1 -35l15 -71c0.666992 -4.66699 9.66699 -19.334 27 -44.001
c10 -16 28 -38 54 -66c22 -17.333 51.667 -30.666 89 -39.999c20 -6 40 -12.333 60 -19c25.333 -7.33301 46.333 -11 63 -11c6.66699 -4 11.667 -6 15 -6c2.66699 0 6.66699 0.666992 12 2s9.33301 2 12 2c3.33301 0 16 -2.5 38 -7.5s34.333 -7.5 37 -7.5
s9.16699 3.83301 19.5 11.5s18.166 12.167 23.499 13.5l82 17c18.667 4 33.667 22 45 54l20 38c0 4.66699 0.666992 12 2 22c1.33301 4.66699 5.33301 13 12 25s10 19.667 10 23c0 24.667 -3 45.667 -9 63c-3.33301 10.667 -17 34.334 -41 71.001l-32 23
c-58 46.667 -114 79 -168 97c-14.667 8.66699 -36 20.334 -64 35.001c-33.333 14 -87 44 -161 90c-5.33301 2 -13 5.33301 -23 10c-20 16.667 -40.667 38.334 -62 65.001c-30.667 38.667 -47.334 59.334 -50.001 62.001c0 9.33301 -0.666992 23.333 -2 42
c-4 6.66699 -9.66699 17.667 -17 33c0 14 -1 33.333 -3 58c4 5.33301 6 10 6 14c-7.33301 17.333 -11 25.666 -11 24.999c0 -1.33301 7 14.334 21 47.001c2 14.667 6.66699 34.667 14 60c2.66699 6 20.334 25 53.001 57c15.333 -7.33301 22.333 -11 21 -11
c2 8.66699 6 19.667 12 33c61.333 58.667 117.666 94.667 168.999 108c42 10.667 98.333 16 169 16c3.33301 0 37 -3.66699 101 -11s97.667 -11 101 -11c2.66699 0 17.5 1.83301 44.5 5.5s42.167 5.5 45.5 5.5c18.667 0 28 -8 28 -24l-15 -165v-87
c0 -1.33301 -0.666992 -13 -2 -35s-2 -38 -2 -48c-0.666992 0 -2.83398 -1.33301 -6.50098 -4s-7.16699 -4 -10.5 -4h-23c-2 21.333 -6.33301 51.666 -13 90.999c-20.667 78.667 -63.667 129.667 -129 153c-34 12 -93.667 18 -179 18c-16 0 -43.333 -6.66699 -82 -20
c-33.333 -11.333 -65 -40.333 -95 -87c-10.667 -16.667 -16 -34.667 -16 -54c0 -31.333 10.333 -69 31 -113l36 -33c46 -46 114.333 -87.667 205 -125c143.333 -58.667 243 -123.334 299 -194.001c20.667 -26 34.667 -56.333 42 -91c8.66699 -40.667 13 -82 13 -124z" />
    <glyph glyph-name="t" unicode="t" horiz-adv-x="1001" 
d="M1029 1237l-14.002 -91.002v-232c-3.33301 0 -9.33301 -1 -18 -3s-14.667 -3 -18 -3c-1.33301 5.33301 -6.66602 45 -15.999 119c-5.33301 42.667 -25 75.334 -59 98.001c-14.667 10.667 -49.334 10 -104.001 -2c-27.333 -2.66699 -66.666 -9 -117.999 -19
c-18 -6 -29.333 -17.333 -34 -34c-11.333 -42.667 -12.5 -104.334 -3.5 -185.001s6.5 -191.667 -7.5 -333c0 0.666992 4.33301 -45.333 13 -138c-2.66699 -32 -3.33398 -80 -2.00098 -144l32 -155c6.66699 -33.333 29 -54.666 67 -63.999l92 -21
c0 -10 -7.66699 -24.667 -23 -44h-567c-5.33301 0 -8 4 -8 12c0 2 0.333008 7.33301 1 16c20.667 4.66699 51 14.334 91 29.001c34.667 18.667 60.334 41 77.001 67c4.66699 7.33301 9.33398 37.333 14.001 90c2.66699 92 6 188.333 10 289v360h27
c1.33301 0.666992 3.66602 3.66699 6.99902 9c-9.33301 22 -20.666 53.667 -33.999 95c-1.33301 8 -6.66602 59 -15.999 153h-185c-19.333 0 -43.333 -10.667 -72 -32s-44.334 -38.666 -47.001 -51.999c-14 -59.333 -27.667 -100.333 -41 -123
c-6.66699 -11.333 -21.667 -17 -45 -17c0 2.66699 -1.33301 11 -4 25c-2 12 -2.33301 20.667 -1 26c8 27.333 15.667 69.666 23 126.999c8.66699 69.333 15.334 116 20.001 140l32 42c-20 2 41 3 183 3c41.333 0 104.166 -3.66699 188.499 -11s124.833 -11 121.5 -11h165
c-0.666992 0 19.333 3.33301 60 10c44 6.66699 86.333 11 127 13l46 6c20 2 33.333 -3 40 -15z" />
    <glyph glyph-name="u" unicode="u" horiz-adv-x="1287" 
d="M1374 1249c0 -24.667 -4.33008 -37.668 -12.9971 -39.001c-12.667 -1.33301 -31.334 -5.33301 -56.001 -12c-10.667 0.666992 -25.334 -3 -44.001 -11c-22.667 -20.667 -36 -50.334 -40 -89.001c-2 -3.33301 -4.33301 -8.66602 -7 -15.999
c-3.33301 -37.333 -4.33301 -60.666 -3 -69.999c9.33301 -60.667 14 -91.334 14 -92.001v-77c0 -2.66699 -1.16699 -7.83398 -3.5 -15.501s-3.83301 -12.834 -4.5 -15.501c-0.666992 -4.66699 -0.333984 -13.667 0.999023 -27c6 -53.333 9 -123 9 -209
c0 -0.666992 -1.16699 -2.83398 -3.5 -6.50098s-3.5 -6.5 -3.5 -8.5c0 -64.667 0.666992 -90.334 2 -77.001c-2.66699 -35.333 -9 -87.666 -19 -156.999c-4 -20.667 -15.5 -52.167 -34.5 -94.5s-35.167 -72.5 -48.5 -90.5c-16 -20.667 -45.333 -46.334 -88 -77.001l-103 -73
c-10 7.33301 -38.667 4.66602 -86 -8.00098c-9.33301 -5.33301 -24 -12.666 -44 -21.999c-3.33301 -1.33301 -8.66602 -0.333008 -15.999 3s-11.333 5 -12 5h-74c9.33301 0 -7.66699 4.66699 -51 14c-15.333 0.666992 -37.333 3.33398 -66 8.00098
c-17.333 9.33301 -44 21 -80 35c-10.667 0.666992 -26.667 2.33398 -48 5.00098c-7.33301 2 -20.333 8.33301 -39 19c-120 69.333 -182.667 188 -188 356l-9 316c-4.66699 87.333 -14 217.333 -28 390c-4 38 -18.333 64.667 -43 80c-7.33301 5.33301 -39 15 -95 29
c-2 4 -3 7.66699 -3 11c0 12.667 11.333 17.334 34 14.001c52 -6.66699 111.667 -10 179 -10h97c2 0 11.333 1.33301 28 4s29.334 4 38.001 4c32 -2 80 -0.666992 144 4c5.33301 -6.66699 8 -12.667 8 -18c0 -10.667 -20.667 -19.334 -62 -26.001
c-3.33301 -2.66699 -9.33301 -7 -18 -13c-4.66699 -2 -11.334 -5.66699 -20.001 -11c-12 -9.33301 -18.667 -17.666 -20 -24.999c-12 -60.667 -26.333 -126.334 -43 -197.001c0.666992 2 4 -9 10 -33c0.666992 0 -2 -17.333 -8 -52c2.66699 -11.333 1 -38 -5 -80
c1.33301 8 5 -16.667 11 -74c0.666992 -8.66699 -1 -38 -5 -88c0.666992 -3.33301 2 -7.66602 4 -12.999c0 -3.33301 -2.33301 -28 -7 -74c-1.33301 -14.667 1.66699 -46.334 9 -95.001c4 -5.33301 8.33301 -13.333 13 -24c0.666992 -2 2.66699 -24.667 6 -68
c-0.666992 -8 -1 -20 -1 -36c3.33301 -7.33301 7.66602 -17.666 12.999 -30.999c2 -5.33301 1.66699 -13.666 -1 -24.999c8 -10.667 19.333 -26.667 34 -48c8 -14.667 24 -34.667 48 -60l54 -42c25.333 -18 48 -28.667 68 -32c18 -2 39 -3 63 -3h133
c36.667 0 75.334 21.333 116.001 64c38.667 40 63.667 81.667 75 125l19 134c5.33301 34.667 5.33301 81.667 0 141l2 473c-4.66699 39.333 -15 85 -31 137c-6.66699 21.333 -32 38 -76 50c-8 2 -22 5 -42 9c-4 6.66699 -6 15.334 -6 26.001c-3.33301 0 7 1.33301 31 4
c50 6 97.667 4 143 -6c8 2 19 3.33301 33 4c25.333 -4.66699 69.333 -3.66699 132 3c2.66699 0.666992 7.66699 0.166992 15 -1.5s12.333 -2.5 15 -2.5c7.33301 0 39.666 2.66699 96.999 8z" />
    <glyph glyph-name="v" unicode="v" horiz-adv-x="1270" 
d="M1382 1219c-29.333 -4.66699 -58.3408 -9.67383 -87.0078 -15.0068c-37.333 -7.33301 -67.333 -28.666 -90 -63.999c-2 -9.33301 -6.66699 -24 -14 -44l-76 -190l-45 -48c0 -4 -0.666992 -9.33301 -2 -16c-9.33301 -12.667 -16 -30.667 -20 -54
c-4.66699 -26 -8.66699 -42.667 -12 -50c-18.667 -37.333 -37.334 -83.333 -56.001 -138c-13.333 -40 -30.666 -78.667 -51.999 -116c-8 -12 -19 -30.667 -33 -56c-2.66699 -12 -7.33398 -29 -14.001 -51c-30 -65.333 -71.667 -163.333 -125 -294
c-2 -13.333 -5.33301 -32 -10 -56c-4 -15.333 -14.333 -30 -31 -44c-6.66699 -4.66699 -21.667 -7.66699 -45 -9c-35.333 -2 -56.666 1 -63.999 9c0.666992 8.66699 -0.333008 20.667 -3 36c-16 12 -32.667 32 -50 60c4 36 2 79.333 -6 130c-6.66699 4 -15 10.667 -25 20
c-8 16 -18 52 -30 108c-4 4 -8.66699 9.33301 -14 16c-6 14 -8.66699 29 -8 45c6.66699 4 35.334 12 86.001 24c34 8 58 27.333 72 58c-16 8 -33.667 12 -53 12c-14 0 -34.167 -2.66699 -60.5 -8s-45.166 -8 -56.499 -8c-17.333 0 -32 4 -44 12
c2.66699 4.66699 4 9.33398 4 14.001c0 12.667 -8.66699 31.667 -26 57c-21.333 30.667 -33.666 50.667 -36.999 60c2 10.667 3.66699 26.667 5 48c-6.66699 3.33301 -15 10 -25 20c-2 12.667 -5.66699 30 -11 52c-14 20.667 -34.333 56.334 -61 107.001
c-3.33301 16 -10.666 41 -21.999 75l-25 44c-1.33301 2.66699 -13.333 33.334 -36 92.001c2 6 2.33301 16.667 1 32c-2.66699 7.33301 -14 21.333 -34 42c-16.667 16.667 -23.667 31.667 -21 45c-37.333 12.667 -86 32.667 -146 60c6 9.33301 36 19 90 29
c4 -2.66699 9.33301 -6.66699 16 -12c3.33301 -18.667 15.666 -28 36.999 -28c-3.33301 0 14.334 2.66699 53.001 8c24.667 -3.33301 60.334 -2.66602 107.001 2.00098c4.66699 2 39.334 8 104.001 18c5.33301 0.666992 28 -2.66602 68 -9.99902
c32 -5.33301 72 0.666992 120 18c4.66699 -3.33301 10 -8.66602 16 -15.999c0.666992 -4 1 -7.66699 1 -11c0 -12.667 -23.5 -20.667 -70.5 -24s-70.5 -22.333 -70.5 -57c0 -16.667 10.667 -57.667 32 -123c-1.33301 -17.333 -0.333008 -42.333 3 -75l45 -44
c10 -13.333 16.667 -31.333 20 -54c6 -32 9.33301 -49.667 10 -53c11.333 -28 26.666 -69.333 45.999 -124c1.33301 -16 4.66602 -39.667 9.99902 -71c9.33301 -7.33301 20.333 -18 33 -32c4 -21.333 10.333 -50.666 19 -87.999c6 -12.667 13 -31.334 21 -56.001
c0 -12.667 2.33301 -32.334 7 -59.001c4.66699 -15.333 18 -19.666 40 -12.999c13.333 4 23.333 14.667 30 32c4.66699 13.333 9 27 13 41l42 64c2 3.33301 9.66699 24.333 23 63c-1.33301 8.66699 -1.66602 20.667 -0.999023 36
c7.33301 12.667 15.666 32.334 24.999 59.001c2 15.333 7 35.666 15 60.999c11.333 6 25 17.667 41 35c-2 10.667 -2.66699 26.334 -2 47.001c1.33301 4.66699 18 34 50 88c0.666992 1.33301 5.33398 21.333 14.001 60c8.66699 8.66699 18.334 21.667 29.001 39
c-3.33301 8.66699 -5 20.667 -5 36c10.667 19.333 27 54 49 104c3.33301 9.33301 3.33301 16.666 0 21.999c-9.33301 18.667 -25.666 41.667 -48.999 69c-18.667 3.33301 -46.667 9.33301 -84 18c0.666992 14.667 6.33398 22 17.001 22h342c2 0 10 -1.33301 24 -4
c12 -2 21 -2.66699 27 -2c7.33301 2.66699 18.333 6 33 10c12.667 -6 16.667 -20 12 -42z" />
    <glyph glyph-name="w" unicode="w" horiz-adv-x="1459" 
d="M1557 1252c1.33301 -11.333 -10.9971 -21.9951 -36.9971 -31.9951c-35.333 -13.333 -53.666 -20.333 -54.999 -21c-27.333 -20 -47 -53.333 -59 -100c-14 -28 -30 -72 -48 -132c-2.66699 -20 -13 -49.167 -31 -87.5s-27 -61.666 -27 -69.999s-1 -21.166 -3 -38.499
l-209 -650l-25 -92c-13.333 -36 -31 -54 -53 -54c-8.66699 0 -17.667 2.33301 -27 7c0 2.66699 1.66699 9.5 5 20.5s4.66602 19.833 3.99902 26.5c-8.66699 4.66699 -17.667 18.334 -27 41.001c0 8 -0.666992 19.333 -2 34c-8.66699 20 -20.667 52.333 -36 97l-4 47
c-3.33301 23.333 -11.666 42 -24.999 56c-0.666992 4.66699 -2 11 -4 19c4 10 6 19.667 6 29c0 17.333 -6.66699 35.333 -20 54l-35 43c6 8.66699 13.667 20.334 23 35.001c-8.66699 9.33301 -18 22.666 -28 39.999c0 10.667 -1 28 -3 52
c-7.33301 12 -17.666 30.667 -30.999 56c-2.66699 6 -3 16 -1 30c3.33301 19.333 5 32.333 5 39c-20 13.333 -35 7.66602 -45 -17.001c-9.33301 -34.667 -24 -86.334 -44 -155.001c-23.333 -52.667 -50 -131 -80 -235c-8 -18.667 -18.333 -47.667 -31 -87
c-10 -46.667 -18.333 -82.334 -25 -107.001c-12.667 -43.333 -27 -78.666 -43 -105.999c-16 -8 -33.333 -8 -52 0c-10.667 23.333 -19.334 53.666 -26.001 90.999c-8 44.667 -14 73.667 -18 87c-8.66699 26.667 -21 48 -37 64c6.66699 40 5.33398 70.333 -3.99902 91
c-10 9.33301 -24 24.666 -42 45.999c-0.666992 8.66699 -1.33398 19.667 -2.00098 33c0 3.33301 -0.666992 6 -2 8c-9.33301 19.333 -21.333 48 -36 86c1.33301 8.66699 0.666016 20.667 -2.00098 36l14 14c15.333 -12.667 38 -26.334 68 -41.001
c2 14.667 -3.66699 30 -17 46c-16 18.667 -24.667 32.667 -26 42c-71.333 36 -107 75 -107 117c0 10 2 19.667 6 29c-9.33301 14 -20.666 34.667 -33.999 62c-4.66699 24 -13.667 58.667 -27 104c-8.66699 9.33301 -19 24.666 -31 45.999c1.33301 13.333 2 34.666 2 63.999
l-36 62l-25 53c-11.333 21.333 -24.333 37 -39 47c-11.333 8.66699 -40.333 17 -87 25c1.33301 0 -2.66699 4.66699 -12 14c2.66699 5.33301 7 11.333 13 18c26.667 3.33301 73.334 1 140.001 -7c10 -1.33301 26 -0.333008 48 3c24.667 4.66699 37.667 7 39 7h176
c4 0 10.167 2.66699 18.5 8s14.5 8 18.5 8c2.66699 -5.33301 4 -10 4 -14c0 -11.333 -14.333 -24.166 -43 -38.499s-43.334 -32.166 -44.001 -53.499c-1.33301 -32 8.66699 -68 30 -108c1.33301 -17.333 4.66602 -44.333 9.99902 -81c6 -22.667 29.667 -83.667 71 -183
c0.666992 -14 2 -33.333 4 -58l13 -23c-0.666992 -18.667 5.66602 -41 18.999 -67c16.667 -32.667 25.667 -52.667 27 -60c9.33301 -43.333 29 -106 59 -188c14 0 23.333 7 28 21c25.333 79.333 45.666 154 60.999 224c5.33301 5.33301 11.666 15 18.999 29
c4 24 13 58.667 27 104c20 45.333 30 78 30 98c0 11.333 -1.66699 22.333 -5 33l-97 281c-9.33301 9.33301 -28.333 21 -57 35c-25.333 12 -40.333 22.333 -45 31c14.667 2 37.334 6.33301 68.001 13c0 -12 1.66699 -19.333 5 -22c24 -5.33301 55.333 -5.33301 94 0l106 14
c8 0.666992 34 -0.333008 78 -3c32 -1.33301 58.333 2.33398 79 11.001c2.66699 -8 4 -14.333 4 -19c0 -10 -10 -17.333 -30 -22c-26.667 -6 -46 -15 -58 -27c-7.33301 -7.33301 -11 -20 -11 -38c0 -12 3.33301 -30 10 -54c8.66699 -31.333 13.667 -51.666 15 -60.999
c-2.66699 -16 -3.33398 -39 -2.00098 -69c12 -12.667 26 -31.667 42 -57c3.33301 -22.667 8.66602 -53.334 15.999 -92.001l27 -95c11.333 -39.333 15.666 -69 12.999 -89c10 -8.66699 20.333 -20.334 31 -35.001c0.666992 -9.33301 5.66699 -41.333 15 -96
c7.33301 -44 11 -77 11 -99l14 -16c8 4 17.667 11.333 29 22c12.667 27.333 32 71.333 58 132c6.66699 42.667 17.334 102 32.001 178c1.33301 5.33301 13.666 20.666 36.999 45.999c1.33301 51.333 14.666 103.333 39.999 156c0.666992 11.333 3.66699 28.666 9 51.999
c6 5.33301 12.667 14.666 20 27.999c4 24.667 13.333 63 28 115c13.333 32.667 10 58.667 -10 78c-8 6.66699 -22.667 12.667 -44 18c-25.333 6.66699 -43 12.334 -53 17.001c11.333 17.333 39.333 23.666 84 18.999c0.666992 0 4.33398 -1.33301 11.001 -4
s12.334 -4 17.001 -4c4 0 12.333 2 25 6s25.334 6.66699 38.001 8c7.33301 0.666992 19 -0.5 35 -3.5s27.667 -4.5 35 -4.5c32 0 67 3.33301 105 10zM322.003 602.005l-20 -14l-5 8l20 14z" />
    <glyph glyph-name="x" unicode="x" horiz-adv-x="1341" 
d="M1435 -10c-32 0 -52.3281 -1.33301 -60.9951 -4c-14.667 -4 -40.334 -3.66699 -77.001 1c-46 5.33301 -74.333 8 -85 8h-127c-2 0 -10 -1 -24 -3s-22 -3 -24 -3h-70c-6.66699 0 -19.5 -0.833008 -38.5 -2.5s-33.5 -2.16699 -43.5 -1.5c-15.333 1.33301 -28 5 -38 11
c-3.33301 9.33301 -2.33301 15.333 3 18c19.333 5.33301 47.666 16 84.999 32c4.66699 2 22.334 17 53.001 45c5.33301 27.333 0.333008 52.333 -15 75c-44.667 64 -100 139.333 -166 226c-14.667 22 -39.667 51.333 -75 88c-2 1.33301 -4 2 -6 2
c-8 0 -17.667 -10.333 -29 -31c-8 -16 -16.333 -31.667 -25 -47l-89 -108c-3.33301 -12.667 -9.33301 -29 -18 -49c-10 -12.667 -24.333 -32.334 -43 -59.001c-2.66699 0 -6.33398 -0.666992 -11.001 -2c-2.66699 -8 -8 -19.667 -16 -35l-45 -71
c-0.666992 -4 -0.666992 -8 0 -12c1.33301 -8.66699 7 -17 17 -25s19.667 -12 29 -12c3.33301 -10.667 7.66602 -21 12.999 -31c-10 -11.333 -17.333 -17 -22 -17h-94c-1.33301 0 -7.5 1.16699 -18.5 3.5s-19.5 3.83301 -25.5 4.5c-19.333 2 -36 1.33301 -50 -2l-190 -6
c-13.333 -1.33301 -26.666 -2.33301 -39.999 -3c-16 0 -23 10 -21 30c7.33301 10 20.666 16 39.999 18c26.667 3.33301 40.334 5 41.001 5c16.667 6 40.334 16.333 71.001 31c28.667 18 60.667 42.667 96 74c22 20 58.333 59 109 117c39.333 45.333 92 113.333 158 204
c0.666992 4 2.33398 10 5.00098 18c23.333 33.333 45.333 67 66 101c-10.667 18 -95.334 137.333 -254.001 358c-11.333 19.333 -30.333 49 -57 89c-13.333 14.667 -32.666 37.334 -57.999 68.001c-0.666992 1.33301 -1 5 -1 11c0 12 -11 28 -33 48
c-18.667 17.333 -35.667 29.333 -51 36s-30.333 11.667 -45 15c-9.33301 -0.666992 -23.5 0.5 -42.5 3.5s-28.5 13.167 -28.5 30.5c0 5.33301 3.66699 9.66602 11 12.999h500c2.66699 0 7.66699 -4.33301 15 -13c-4.66699 -12.667 -11.167 -19.834 -19.5 -21.501
s-16.833 -2.83398 -25.5 -3.50098c-2 -2 -4 -7.33301 -6 -16c-6.66699 -5.33301 -15.667 -15.666 -27 -30.999c-4.66699 -12 -3.33398 -24.667 3.99902 -38l47 -88c1.33301 -8 4.33301 -20.333 9 -37c2 -4 9 -9 21 -15s21.667 -18 29 -36
c5.33301 -12.667 10.333 -25.334 15 -38.001c4.66699 -3.33301 10.667 -8 18 -14c22 -34 56.667 -83.667 104 -149c5.33301 1.33301 12.666 5.33301 21.999 12c55.333 76.667 126.333 180.334 213 311.001c10 16 17.667 31.333 23 46c2.66699 8 2.66699 18.667 0 32
c-3.33301 18.667 -5 29.334 -5 32.001c-11.333 4.66699 -28.333 13 -51 25c-2.66699 6.66699 -7.33398 16.334 -14.001 29.001c38 10 63 14.333 75 13c40 -4.66699 91 -7 153 -7c99.333 0.666992 150.666 1 153.999 1c9.33301 0.666992 18.666 1.66699 27.999 3
c10.667 -0.666992 16.667 -7.66699 18 -21c-26 -6.66699 -64.667 -17.334 -116 -32.001c-10 -4 -24.667 -13.333 -44 -28l-18 -29c-9.33301 -0.666992 -15.333 -2.33398 -18 -5.00098l-44 -54c0 -3.33301 -0.333008 -8.66602 -1 -15.999c-4.66699 -2 -10.334 -7 -17.001 -15
c-2 -8 -7.33301 -18.333 -16 -31c-6.66699 -2.66699 -17 -11 -31 -25l-103 -167c-27.333 -39.333 -65.333 -99.666 -114 -180.999l163 -240c80.667 -114.667 157.667 -213.334 231 -296.001c20.667 -23.333 42.334 -39.666 65.001 -48.999l119 -39
c2.66699 -4 4 -13.667 4 -29z" />
    <glyph glyph-name="y" unicode="y" horiz-adv-x="1018" 
d="M1129 1256c0 -4 -0.668945 -10.6689 -2.00195 -20.002c-19.333 -4.66699 -47 -15.667 -83 -33c-20 -16 -46.333 -46.667 -79 -92l-89 -165c-4.66699 -4.66699 -11 -11.667 -19 -21c-8 -11.333 -24 -43.666 -48 -96.999c-6.66699 -16 -18.334 -40.667 -35.001 -74
c-13.333 -16.667 -32.333 -42.334 -57 -77.001c-7.33301 -11.333 -14.333 -38 -21 -80c-3.33301 -22.667 -4 -58.667 -2 -108c-0.666992 -26 -0.666992 -69 0 -129c0.666992 -43.333 1 -86.666 1 -129.999c1.33301 -52 7.66602 -94.667 18.999 -128
c9.33301 -29.333 27.333 -52 54 -68c14.667 -4 33 -12.667 55 -26c0 -14 -5.66699 -21.333 -17 -22c18 1.33301 8.33301 2 -29 2l-101 3c-41.333 0 -63.666 1 -66.999 3c-16.667 -2.66699 -50 -3.66699 -100 -3l-148 -3c-2.66699 4 -6.66699 9 -12 15
c0.666992 8.66699 24.334 19 71.001 31c22.667 6 44.334 24.667 65.001 56c16.667 25.333 27.667 49 33 71c7.33301 30 11.333 43.667 12 41c-6.66699 6 -14.334 16.667 -23.001 32c2.66699 23.333 4.33398 58.333 5.00098 105c-3.33301 4.66699 -7.33301 11.667 -12 21
c-2 20 -3 62 -3 126c0 40 -3 76 -9 108l-29 48c-8.66699 10.667 -21.667 28.334 -39 53.001l-156 251c-30.667 38 -74 96.333 -130 175c-9.33301 16 -24.666 37.667 -45.999 65c-10 9.33301 -25 17.666 -45 24.999l-50 18c-1.33301 10 2.66699 15.333 12 16
c13.333 0.666992 120.333 4 321 10c20.667 -0.666992 51.334 -1.33398 92.001 -2.00098c3.33301 -2.66699 5 -5.66699 5 -9s-8.16699 -12.166 -24.5 -26.499s-24.5 -30.166 -24.5 -47.499c0 -28 9.66699 -54 29 -78c4 -14 12 -34 24 -60
c55.333 -92 105.333 -167.667 150 -227c20 -26.667 35.667 -39.667 47 -39c11.333 -2.66699 23.333 4.33301 36 21l31 46c4 13.333 11.667 33 23 59c6 7.33301 13.333 17.666 22 30.999c11.333 26 22 47.333 32 64l12 41c7.33301 10.667 16 25.667 26 45
c10.667 48 16 75.667 16 83c0 30 -11.667 52.667 -35 68c-6.66699 2.66699 -17.334 9.33398 -32.001 20.001c1.33301 2 4 4.66699 8 8c38 2 115 -2 231 -12c31.333 6 76.333 11.333 135 16z" />
    <glyph glyph-name="z" unicode="z" horiz-adv-x="1194" 
d="M1231 218c0 -41.333 -0.673828 -56.6689 -2.00684 -46.002c2 -18.667 -1.33301 -44 -10 -76c0 -0.666992 -3 -6.33398 -9 -17.001c-4 -7.33301 -4.66699 -13.333 -2 -18c14 -24 21 -40 21 -48c0 -13.333 -13 -20 -39 -20h-1066
c-29.333 4.66699 -40.666 16.667 -33.999 36c6.66699 3.33301 15.334 8.33301 26.001 15c11.333 17.333 25.333 41.666 42 72.999c8 20 33 57.333 75 112c38.667 49.333 59 82.666 61 99.999c10.667 10.667 25.334 27.334 44.001 50.001l114 148
c8.66699 22.667 29.334 57.667 62.001 105c0.666992 4 3.33398 9.33301 8.00098 16c16.667 2.66699 84 4 202 4c0.666992 3.33301 -4 7.33301 -14 12c-30.667 12.667 -54 20.334 -70 23.001c-11.333 0 -28.666 0.333008 -51.999 1c-10.667 1.33301 -19 5.66602 -25 12.999
c14 12 30.667 29.333 50 52c9.33301 21.333 26 51.666 50 90.999c12.667 8 27.667 20.333 45 37c0.666992 11.333 4.66699 27 12 47c17.333 16 41.666 41.333 72.999 76c4 16 13 41 27 75c4.66699 8.66699 19.334 22.334 44.001 41.001c21.333 16.667 32 28.334 32 35.001
c0 8 -12.667 14 -38 18h-117c3.33301 0 -14.667 -1 -54 -3c-36 -2 -62.667 -2.66699 -80 -2c-11.333 0.666992 -24.333 3.66699 -39 9c-1.33301 0.666992 -10.666 8 -27.999 22c-14 11.333 -27.333 16 -40 14c0 -2.66699 0.833008 -9 2.5 -19s2.16699 -17.667 1.5 -23
c-12 -6 -24 -9.66699 -36 -11c-24.667 -2.66699 -55 -8.16699 -91 -16.5s-64 -23.5 -84 -45.5c-45.333 -49.333 -68 -81 -68 -95c0 -4 1.16699 -9.5 3.5 -16.5s3.5 -12.167 3.5 -15.5c0 -8 -4.33301 -15 -13 -21s-20.667 -9 -36 -9c-17.333 0 -29.333 5 -36 15
c-0.666992 0.666992 1.33301 12.667 6 36c8 39.333 9.66699 71 5 95c-0.666992 3.33301 -3.83398 9.33301 -9.50098 18s-8.5 15 -8.5 19s3.66699 10.667 11 20s11.333 16.666 12 21.999c-3.33301 15.333 -2.33301 38.666 3 69.999c4 6 18.333 11 43 15
c26.667 3.33301 61.667 2.66602 105 -2.00098l833 3c36 6.66699 56 0.333984 60 -18.999c4 -20.667 1.66699 -39.334 -7 -56.001c-11.333 -21.333 -25.666 -39.666 -42.999 -54.999c-12 -7.33301 -26.667 -19 -44 -35c-1.33301 -2.66699 -3.66602 -15 -6.99902 -37l-26 -27
c-10.667 -22 -27.334 -53 -50.001 -93c-18.667 -15.333 -43 -38.666 -73 -69.999c-3.33301 -10.667 -9 -27 -17 -49c-10 -20.667 -30 -48 -60 -82c-32.667 -37.333 -51.334 -59.666 -56.001 -66.999l-105 -128c0 -6 -0.666992 -14.667 -2 -26
c-10 -8 -23.333 -20.667 -40 -38c-1.33301 -8 -5.33301 -19.333 -12 -34c-7.33301 -7.33301 -16 -17 -26 -29c-4 -13.333 -12.667 -33 -26 -59c-14 -13.333 -33.667 -35.666 -59 -66.999c-16 -28 -46 -71.667 -90 -131c-8 -14 -24 -36 -48 -66
c14.667 -8.66699 56.667 -13 126 -13h127c4 0 10 0.833008 18 2.5s13 2.5 15 2.5c19.333 0 51 0.666992 95 2l66 12c13.333 0.666992 35.333 2.33398 66 5.00098c36.667 4.66699 76.667 23.667 120 57c5.33301 7.33301 14.333 18 27 32c24.667 21.333 39.334 35 44.001 41
c15.333 16.667 23.333 34.334 24 53.001c-1.33301 13.333 1 32.333 7 57c4.66699 7.33301 14.667 11 30 11c28 0 44.667 -6.66699 50 -20v-108z" />
    <glyph glyph-name="braceleft" unicode="{" horiz-adv-x="1024" 
d="M846 1516v-50.999c-97.333 -1.33301 -163.333 -21.666 -198 -60.999c-32 -36.667 -48 -104.667 -48 -204v-143c0 -134.667 -15.667 -229.334 -47 -284.001c-39.333 -69.333 -119.333 -115.333 -240 -138c120.667 -22.667 200.667 -68.667 240 -138
c31.333 -54.667 47 -149.334 47 -284.001v-143c0 -100 16 -168 48 -204c34 -38 100 -57.667 198 -59v-51h-10c-139.333 0 -236 22.667 -290 68c-59.333 50 -89 142.667 -89 278v213c0 105.333 -20.667 178.666 -62 219.999c-39.333 38.667 -112.333 62.334 -219 71.001v60
c107.333 10 180.333 33.667 219 71c41.333 40.667 62 113.667 62 219v213c0 136 29.667 229 89 279c53.333 45.333 150 68 290 68h10z" />
    <glyph glyph-name="bar" unicode="|" horiz-adv-x="1024" 
d="M449 1565h126v-2048h-126v2048z" />
    <glyph glyph-name="braceright" unicode="}" horiz-adv-x="1024" 
d="M178 1516l10.001 -0.000976562c139.333 0 236 -23 290 -69c59.333 -50 89 -142.667 89 -278v-213c0 -105.333 20.667 -178.333 62 -219c38.667 -37.333 111.667 -61 219 -71v-60c-106.667 -8.66699 -179.667 -32.334 -219 -71.001
c-41.333 -41.333 -62 -114.666 -62 -219.999v-213c0 -135.333 -29.667 -228 -89 -278c-54.667 -45.333 -151.334 -68 -290.001 -68h-10v51c98 1.33301 164 21 198 59c32 36 48 104 48 204v143c0 134.667 15.667 229.334 47 284.001c39.333 69.333 119.333 115.333 240 138
c-120.667 22.667 -200.667 68.667 -240 138c-31.333 54.667 -47 149.334 -47 284.001v143c0 99.333 -16 167.333 -48 204c-34.667 39.333 -100.667 59.666 -198 60.999v51z" />
    <glyph glyph-name="asciitilde" unicode="~" horiz-adv-x="1706" 
d="M1530 758l-0.000976562 -130.999c-134.667 -96 -263.667 -144 -387 -144c-55.333 0 -119 11.667 -191 35c-4.66699 1.33301 -33.667 11.666 -87 30.999c-134 48 -234.667 72 -302 72c-104.667 0 -233 -53.333 -385 -160v133c139.333 96.667 268.333 145 387 145
c70 0 167 -21.667 291 -65c6.66699 -2.66699 18.334 -7 35.001 -13c108 -39.333 192.667 -59 254 -59c108.667 0 237 52 385 156z" />
    <glyph glyph-name="nonbreakingspace" unicode="&#xa0;" 
 />
    <glyph glyph-name="exclamdown" unicode="&#xa1;" 
d="M33 -23l-33.001 21c1.33301 6 23.333 142.333 66 409c38.667 240.667 60.334 361 65.001 361c10.667 0 16 -4 16 -12c0 -2.66699 -0.333008 -6.5 -1 -11.5s-1 -8.83301 -1 -11.5c0 -302 12.333 -505.333 37 -610c4 -17.333 14 -31.666 30 -42.999
c14 -10.667 21 -17.667 21 -21s-27.667 -15 -83 -35c-63.333 -22.667 -102.333 -38.334 -117 -47.001zM116.999 1143l23.998 -0.000976562c17.333 -44 52.333 -78.333 105 -103v-24c-38 -17.333 -69.667 -53.666 -95 -108.999h-26
c-15.333 38.667 -46.666 75.667 -93.999 111v20c44.667 38 73.334 73 86.001 105z" />
    <glyph glyph-name="cent" unicode="&#xa2;" horiz-adv-x="1766" 
d="M763 712l-9.99805 -86.001c-4 -31.333 -4 -57.333 0 -78l-2 -2c-4.66699 -5.33301 -6 -12.333 -4 -21c2 -12.667 3 -20 3 -22c-12 -17.333 -24.667 -19.666 -38 -6.99902c3.33301 12.667 5 25 5 37l-4 13c0 5.33301 -1.33301 12.666 -4 21.999
c-8 14.667 -23.333 34 -46 58c-26 17.333 -53 29 -81 35c-18.667 4 -26.334 6 -23.001 6h-71v-630l6 -1c20.667 -1.33301 65.667 3.33398 135 14.001c34.667 5.33301 64.334 32.666 89.001 81.999c0.666992 0.666992 2 9 4 25c1.33301 4.66699 2.66602 11.667 3.99902 21
s2.66602 24.333 3.99902 45l8 2c11.333 0 17.666 -13.667 18.999 -41c0.666992 -42 -1.33301 -82.667 -6 -122c0 -12.667 -3.66699 -29.667 -11 -51c-2.66699 -4 -14.667 -9 -36 -15c-30.667 -8 -54 -13 -70 -15c-58 -9.33301 -106.667 -13.333 -146 -12v-184h-51v188
c-15.333 2 -29.666 5.33301 -42.999 10c-4 0 -9 0.833008 -15 2.5s-14 4.5 -24 8.5c-43.333 12 -87 37.333 -131 76c-46 40 -76 81.667 -90 125c-3.33301 6.66699 -8.33301 17.334 -15 32.001c0 2.66699 -0.333008 7 -1 13c-3.33301 6 -7.33301 15.333 -12 28
c-2 9.33301 -4.33301 23.666 -7 42.999c0 10.667 0.666992 37 2 79c0.666992 10 9 50 25 120l26 44c10 17.333 25 36.333 45 57c11.333 -1.33301 28 9.33398 50 32.001l47 48c2 -0.666992 5.66699 -0.666992 11 0c4.66699 4 11.667 8.66699 21 14
c4 -1.33301 10.667 -2.33301 20 -3c20 6 50.333 13.333 91 22v205h51v-201l15 1h76c0.666992 0 32.667 -3 96 -9c22.667 0.666992 52 -2 88 -8zM437.002 45.999l0.00195312 615.001c-10 -2 -24.333 -5.33301 -43 -10c-34.667 -10.667 -67 -31.334 -97 -62.001
c-4 -4.66699 -13 -21.334 -27 -50.001c-20.667 -40.667 -31 -74 -31 -100c0 -4 0.333008 -7.33301 1 -10c-0.666992 2.66699 -1.66699 -2 -3 -14c-2 -30 -2.66699 -48.667 -2 -56c1.33301 -15.333 2.33301 -19.333 3 -12
c-0.666992 -9.33301 1.66602 -32.666 6.99902 -69.999c0 -8.66699 1 -22.334 3 -41.001c3.33301 -4.66699 7.66602 -11.334 12.999 -20.001c0.666992 -5.33301 2.33398 -12.666 5.00098 -21.999c7.33301 -8.66699 16.666 -21.667 27.999 -39
c12.667 -25.333 25.167 -42.5 37.5 -51.5l54.5 -38.5c2 -5.33301 5.66699 -12.666 11 -21.999c2.66699 -0.666992 7.5 -0.166992 14.5 1.5s12.5 2.5 16.5 2.5c2.66699 0 5.66699 -0.333008 9 -1z" />
    <glyph glyph-name="sterling" unicode="&#xa3;" horiz-adv-x="1766" 
d="M801 948c-103.333 79.333 -174.331 118.997 -212.998 118.997c-105.333 0 -158 -136 -158 -408c0 -9.33301 0.333008 -23.666 1 -42.999s1 -33.666 1 -42.999h52c116 0 236 6.33301 360 19l-32 -61c-52.667 -7.33301 -148.334 -11 -287.001 -11h-95v-35
c0 -105.333 -55 -222.333 -165 -351c-6.66699 -7.33301 -14.334 -16.666 -23.001 -27.999c42.667 11.333 94.667 17 156 17c42 0 105.167 -3.5 189.5 -10.5s147.5 -10.5 189.5 -10.5c40.667 0 74.667 21.5 102 64.5l41 64.5c12 0 18 -3.33301 18 -10
c-1.33301 -4 -4.66602 -11.667 -9.99902 -23c-28.667 -58 -54 -117.333 -76 -178c-10.667 -28.667 -34.334 -43 -71.001 -43c-44 0 -110.167 3.83301 -198.5 11.5s-154.833 11.5 -199.5 11.5c-119.333 -0 -204.333 -14.667 -255 -44c-5.33301 -3.33301 -9 -5 -11 -5
c-12 0 -18 5.33301 -18 16c0 4 8 15.667 24 35c59.333 73.333 102.333 144.333 129 213c16.667 43.333 25 125.333 25 246v59h-152v59c18 -1.33301 37.333 -2.33301 58 -3c20 -0.666992 51.333 -0.666992 94 0c-1.33301 13.333 -2 32.333 -2 57c0 126 30.333 236 91 330
c70 108.667 164.667 163 284 163c40.667 0 84.334 -10 131.001 -30l71 -31c3.33301 0 8.16602 2.66699 14.499 8s10.5 8 12.5 8c10.667 0 16 -5.33301 16 -16c0 -19.333 -12 -40 -36 -62c-34.667 -30.667 -54 -49 -58 -55z" />
    </font>
</defs>
</svg>
